<svg width="1243" height="910" viewBox="0 0 1243 910" fill="none" xmlns="http://www.w3.org/2000/svg">
<path d="M78 875.5H1238" stroke="#CCCCCC" stroke-dasharray="4 2"/>
<path d="M78 659.5H1238" stroke="#CCCCCC" stroke-dasharray="4 2"/>
<path d="M78 443.5H1238" stroke="#CCCCCC" stroke-dasharray="4 2"/>
<path d="M78 227.5H1238" stroke="#CCCCCC" stroke-dasharray="4 2"/>
<path d="M78 11.5H1238" stroke="#CCCCCC" stroke-dasharray="4 2"/>
<path d="M78.5 11V876" stroke="#CCCCCC" stroke-dasharray="4 2"/>
<path d="M464.833 11V876" stroke="#CCCCCC" stroke-dasharray="4 2"/>
<path d="M851.167 11V876" stroke="#CCCCCC" stroke-dasharray="4 2"/>
<path d="M1237.5 11V876" stroke="#CCCCCC" stroke-dasharray="4 2"/>
<path d="M10.998 880.516V882H1.69141V880.701L6.34961 875.516C6.92253 874.878 7.36523 874.337 7.67773 873.895C7.99674 873.445 8.2181 873.045 8.3418 872.693C8.47201 872.335 8.53711 871.971 8.53711 871.6C8.53711 871.131 8.43945 870.708 8.24414 870.33C8.05534 869.946 7.77539 869.64 7.4043 869.412C7.0332 869.184 6.58398 869.07 6.05664 869.07C5.42513 869.07 4.89779 869.194 4.47461 869.441C4.05794 869.682 3.74544 870.021 3.53711 870.457C3.32878 870.893 3.22461 871.395 3.22461 871.961H1.41797C1.41797 871.16 1.59375 870.428 1.94531 869.764C2.29688 869.1 2.81771 868.572 3.50781 868.182C4.19792 867.785 5.04753 867.586 6.05664 867.586C6.95508 867.586 7.72331 867.745 8.36133 868.064C8.99935 868.377 9.48763 868.82 9.82617 869.393C10.1712 869.959 10.3438 870.623 10.3438 871.385C10.3438 871.801 10.2721 872.225 10.1289 872.654C9.99219 873.077 9.80013 873.501 9.55273 873.924C9.31185 874.347 9.02865 874.764 8.70312 875.174C8.38411 875.584 8.04232 875.988 7.67773 876.385L3.86914 880.516H10.998ZM21.8574 873.758V875.926C21.8574 877.091 21.7533 878.074 21.5449 878.875C21.3366 879.676 21.0371 880.32 20.6465 880.809C20.2559 881.297 19.7839 881.652 19.2305 881.873C18.6836 882.088 18.0651 882.195 17.375 882.195C16.8281 882.195 16.3236 882.127 15.8613 881.99C15.3991 881.854 14.9824 881.635 14.6113 881.336C14.2467 881.03 13.9342 880.633 13.6738 880.145C13.4134 879.656 13.2148 879.064 13.0781 878.367C12.9414 877.671 12.873 876.857 12.873 875.926V873.758C12.873 872.592 12.9772 871.616 13.1855 870.828C13.4004 870.04 13.7031 869.409 14.0938 868.934C14.4844 868.452 14.9531 868.107 15.5 867.898C16.0534 867.69 16.6719 867.586 17.3555 867.586C17.9089 867.586 18.4167 867.654 18.8789 867.791C19.3477 867.921 19.7643 868.133 20.1289 868.426C20.4935 868.712 20.8027 869.096 21.0566 869.578C21.3171 870.053 21.5156 870.636 21.6523 871.326C21.7891 872.016 21.8574 872.827 21.8574 873.758ZM20.041 876.219V873.455C20.041 872.817 20.002 872.257 19.9238 871.775C19.8522 871.287 19.7448 870.87 19.6016 870.525C19.4583 870.18 19.276 869.9 19.0547 869.686C18.8398 869.471 18.5892 869.314 18.3027 869.217C18.0228 869.113 17.707 869.061 17.3555 869.061C16.9258 869.061 16.5449 869.142 16.2129 869.305C15.8809 869.461 15.6009 869.712 15.373 870.057C15.1517 870.402 14.9824 870.854 14.8652 871.414C14.748 871.974 14.6895 872.654 14.6895 873.455V876.219C14.6895 876.857 14.7253 877.42 14.7969 877.908C14.875 878.396 14.9889 878.82 15.1387 879.178C15.2884 879.529 15.4707 879.819 15.6855 880.047C15.9004 880.275 16.1478 880.444 16.4277 880.555C16.7142 880.659 17.0299 880.711 17.375 880.711C17.8177 880.711 18.2051 880.626 18.5371 880.457C18.8691 880.288 19.1458 880.024 19.3672 879.666C19.5951 879.301 19.7643 878.836 19.875 878.27C19.9857 877.697 20.041 877.013 20.041 876.219ZM33.1074 873.758V875.926C33.1074 877.091 33.0033 878.074 32.7949 878.875C32.5866 879.676 32.2871 880.32 31.8965 880.809C31.5059 881.297 31.0339 881.652 30.4805 881.873C29.9336 882.088 29.3151 882.195 28.625 882.195C28.0781 882.195 27.5736 882.127 27.1113 881.99C26.6491 881.854 26.2324 881.635 25.8613 881.336C25.4967 881.03 25.1842 880.633 24.9238 880.145C24.6634 879.656 24.4648 879.064 24.3281 878.367C24.1914 877.671 24.123 876.857 24.123 875.926V873.758C24.123 872.592 24.2272 871.616 24.4355 870.828C24.6504 870.04 24.9531 869.409 25.3438 868.934C25.7344 868.452 26.2031 868.107 26.75 867.898C27.3034 867.69 27.9219 867.586 28.6055 867.586C29.1589 867.586 29.6667 867.654 30.1289 867.791C30.5977 867.921 31.0143 868.133 31.3789 868.426C31.7435 868.712 32.0527 869.096 32.3066 869.578C32.5671 870.053 32.7656 870.636 32.9023 871.326C33.0391 872.016 33.1074 872.827 33.1074 873.758ZM31.291 876.219V873.455C31.291 872.817 31.252 872.257 31.1738 871.775C31.1022 871.287 30.9948 870.87 30.8516 870.525C30.7083 870.18 30.526 869.9 30.3047 869.686C30.0898 869.471 29.8392 869.314 29.5527 869.217C29.2728 869.113 28.957 869.061 28.6055 869.061C28.1758 869.061 27.7949 869.142 27.4629 869.305C27.1309 869.461 26.8509 869.712 26.623 870.057C26.4017 870.402 26.2324 870.854 26.1152 871.414C25.998 871.974 25.9395 872.654 25.9395 873.455V876.219C25.9395 876.857 25.9753 877.42 26.0469 877.908C26.125 878.396 26.2389 878.82 26.3887 879.178C26.5384 879.529 26.7207 879.819 26.9355 880.047C27.1504 880.275 27.3978 880.444 27.6777 880.555C27.9642 880.659 28.2799 880.711 28.625 880.711C29.0677 880.711 29.4551 880.626 29.7871 880.457C30.1191 880.288 30.3958 880.024 30.6172 879.666C30.8451 879.301 31.0143 878.836 31.125 878.27C31.2357 877.697 31.291 877.013 31.291 876.219ZM44.3574 873.758V875.926C44.3574 877.091 44.2533 878.074 44.0449 878.875C43.8366 879.676 43.5371 880.32 43.1465 880.809C42.7559 881.297 42.2839 881.652 41.7305 881.873C41.1836 882.088 40.5651 882.195 39.875 882.195C39.3281 882.195 38.8236 882.127 38.3613 881.99C37.8991 881.854 37.4824 881.635 37.1113 881.336C36.7467 881.03 36.4342 880.633 36.1738 880.145C35.9134 879.656 35.7148 879.064 35.5781 878.367C35.4414 877.671 35.373 876.857 35.373 875.926V873.758C35.373 872.592 35.4772 871.616 35.6855 870.828C35.9004 870.04 36.2031 869.409 36.5938 868.934C36.9844 868.452 37.4531 868.107 38 867.898C38.5534 867.69 39.1719 867.586 39.8555 867.586C40.4089 867.586 40.9167 867.654 41.3789 867.791C41.8477 867.921 42.2643 868.133 42.6289 868.426C42.9935 868.712 43.3027 869.096 43.5566 869.578C43.8171 870.053 44.0156 870.636 44.1523 871.326C44.2891 872.016 44.3574 872.827 44.3574 873.758ZM42.541 876.219V873.455C42.541 872.817 42.502 872.257 42.4238 871.775C42.3522 871.287 42.2448 870.87 42.1016 870.525C41.9583 870.18 41.776 869.9 41.5547 869.686C41.3398 869.471 41.0892 869.314 40.8027 869.217C40.5228 869.113 40.207 869.061 39.8555 869.061C39.4258 869.061 39.0449 869.142 38.7129 869.305C38.3809 869.461 38.1009 869.712 37.873 870.057C37.6517 870.402 37.4824 870.854 37.3652 871.414C37.248 871.974 37.1895 872.654 37.1895 873.455V876.219C37.1895 876.857 37.2253 877.42 37.2969 877.908C37.375 878.396 37.4889 878.82 37.6387 879.178C37.7884 879.529 37.9707 879.819 38.1855 880.047C38.4004 880.275 38.6478 880.444 38.9277 880.555C39.2142 880.659 39.5299 880.711 39.875 880.711C40.3177 880.711 40.7051 880.626 41.0371 880.457C41.3691 880.288 41.6458 880.024 41.8672 879.666C42.0951 879.301 42.2643 878.836 42.375 878.27C42.4857 877.697 42.541 877.013 42.541 876.219ZM55.6074 873.758V875.926C55.6074 877.091 55.5033 878.074 55.2949 878.875C55.0866 879.676 54.7871 880.32 54.3965 880.809C54.0059 881.297 53.5339 881.652 52.9805 881.873C52.4336 882.088 51.8151 882.195 51.125 882.195C50.5781 882.195 50.0736 882.127 49.6113 881.99C49.1491 881.854 48.7324 881.635 48.3613 881.336C47.9967 881.03 47.6842 880.633 47.4238 880.145C47.1634 879.656 46.9648 879.064 46.8281 878.367C46.6914 877.671 46.623 876.857 46.623 875.926V873.758C46.623 872.592 46.7272 871.616 46.9355 870.828C47.1504 870.04 47.4531 869.409 47.8438 868.934C48.2344 868.452 48.7031 868.107 49.25 867.898C49.8034 867.69 50.4219 867.586 51.1055 867.586C51.6589 867.586 52.1667 867.654 52.6289 867.791C53.0977 867.921 53.5143 868.133 53.8789 868.426C54.2435 868.712 54.5527 869.096 54.8066 869.578C55.0671 870.053 55.2656 870.636 55.4023 871.326C55.5391 872.016 55.6074 872.827 55.6074 873.758ZM53.791 876.219V873.455C53.791 872.817 53.752 872.257 53.6738 871.775C53.6022 871.287 53.4948 870.87 53.3516 870.525C53.2083 870.18 53.026 869.9 52.8047 869.686C52.5898 869.471 52.3392 869.314 52.0527 869.217C51.7728 869.113 51.457 869.061 51.1055 869.061C50.6758 869.061 50.2949 869.142 49.9629 869.305C49.6309 869.461 49.3509 869.712 49.123 870.057C48.9017 870.402 48.7324 870.854 48.6152 871.414C48.498 871.974 48.4395 872.654 48.4395 873.455V876.219C48.4395 876.857 48.4753 877.42 48.5469 877.908C48.625 878.396 48.7389 878.82 48.8887 879.178C49.0384 879.529 49.2207 879.819 49.4355 880.047C49.6504 880.275 49.8978 880.444 50.1777 880.555C50.4642 880.659 50.7799 880.711 51.125 880.711C51.5677 880.711 51.9551 880.626 52.2871 880.457C52.6191 880.288 52.8958 880.024 53.1172 879.666C53.3451 879.301 53.5143 878.836 53.625 878.27C53.7357 877.697 53.791 877.013 53.791 876.219ZM66.8574 873.758V875.926C66.8574 877.091 66.7533 878.074 66.5449 878.875C66.3366 879.676 66.0371 880.32 65.6465 880.809C65.2559 881.297 64.7839 881.652 64.2305 881.873C63.6836 882.088 63.0651 882.195 62.375 882.195C61.8281 882.195 61.3236 882.127 60.8613 881.99C60.3991 881.854 59.9824 881.635 59.6113 881.336C59.2467 881.03 58.9342 880.633 58.6738 880.145C58.4134 879.656 58.2148 879.064 58.0781 878.367C57.9414 877.671 57.873 876.857 57.873 875.926V873.758C57.873 872.592 57.9772 871.616 58.1855 870.828C58.4004 870.04 58.7031 869.409 59.0938 868.934C59.4844 868.452 59.9531 868.107 60.5 867.898C61.0534 867.69 61.6719 867.586 62.3555 867.586C62.9089 867.586 63.4167 867.654 63.8789 867.791C64.3477 867.921 64.7643 868.133 65.1289 868.426C65.4935 868.712 65.8027 869.096 66.0566 869.578C66.3171 870.053 66.5156 870.636 66.6523 871.326C66.7891 872.016 66.8574 872.827 66.8574 873.758ZM65.041 876.219V873.455C65.041 872.817 65.002 872.257 64.9238 871.775C64.8522 871.287 64.7448 870.87 64.6016 870.525C64.4583 870.18 64.276 869.9 64.0547 869.686C63.8398 869.471 63.5892 869.314 63.3027 869.217C63.0228 869.113 62.707 869.061 62.3555 869.061C61.9258 869.061 61.5449 869.142 61.2129 869.305C60.8809 869.461 60.6009 869.712 60.373 870.057C60.1517 870.402 59.9824 870.854 59.8652 871.414C59.748 871.974 59.6895 872.654 59.6895 873.455V876.219C59.6895 876.857 59.7253 877.42 59.7969 877.908C59.875 878.396 59.9889 878.82 60.1387 879.178C60.2884 879.529 60.4707 879.819 60.6855 880.047C60.9004 880.275 61.1478 880.444 61.4277 880.555C61.7142 880.659 62.0299 880.711 62.375 880.711C62.8177 880.711 63.2051 880.626 63.5371 880.457C63.8691 880.288 64.1458 880.024 64.3672 879.666C64.5951 879.301 64.7643 878.836 64.875 878.27C64.9857 877.697 65.041 877.013 65.041 876.219Z" fill="#333333"/>
<path d="M4.31836 658.002H5.60742C6.23893 658.002 6.75977 657.898 7.16992 657.689C7.58659 657.475 7.89583 657.185 8.09766 656.82C8.30599 656.449 8.41016 656.033 8.41016 655.57C8.41016 655.023 8.31901 654.564 8.13672 654.193C7.95443 653.822 7.68099 653.542 7.31641 653.354C6.95182 653.165 6.48958 653.07 5.92969 653.07C5.42188 653.07 4.97266 653.171 4.58203 653.373C4.19792 653.568 3.89518 653.848 3.67383 654.213C3.45898 654.577 3.35156 655.007 3.35156 655.502H1.54492C1.54492 654.779 1.72721 654.122 2.0918 653.529C2.45638 652.937 2.96745 652.465 3.625 652.113C4.28906 651.762 5.05729 651.586 5.92969 651.586C6.78906 651.586 7.54102 651.739 8.18555 652.045C8.83008 652.344 9.33138 652.794 9.68945 653.393C10.0475 653.985 10.2266 654.724 10.2266 655.609C10.2266 655.967 10.1419 656.352 9.97266 656.762C9.8099 657.165 9.55273 657.543 9.20117 657.895C8.85612 658.246 8.4069 658.536 7.85352 658.764C7.30013 658.985 6.63607 659.096 5.86133 659.096H4.31836V658.002ZM4.31836 659.486V658.402H5.86133C6.76628 658.402 7.51497 658.51 8.10742 658.725C8.69987 658.939 9.16536 659.226 9.50391 659.584C9.84896 659.942 10.0898 660.336 10.2266 660.766C10.3698 661.189 10.4414 661.612 10.4414 662.035C10.4414 662.699 10.3275 663.288 10.0996 663.803C9.87826 664.317 9.5625 664.753 9.15234 665.111C8.7487 665.469 8.27344 665.74 7.72656 665.922C7.17969 666.104 6.58398 666.195 5.93945 666.195C5.32096 666.195 4.73828 666.107 4.19141 665.932C3.65104 665.756 3.17253 665.502 2.75586 665.17C2.33919 664.831 2.01367 664.418 1.7793 663.93C1.54492 663.435 1.42773 662.872 1.42773 662.24H3.23438C3.23438 662.735 3.3418 663.168 3.55664 663.539C3.77799 663.91 4.09049 664.2 4.49414 664.408C4.9043 664.61 5.38607 664.711 5.93945 664.711C6.49284 664.711 6.9681 664.617 7.36523 664.428C7.76888 664.232 8.07812 663.939 8.29297 663.549C8.51432 663.158 8.625 662.667 8.625 662.074C8.625 661.482 8.5013 660.997 8.25391 660.619C8.00651 660.235 7.65495 659.952 7.19922 659.77C6.75 659.581 6.2194 659.486 5.60742 659.486H4.31836ZM15.2168 659.232L13.7715 658.861L14.4844 651.781H21.7793V653.451H16.0176L15.5879 657.318C15.8483 657.169 16.1771 657.029 16.5742 656.898C16.9779 656.768 17.4401 656.703 17.9609 656.703C18.6185 656.703 19.2077 656.817 19.7285 657.045C20.2493 657.266 20.6921 657.585 21.0566 658.002C21.4277 658.419 21.7109 658.92 21.9062 659.506C22.1016 660.092 22.1992 660.746 22.1992 661.469C22.1992 662.152 22.1048 662.781 21.916 663.354C21.7337 663.926 21.457 664.428 21.0859 664.857C20.7148 665.281 20.2461 665.609 19.6797 665.844C19.1198 666.078 18.459 666.195 17.6973 666.195C17.1243 666.195 16.5807 666.117 16.0664 665.961C15.5586 665.798 15.1029 665.554 14.6992 665.229C14.3021 664.896 13.9766 664.486 13.7227 663.998C13.4753 663.503 13.319 662.924 13.2539 662.26H14.9727C15.0508 662.794 15.207 663.243 15.4414 663.607C15.6758 663.972 15.9818 664.249 16.3594 664.438C16.7435 664.62 17.1895 664.711 17.6973 664.711C18.127 664.711 18.5078 664.636 18.8398 664.486C19.1719 664.337 19.4518 664.122 19.6797 663.842C19.9076 663.562 20.0801 663.223 20.1973 662.826C20.321 662.429 20.3828 661.983 20.3828 661.488C20.3828 661.039 20.321 660.622 20.1973 660.238C20.0736 659.854 19.888 659.519 19.6406 659.232C19.3997 658.946 19.1035 658.725 18.752 658.568C18.4004 658.406 17.9967 658.324 17.541 658.324C16.9355 658.324 16.4766 658.406 16.1641 658.568C15.8581 658.731 15.5423 658.952 15.2168 659.232ZM33.1074 657.758V659.926C33.1074 661.091 33.0033 662.074 32.7949 662.875C32.5866 663.676 32.2871 664.32 31.8965 664.809C31.5059 665.297 31.0339 665.652 30.4805 665.873C29.9336 666.088 29.3151 666.195 28.625 666.195C28.0781 666.195 27.5736 666.127 27.1113 665.99C26.6491 665.854 26.2324 665.635 25.8613 665.336C25.4967 665.03 25.1842 664.633 24.9238 664.145C24.6634 663.656 24.4648 663.064 24.3281 662.367C24.1914 661.671 24.123 660.857 24.123 659.926V657.758C24.123 656.592 24.2272 655.616 24.4355 654.828C24.6504 654.04 24.9531 653.409 25.3438 652.934C25.7344 652.452 26.2031 652.107 26.75 651.898C27.3034 651.69 27.9219 651.586 28.6055 651.586C29.1589 651.586 29.6667 651.654 30.1289 651.791C30.5977 651.921 31.0143 652.133 31.3789 652.426C31.7435 652.712 32.0527 653.096 32.3066 653.578C32.5671 654.053 32.7656 654.636 32.9023 655.326C33.0391 656.016 33.1074 656.827 33.1074 657.758ZM31.291 660.219V657.455C31.291 656.817 31.252 656.257 31.1738 655.775C31.1022 655.287 30.9948 654.87 30.8516 654.525C30.7083 654.18 30.526 653.9 30.3047 653.686C30.0898 653.471 29.8392 653.314 29.5527 653.217C29.2728 653.113 28.957 653.061 28.6055 653.061C28.1758 653.061 27.7949 653.142 27.4629 653.305C27.1309 653.461 26.8509 653.712 26.623 654.057C26.4017 654.402 26.2324 654.854 26.1152 655.414C25.998 655.974 25.9395 656.654 25.9395 657.455V660.219C25.9395 660.857 25.9753 661.42 26.0469 661.908C26.125 662.396 26.2389 662.82 26.3887 663.178C26.5384 663.529 26.7207 663.819 26.9355 664.047C27.1504 664.275 27.3978 664.444 27.6777 664.555C27.9642 664.659 28.2799 664.711 28.625 664.711C29.0677 664.711 29.4551 664.626 29.7871 664.457C30.1191 664.288 30.3958 664.024 30.6172 663.666C30.8451 663.301 31.0143 662.836 31.125 662.27C31.2357 661.697 31.291 661.013 31.291 660.219ZM44.3574 657.758V659.926C44.3574 661.091 44.2533 662.074 44.0449 662.875C43.8366 663.676 43.5371 664.32 43.1465 664.809C42.7559 665.297 42.2839 665.652 41.7305 665.873C41.1836 666.088 40.5651 666.195 39.875 666.195C39.3281 666.195 38.8236 666.127 38.3613 665.99C37.8991 665.854 37.4824 665.635 37.1113 665.336C36.7467 665.03 36.4342 664.633 36.1738 664.145C35.9134 663.656 35.7148 663.064 35.5781 662.367C35.4414 661.671 35.373 660.857 35.373 659.926V657.758C35.373 656.592 35.4772 655.616 35.6855 654.828C35.9004 654.04 36.2031 653.409 36.5938 652.934C36.9844 652.452 37.4531 652.107 38 651.898C38.5534 651.69 39.1719 651.586 39.8555 651.586C40.4089 651.586 40.9167 651.654 41.3789 651.791C41.8477 651.921 42.2643 652.133 42.6289 652.426C42.9935 652.712 43.3027 653.096 43.5566 653.578C43.8171 654.053 44.0156 654.636 44.1523 655.326C44.2891 656.016 44.3574 656.827 44.3574 657.758ZM42.541 660.219V657.455C42.541 656.817 42.502 656.257 42.4238 655.775C42.3522 655.287 42.2448 654.87 42.1016 654.525C41.9583 654.18 41.776 653.9 41.5547 653.686C41.3398 653.471 41.0892 653.314 40.8027 653.217C40.5228 653.113 40.207 653.061 39.8555 653.061C39.4258 653.061 39.0449 653.142 38.7129 653.305C38.3809 653.461 38.1009 653.712 37.873 654.057C37.6517 654.402 37.4824 654.854 37.3652 655.414C37.248 655.974 37.1895 656.654 37.1895 657.455V660.219C37.1895 660.857 37.2253 661.42 37.2969 661.908C37.375 662.396 37.4889 662.82 37.6387 663.178C37.7884 663.529 37.9707 663.819 38.1855 664.047C38.4004 664.275 38.6478 664.444 38.9277 664.555C39.2142 664.659 39.5299 664.711 39.875 664.711C40.3177 664.711 40.7051 664.626 41.0371 664.457C41.3691 664.288 41.6458 664.024 41.8672 663.666C42.0951 663.301 42.2643 662.836 42.375 662.27C42.4857 661.697 42.541 661.013 42.541 660.219ZM55.6074 657.758V659.926C55.6074 661.091 55.5033 662.074 55.2949 662.875C55.0866 663.676 54.7871 664.32 54.3965 664.809C54.0059 665.297 53.5339 665.652 52.9805 665.873C52.4336 666.088 51.8151 666.195 51.125 666.195C50.5781 666.195 50.0736 666.127 49.6113 665.99C49.1491 665.854 48.7324 665.635 48.3613 665.336C47.9967 665.03 47.6842 664.633 47.4238 664.145C47.1634 663.656 46.9648 663.064 46.8281 662.367C46.6914 661.671 46.623 660.857 46.623 659.926V657.758C46.623 656.592 46.7272 655.616 46.9355 654.828C47.1504 654.04 47.4531 653.409 47.8438 652.934C48.2344 652.452 48.7031 652.107 49.25 651.898C49.8034 651.69 50.4219 651.586 51.1055 651.586C51.6589 651.586 52.1667 651.654 52.6289 651.791C53.0977 651.921 53.5143 652.133 53.8789 652.426C54.2435 652.712 54.5527 653.096 54.8066 653.578C55.0671 654.053 55.2656 654.636 55.4023 655.326C55.5391 656.016 55.6074 656.827 55.6074 657.758ZM53.791 660.219V657.455C53.791 656.817 53.752 656.257 53.6738 655.775C53.6022 655.287 53.4948 654.87 53.3516 654.525C53.2083 654.18 53.026 653.9 52.8047 653.686C52.5898 653.471 52.3392 653.314 52.0527 653.217C51.7728 653.113 51.457 653.061 51.1055 653.061C50.6758 653.061 50.2949 653.142 49.9629 653.305C49.6309 653.461 49.3509 653.712 49.123 654.057C48.9017 654.402 48.7324 654.854 48.6152 655.414C48.498 655.974 48.4395 656.654 48.4395 657.455V660.219C48.4395 660.857 48.4753 661.42 48.5469 661.908C48.625 662.396 48.7389 662.82 48.8887 663.178C49.0384 663.529 49.2207 663.819 49.4355 664.047C49.6504 664.275 49.8978 664.444 50.1777 664.555C50.4642 664.659 50.7799 664.711 51.125 664.711C51.5677 664.711 51.9551 664.626 52.2871 664.457C52.6191 664.288 52.8958 664.024 53.1172 663.666C53.3451 663.301 53.5143 662.836 53.625 662.27C53.7357 661.697 53.791 661.013 53.791 660.219ZM66.8574 657.758V659.926C66.8574 661.091 66.7533 662.074 66.5449 662.875C66.3366 663.676 66.0371 664.32 65.6465 664.809C65.2559 665.297 64.7839 665.652 64.2305 665.873C63.6836 666.088 63.0651 666.195 62.375 666.195C61.8281 666.195 61.3236 666.127 60.8613 665.99C60.3991 665.854 59.9824 665.635 59.6113 665.336C59.2467 665.03 58.9342 664.633 58.6738 664.145C58.4134 663.656 58.2148 663.064 58.0781 662.367C57.9414 661.671 57.873 660.857 57.873 659.926V657.758C57.873 656.592 57.9772 655.616 58.1855 654.828C58.4004 654.04 58.7031 653.409 59.0938 652.934C59.4844 652.452 59.9531 652.107 60.5 651.898C61.0534 651.69 61.6719 651.586 62.3555 651.586C62.9089 651.586 63.4167 651.654 63.8789 651.791C64.3477 651.921 64.7643 652.133 65.1289 652.426C65.4935 652.712 65.8027 653.096 66.0566 653.578C66.3171 654.053 66.5156 654.636 66.6523 655.326C66.7891 656.016 66.8574 656.827 66.8574 657.758ZM65.041 660.219V657.455C65.041 656.817 65.002 656.257 64.9238 655.775C64.8522 655.287 64.7448 654.87 64.6016 654.525C64.4583 654.18 64.276 653.9 64.0547 653.686C63.8398 653.471 63.5892 653.314 63.3027 653.217C63.0228 653.113 62.707 653.061 62.3555 653.061C61.9258 653.061 61.5449 653.142 61.2129 653.305C60.8809 653.461 60.6009 653.712 60.373 654.057C60.1517 654.402 59.9824 654.854 59.8652 655.414C59.748 655.974 59.6895 656.654 59.6895 657.455V660.219C59.6895 660.857 59.7253 661.42 59.7969 661.908C59.875 662.396 59.9889 662.82 60.1387 663.178C60.2884 663.529 60.4707 663.819 60.6855 664.047C60.9004 664.275 61.1478 664.444 61.4277 664.555C61.7142 664.659 62.0299 664.711 62.375 664.711C62.8177 664.711 63.2051 664.626 63.5371 664.457C63.8691 664.288 64.1458 664.024 64.3672 663.666C64.5951 663.301 64.7643 662.836 64.875 662.27C64.9857 661.697 65.041 661.013 65.041 660.219Z" fill="#333333"/>
<path d="M3.9668 443.232L2.52148 442.861L3.23438 435.781H10.5293V437.451H4.76758L4.33789 441.318C4.59831 441.169 4.92708 441.029 5.32422 440.898C5.72786 440.768 6.1901 440.703 6.71094 440.703C7.36849 440.703 7.95768 440.817 8.47852 441.045C8.99935 441.266 9.44206 441.585 9.80664 442.002C10.1777 442.419 10.4609 442.92 10.6562 443.506C10.8516 444.092 10.9492 444.746 10.9492 445.469C10.9492 446.152 10.8548 446.781 10.666 447.354C10.4837 447.926 10.207 448.428 9.83594 448.857C9.46484 449.281 8.99609 449.609 8.42969 449.844C7.86979 450.078 7.20898 450.195 6.44727 450.195C5.87435 450.195 5.33073 450.117 4.81641 449.961C4.30859 449.798 3.85286 449.554 3.44922 449.229C3.05208 448.896 2.72656 448.486 2.47266 447.998C2.22526 447.503 2.06901 446.924 2.00391 446.26H3.72266C3.80078 446.794 3.95703 447.243 4.19141 447.607C4.42578 447.972 4.73177 448.249 5.10938 448.438C5.49349 448.62 5.93945 448.711 6.44727 448.711C6.87695 448.711 7.25781 448.636 7.58984 448.486C7.92188 448.337 8.20182 448.122 8.42969 447.842C8.65755 447.562 8.83008 447.223 8.94727 446.826C9.07096 446.429 9.13281 445.983 9.13281 445.488C9.13281 445.039 9.07096 444.622 8.94727 444.238C8.82357 443.854 8.63802 443.519 8.39062 443.232C8.14974 442.946 7.85352 442.725 7.50195 442.568C7.15039 442.406 6.74674 442.324 6.29102 442.324C5.68555 442.324 5.22656 442.406 4.91406 442.568C4.60807 442.731 4.29232 442.952 3.9668 443.232ZM21.8574 441.758V443.926C21.8574 445.091 21.7533 446.074 21.5449 446.875C21.3366 447.676 21.0371 448.32 20.6465 448.809C20.2559 449.297 19.7839 449.652 19.2305 449.873C18.6836 450.088 18.0651 450.195 17.375 450.195C16.8281 450.195 16.3236 450.127 15.8613 449.99C15.3991 449.854 14.9824 449.635 14.6113 449.336C14.2467 449.03 13.9342 448.633 13.6738 448.145C13.4134 447.656 13.2148 447.064 13.0781 446.367C12.9414 445.671 12.873 444.857 12.873 443.926V441.758C12.873 440.592 12.9772 439.616 13.1855 438.828C13.4004 438.04 13.7031 437.409 14.0938 436.934C14.4844 436.452 14.9531 436.107 15.5 435.898C16.0534 435.69 16.6719 435.586 17.3555 435.586C17.9089 435.586 18.4167 435.654 18.8789 435.791C19.3477 435.921 19.7643 436.133 20.1289 436.426C20.4935 436.712 20.8027 437.096 21.0566 437.578C21.3171 438.053 21.5156 438.636 21.6523 439.326C21.7891 440.016 21.8574 440.827 21.8574 441.758ZM20.041 444.219V441.455C20.041 440.817 20.002 440.257 19.9238 439.775C19.8522 439.287 19.7448 438.87 19.6016 438.525C19.4583 438.18 19.276 437.9 19.0547 437.686C18.8398 437.471 18.5892 437.314 18.3027 437.217C18.0228 437.113 17.707 437.061 17.3555 437.061C16.9258 437.061 16.5449 437.142 16.2129 437.305C15.8809 437.461 15.6009 437.712 15.373 438.057C15.1517 438.402 14.9824 438.854 14.8652 439.414C14.748 439.974 14.6895 440.654 14.6895 441.455V444.219C14.6895 444.857 14.7253 445.42 14.7969 445.908C14.875 446.396 14.9889 446.82 15.1387 447.178C15.2884 447.529 15.4707 447.819 15.6855 448.047C15.9004 448.275 16.1478 448.444 16.4277 448.555C16.7142 448.659 17.0299 448.711 17.375 448.711C17.8177 448.711 18.2051 448.626 18.5371 448.457C18.8691 448.288 19.1458 448.024 19.3672 447.666C19.5951 447.301 19.7643 446.836 19.875 446.27C19.9857 445.697 20.041 445.013 20.041 444.219ZM33.1074 441.758V443.926C33.1074 445.091 33.0033 446.074 32.7949 446.875C32.5866 447.676 32.2871 448.32 31.8965 448.809C31.5059 449.297 31.0339 449.652 30.4805 449.873C29.9336 450.088 29.3151 450.195 28.625 450.195C28.0781 450.195 27.5736 450.127 27.1113 449.99C26.6491 449.854 26.2324 449.635 25.8613 449.336C25.4967 449.03 25.1842 448.633 24.9238 448.145C24.6634 447.656 24.4648 447.064 24.3281 446.367C24.1914 445.671 24.123 444.857 24.123 443.926V441.758C24.123 440.592 24.2272 439.616 24.4355 438.828C24.6504 438.04 24.9531 437.409 25.3438 436.934C25.7344 436.452 26.2031 436.107 26.75 435.898C27.3034 435.69 27.9219 435.586 28.6055 435.586C29.1589 435.586 29.6667 435.654 30.1289 435.791C30.5977 435.921 31.0143 436.133 31.3789 436.426C31.7435 436.712 32.0527 437.096 32.3066 437.578C32.5671 438.053 32.7656 438.636 32.9023 439.326C33.0391 440.016 33.1074 440.827 33.1074 441.758ZM31.291 444.219V441.455C31.291 440.817 31.252 440.257 31.1738 439.775C31.1022 439.287 30.9948 438.87 30.8516 438.525C30.7083 438.18 30.526 437.9 30.3047 437.686C30.0898 437.471 29.8392 437.314 29.5527 437.217C29.2728 437.113 28.957 437.061 28.6055 437.061C28.1758 437.061 27.7949 437.142 27.4629 437.305C27.1309 437.461 26.8509 437.712 26.623 438.057C26.4017 438.402 26.2324 438.854 26.1152 439.414C25.998 439.974 25.9395 440.654 25.9395 441.455V444.219C25.9395 444.857 25.9753 445.42 26.0469 445.908C26.125 446.396 26.2389 446.82 26.3887 447.178C26.5384 447.529 26.7207 447.819 26.9355 448.047C27.1504 448.275 27.3978 448.444 27.6777 448.555C27.9642 448.659 28.2799 448.711 28.625 448.711C29.0677 448.711 29.4551 448.626 29.7871 448.457C30.1191 448.288 30.3958 448.024 30.6172 447.666C30.8451 447.301 31.0143 446.836 31.125 446.27C31.2357 445.697 31.291 445.013 31.291 444.219ZM44.3574 441.758V443.926C44.3574 445.091 44.2533 446.074 44.0449 446.875C43.8366 447.676 43.5371 448.32 43.1465 448.809C42.7559 449.297 42.2839 449.652 41.7305 449.873C41.1836 450.088 40.5651 450.195 39.875 450.195C39.3281 450.195 38.8236 450.127 38.3613 449.99C37.8991 449.854 37.4824 449.635 37.1113 449.336C36.7467 449.03 36.4342 448.633 36.1738 448.145C35.9134 447.656 35.7148 447.064 35.5781 446.367C35.4414 445.671 35.373 444.857 35.373 443.926V441.758C35.373 440.592 35.4772 439.616 35.6855 438.828C35.9004 438.04 36.2031 437.409 36.5938 436.934C36.9844 436.452 37.4531 436.107 38 435.898C38.5534 435.69 39.1719 435.586 39.8555 435.586C40.4089 435.586 40.9167 435.654 41.3789 435.791C41.8477 435.921 42.2643 436.133 42.6289 436.426C42.9935 436.712 43.3027 437.096 43.5566 437.578C43.8171 438.053 44.0156 438.636 44.1523 439.326C44.2891 440.016 44.3574 440.827 44.3574 441.758ZM42.541 444.219V441.455C42.541 440.817 42.502 440.257 42.4238 439.775C42.3522 439.287 42.2448 438.87 42.1016 438.525C41.9583 438.18 41.776 437.9 41.5547 437.686C41.3398 437.471 41.0892 437.314 40.8027 437.217C40.5228 437.113 40.207 437.061 39.8555 437.061C39.4258 437.061 39.0449 437.142 38.7129 437.305C38.3809 437.461 38.1009 437.712 37.873 438.057C37.6517 438.402 37.4824 438.854 37.3652 439.414C37.248 439.974 37.1895 440.654 37.1895 441.455V444.219C37.1895 444.857 37.2253 445.42 37.2969 445.908C37.375 446.396 37.4889 446.82 37.6387 447.178C37.7884 447.529 37.9707 447.819 38.1855 448.047C38.4004 448.275 38.6478 448.444 38.9277 448.555C39.2142 448.659 39.5299 448.711 39.875 448.711C40.3177 448.711 40.7051 448.626 41.0371 448.457C41.3691 448.288 41.6458 448.024 41.8672 447.666C42.0951 447.301 42.2643 446.836 42.375 446.27C42.4857 445.697 42.541 445.013 42.541 444.219ZM55.6074 441.758V443.926C55.6074 445.091 55.5033 446.074 55.2949 446.875C55.0866 447.676 54.7871 448.32 54.3965 448.809C54.0059 449.297 53.5339 449.652 52.9805 449.873C52.4336 450.088 51.8151 450.195 51.125 450.195C50.5781 450.195 50.0736 450.127 49.6113 449.99C49.1491 449.854 48.7324 449.635 48.3613 449.336C47.9967 449.03 47.6842 448.633 47.4238 448.145C47.1634 447.656 46.9648 447.064 46.8281 446.367C46.6914 445.671 46.623 444.857 46.623 443.926V441.758C46.623 440.592 46.7272 439.616 46.9355 438.828C47.1504 438.04 47.4531 437.409 47.8438 436.934C48.2344 436.452 48.7031 436.107 49.25 435.898C49.8034 435.69 50.4219 435.586 51.1055 435.586C51.6589 435.586 52.1667 435.654 52.6289 435.791C53.0977 435.921 53.5143 436.133 53.8789 436.426C54.2435 436.712 54.5527 437.096 54.8066 437.578C55.0671 438.053 55.2656 438.636 55.4023 439.326C55.5391 440.016 55.6074 440.827 55.6074 441.758ZM53.791 444.219V441.455C53.791 440.817 53.752 440.257 53.6738 439.775C53.6022 439.287 53.4948 438.87 53.3516 438.525C53.2083 438.18 53.026 437.9 52.8047 437.686C52.5898 437.471 52.3392 437.314 52.0527 437.217C51.7728 437.113 51.457 437.061 51.1055 437.061C50.6758 437.061 50.2949 437.142 49.9629 437.305C49.6309 437.461 49.3509 437.712 49.123 438.057C48.9017 438.402 48.7324 438.854 48.6152 439.414C48.498 439.974 48.4395 440.654 48.4395 441.455V444.219C48.4395 444.857 48.4753 445.42 48.5469 445.908C48.625 446.396 48.7389 446.82 48.8887 447.178C49.0384 447.529 49.2207 447.819 49.4355 448.047C49.6504 448.275 49.8978 448.444 50.1777 448.555C50.4642 448.659 50.7799 448.711 51.125 448.711C51.5677 448.711 51.9551 448.626 52.2871 448.457C52.6191 448.288 52.8958 448.024 53.1172 447.666C53.3451 447.301 53.5143 446.836 53.625 446.27C53.7357 445.697 53.791 445.013 53.791 444.219ZM66.8574 441.758V443.926C66.8574 445.091 66.7533 446.074 66.5449 446.875C66.3366 447.676 66.0371 448.32 65.6465 448.809C65.2559 449.297 64.7839 449.652 64.2305 449.873C63.6836 450.088 63.0651 450.195 62.375 450.195C61.8281 450.195 61.3236 450.127 60.8613 449.99C60.3991 449.854 59.9824 449.635 59.6113 449.336C59.2467 449.03 58.9342 448.633 58.6738 448.145C58.4134 447.656 58.2148 447.064 58.0781 446.367C57.9414 445.671 57.873 444.857 57.873 443.926V441.758C57.873 440.592 57.9772 439.616 58.1855 438.828C58.4004 438.04 58.7031 437.409 59.0938 436.934C59.4844 436.452 59.9531 436.107 60.5 435.898C61.0534 435.69 61.6719 435.586 62.3555 435.586C62.9089 435.586 63.4167 435.654 63.8789 435.791C64.3477 435.921 64.7643 436.133 65.1289 436.426C65.4935 436.712 65.8027 437.096 66.0566 437.578C66.3171 438.053 66.5156 438.636 66.6523 439.326C66.7891 440.016 66.8574 440.827 66.8574 441.758ZM65.041 444.219V441.455C65.041 440.817 65.002 440.257 64.9238 439.775C64.8522 439.287 64.7448 438.87 64.6016 438.525C64.4583 438.18 64.276 437.9 64.0547 437.686C63.8398 437.471 63.5892 437.314 63.3027 437.217C63.0228 437.113 62.707 437.061 62.3555 437.061C61.9258 437.061 61.5449 437.142 61.2129 437.305C60.8809 437.461 60.6009 437.712 60.373 438.057C60.1517 438.402 59.9824 438.854 59.8652 439.414C59.748 439.974 59.6895 440.654 59.6895 441.455V444.219C59.6895 444.857 59.7253 445.42 59.7969 445.908C59.875 446.396 59.9889 446.82 60.1387 447.178C60.2884 447.529 60.4707 447.819 60.6855 448.047C60.9004 448.275 61.1478 448.444 61.4277 448.555C61.7142 448.659 62.0299 448.711 62.375 448.711C62.8177 448.711 63.2051 448.626 63.5371 448.457C63.8691 448.288 64.1458 448.024 64.3672 447.666C64.5951 447.301 64.7643 446.836 64.875 446.27C64.9857 445.697 65.041 445.013 65.041 444.219Z" fill="#333333"/>
<path d="M8.61523 219.762H8.77148V221.295H8.61523C7.6582 221.295 6.85742 221.451 6.21289 221.764C5.56836 222.07 5.05729 222.483 4.67969 223.004C4.30208 223.518 4.02865 224.098 3.85938 224.742C3.69661 225.387 3.61523 226.041 3.61523 226.705V228.795C3.61523 229.426 3.6901 229.986 3.83984 230.475C3.98958 230.956 4.19466 231.363 4.45508 231.695C4.71549 232.027 5.00846 232.278 5.33398 232.447C5.66602 232.617 6.01107 232.701 6.36914 232.701C6.78581 232.701 7.1569 232.623 7.48242 232.467C7.80794 232.304 8.08138 232.079 8.30273 231.793C8.5306 231.5 8.70312 231.155 8.82031 230.758C8.9375 230.361 8.99609 229.924 8.99609 229.449C8.99609 229.026 8.94401 228.619 8.83984 228.229C8.73568 227.831 8.57617 227.48 8.36133 227.174C8.14648 226.861 7.8763 226.617 7.55078 226.441C7.23177 226.259 6.85091 226.168 6.4082 226.168C5.9069 226.168 5.43815 226.292 5.00195 226.539C4.57227 226.78 4.21745 227.099 3.9375 227.496C3.66406 227.887 3.50781 228.313 3.46875 228.775L2.51172 228.766C2.60286 228.036 2.77214 227.415 3.01953 226.9C3.27344 226.38 3.58594 225.956 3.95703 225.631C4.33464 225.299 4.75456 225.058 5.2168 224.908C5.68555 224.752 6.18034 224.674 6.70117 224.674C7.41081 224.674 8.02279 224.807 8.53711 225.074C9.05143 225.341 9.47461 225.699 9.80664 226.148C10.1387 226.591 10.3828 227.092 10.5391 227.652C10.7018 228.206 10.7832 228.775 10.7832 229.361C10.7832 230.032 10.6888 230.66 10.5 231.246C10.3112 231.832 10.028 232.346 9.65039 232.789C9.2793 233.232 8.82031 233.577 8.27344 233.824C7.72656 234.072 7.0918 234.195 6.36914 234.195C5.60091 234.195 4.93034 234.039 4.35742 233.727C3.78451 233.408 3.30924 232.984 2.93164 232.457C2.55404 231.93 2.27083 231.344 2.08203 230.699C1.89323 230.055 1.79883 229.4 1.79883 228.736V227.887C1.79883 226.884 1.89974 225.901 2.10156 224.938C2.30339 223.974 2.65169 223.102 3.14648 222.32C3.64779 221.539 4.34115 220.917 5.22656 220.455C6.11198 219.993 7.24154 219.762 8.61523 219.762ZM15.2168 227.232L13.7715 226.861L14.4844 219.781H21.7793V221.451H16.0176L15.5879 225.318C15.8483 225.169 16.1771 225.029 16.5742 224.898C16.9779 224.768 17.4401 224.703 17.9609 224.703C18.6185 224.703 19.2077 224.817 19.7285 225.045C20.2493 225.266 20.6921 225.585 21.0566 226.002C21.4277 226.419 21.7109 226.92 21.9062 227.506C22.1016 228.092 22.1992 228.746 22.1992 229.469C22.1992 230.152 22.1048 230.781 21.916 231.354C21.7337 231.926 21.457 232.428 21.0859 232.857C20.7148 233.281 20.2461 233.609 19.6797 233.844C19.1198 234.078 18.459 234.195 17.6973 234.195C17.1243 234.195 16.5807 234.117 16.0664 233.961C15.5586 233.798 15.1029 233.554 14.6992 233.229C14.3021 232.896 13.9766 232.486 13.7227 231.998C13.4753 231.503 13.319 230.924 13.2539 230.26H14.9727C15.0508 230.794 15.207 231.243 15.4414 231.607C15.6758 231.972 15.9818 232.249 16.3594 232.438C16.7435 232.62 17.1895 232.711 17.6973 232.711C18.127 232.711 18.5078 232.636 18.8398 232.486C19.1719 232.337 19.4518 232.122 19.6797 231.842C19.9076 231.562 20.0801 231.223 20.1973 230.826C20.321 230.429 20.3828 229.983 20.3828 229.488C20.3828 229.039 20.321 228.622 20.1973 228.238C20.0736 227.854 19.888 227.519 19.6406 227.232C19.3997 226.946 19.1035 226.725 18.752 226.568C18.4004 226.406 17.9967 226.324 17.541 226.324C16.9355 226.324 16.4766 226.406 16.1641 226.568C15.8581 226.731 15.5423 226.952 15.2168 227.232ZM33.1074 225.758V227.926C33.1074 229.091 33.0033 230.074 32.7949 230.875C32.5866 231.676 32.2871 232.32 31.8965 232.809C31.5059 233.297 31.0339 233.652 30.4805 233.873C29.9336 234.088 29.3151 234.195 28.625 234.195C28.0781 234.195 27.5736 234.127 27.1113 233.99C26.6491 233.854 26.2324 233.635 25.8613 233.336C25.4967 233.03 25.1842 232.633 24.9238 232.145C24.6634 231.656 24.4648 231.064 24.3281 230.367C24.1914 229.671 24.123 228.857 24.123 227.926V225.758C24.123 224.592 24.2272 223.616 24.4355 222.828C24.6504 222.04 24.9531 221.409 25.3438 220.934C25.7344 220.452 26.2031 220.107 26.75 219.898C27.3034 219.69 27.9219 219.586 28.6055 219.586C29.1589 219.586 29.6667 219.654 30.1289 219.791C30.5977 219.921 31.0143 220.133 31.3789 220.426C31.7435 220.712 32.0527 221.096 32.3066 221.578C32.5671 222.053 32.7656 222.636 32.9023 223.326C33.0391 224.016 33.1074 224.827 33.1074 225.758ZM31.291 228.219V225.455C31.291 224.817 31.252 224.257 31.1738 223.775C31.1022 223.287 30.9948 222.87 30.8516 222.525C30.7083 222.18 30.526 221.9 30.3047 221.686C30.0898 221.471 29.8392 221.314 29.5527 221.217C29.2728 221.113 28.957 221.061 28.6055 221.061C28.1758 221.061 27.7949 221.142 27.4629 221.305C27.1309 221.461 26.8509 221.712 26.623 222.057C26.4017 222.402 26.2324 222.854 26.1152 223.414C25.998 223.974 25.9395 224.654 25.9395 225.455V228.219C25.9395 228.857 25.9753 229.42 26.0469 229.908C26.125 230.396 26.2389 230.82 26.3887 231.178C26.5384 231.529 26.7207 231.819 26.9355 232.047C27.1504 232.275 27.3978 232.444 27.6777 232.555C27.9642 232.659 28.2799 232.711 28.625 232.711C29.0677 232.711 29.4551 232.626 29.7871 232.457C30.1191 232.288 30.3958 232.024 30.6172 231.666C30.8451 231.301 31.0143 230.836 31.125 230.27C31.2357 229.697 31.291 229.013 31.291 228.219ZM44.3574 225.758V227.926C44.3574 229.091 44.2533 230.074 44.0449 230.875C43.8366 231.676 43.5371 232.32 43.1465 232.809C42.7559 233.297 42.2839 233.652 41.7305 233.873C41.1836 234.088 40.5651 234.195 39.875 234.195C39.3281 234.195 38.8236 234.127 38.3613 233.99C37.8991 233.854 37.4824 233.635 37.1113 233.336C36.7467 233.03 36.4342 232.633 36.1738 232.145C35.9134 231.656 35.7148 231.064 35.5781 230.367C35.4414 229.671 35.373 228.857 35.373 227.926V225.758C35.373 224.592 35.4772 223.616 35.6855 222.828C35.9004 222.04 36.2031 221.409 36.5938 220.934C36.9844 220.452 37.4531 220.107 38 219.898C38.5534 219.69 39.1719 219.586 39.8555 219.586C40.4089 219.586 40.9167 219.654 41.3789 219.791C41.8477 219.921 42.2643 220.133 42.6289 220.426C42.9935 220.712 43.3027 221.096 43.5566 221.578C43.8171 222.053 44.0156 222.636 44.1523 223.326C44.2891 224.016 44.3574 224.827 44.3574 225.758ZM42.541 228.219V225.455C42.541 224.817 42.502 224.257 42.4238 223.775C42.3522 223.287 42.2448 222.87 42.1016 222.525C41.9583 222.18 41.776 221.9 41.5547 221.686C41.3398 221.471 41.0892 221.314 40.8027 221.217C40.5228 221.113 40.207 221.061 39.8555 221.061C39.4258 221.061 39.0449 221.142 38.7129 221.305C38.3809 221.461 38.1009 221.712 37.873 222.057C37.6517 222.402 37.4824 222.854 37.3652 223.414C37.248 223.974 37.1895 224.654 37.1895 225.455V228.219C37.1895 228.857 37.2253 229.42 37.2969 229.908C37.375 230.396 37.4889 230.82 37.6387 231.178C37.7884 231.529 37.9707 231.819 38.1855 232.047C38.4004 232.275 38.6478 232.444 38.9277 232.555C39.2142 232.659 39.5299 232.711 39.875 232.711C40.3177 232.711 40.7051 232.626 41.0371 232.457C41.3691 232.288 41.6458 232.024 41.8672 231.666C42.0951 231.301 42.2643 230.836 42.375 230.27C42.4857 229.697 42.541 229.013 42.541 228.219ZM55.6074 225.758V227.926C55.6074 229.091 55.5033 230.074 55.2949 230.875C55.0866 231.676 54.7871 232.32 54.3965 232.809C54.0059 233.297 53.5339 233.652 52.9805 233.873C52.4336 234.088 51.8151 234.195 51.125 234.195C50.5781 234.195 50.0736 234.127 49.6113 233.99C49.1491 233.854 48.7324 233.635 48.3613 233.336C47.9967 233.03 47.6842 232.633 47.4238 232.145C47.1634 231.656 46.9648 231.064 46.8281 230.367C46.6914 229.671 46.623 228.857 46.623 227.926V225.758C46.623 224.592 46.7272 223.616 46.9355 222.828C47.1504 222.04 47.4531 221.409 47.8438 220.934C48.2344 220.452 48.7031 220.107 49.25 219.898C49.8034 219.69 50.4219 219.586 51.1055 219.586C51.6589 219.586 52.1667 219.654 52.6289 219.791C53.0977 219.921 53.5143 220.133 53.8789 220.426C54.2435 220.712 54.5527 221.096 54.8066 221.578C55.0671 222.053 55.2656 222.636 55.4023 223.326C55.5391 224.016 55.6074 224.827 55.6074 225.758ZM53.791 228.219V225.455C53.791 224.817 53.752 224.257 53.6738 223.775C53.6022 223.287 53.4948 222.87 53.3516 222.525C53.2083 222.18 53.026 221.9 52.8047 221.686C52.5898 221.471 52.3392 221.314 52.0527 221.217C51.7728 221.113 51.457 221.061 51.1055 221.061C50.6758 221.061 50.2949 221.142 49.9629 221.305C49.6309 221.461 49.3509 221.712 49.123 222.057C48.9017 222.402 48.7324 222.854 48.6152 223.414C48.498 223.974 48.4395 224.654 48.4395 225.455V228.219C48.4395 228.857 48.4753 229.42 48.5469 229.908C48.625 230.396 48.7389 230.82 48.8887 231.178C49.0384 231.529 49.2207 231.819 49.4355 232.047C49.6504 232.275 49.8978 232.444 50.1777 232.555C50.4642 232.659 50.7799 232.711 51.125 232.711C51.5677 232.711 51.9551 232.626 52.2871 232.457C52.6191 232.288 52.8958 232.024 53.1172 231.666C53.3451 231.301 53.5143 230.836 53.625 230.27C53.7357 229.697 53.791 229.013 53.791 228.219ZM66.8574 225.758V227.926C66.8574 229.091 66.7533 230.074 66.5449 230.875C66.3366 231.676 66.0371 232.32 65.6465 232.809C65.2559 233.297 64.7839 233.652 64.2305 233.873C63.6836 234.088 63.0651 234.195 62.375 234.195C61.8281 234.195 61.3236 234.127 60.8613 233.99C60.3991 233.854 59.9824 233.635 59.6113 233.336C59.2467 233.03 58.9342 232.633 58.6738 232.145C58.4134 231.656 58.2148 231.064 58.0781 230.367C57.9414 229.671 57.873 228.857 57.873 227.926V225.758C57.873 224.592 57.9772 223.616 58.1855 222.828C58.4004 222.04 58.7031 221.409 59.0938 220.934C59.4844 220.452 59.9531 220.107 60.5 219.898C61.0534 219.69 61.6719 219.586 62.3555 219.586C62.9089 219.586 63.4167 219.654 63.8789 219.791C64.3477 219.921 64.7643 220.133 65.1289 220.426C65.4935 220.712 65.8027 221.096 66.0566 221.578C66.3171 222.053 66.5156 222.636 66.6523 223.326C66.7891 224.016 66.8574 224.827 66.8574 225.758ZM65.041 228.219V225.455C65.041 224.817 65.002 224.257 64.9238 223.775C64.8522 223.287 64.7448 222.87 64.6016 222.525C64.4583 222.18 64.276 221.9 64.0547 221.686C63.8398 221.471 63.5892 221.314 63.3027 221.217C63.0228 221.113 62.707 221.061 62.3555 221.061C61.9258 221.061 61.5449 221.142 61.2129 221.305C60.8809 221.461 60.6009 221.712 60.373 222.057C60.1517 222.402 59.9824 222.854 59.8652 223.414C59.748 223.974 59.6895 224.654 59.6895 225.455V228.219C59.6895 228.857 59.7253 229.42 59.7969 229.908C59.875 230.396 59.9889 230.82 60.1387 231.178C60.2884 231.529 60.4707 231.819 60.6855 232.047C60.9004 232.275 61.1478 232.444 61.4277 232.555C61.7142 232.659 62.0299 232.711 62.375 232.711C62.8177 232.711 63.2051 232.626 63.5371 232.457C63.8691 232.288 64.1458 232.024 64.3672 231.666C64.5951 231.301 64.7643 230.836 64.875 230.27C64.9857 229.697 65.041 229.013 65.041 228.219Z" fill="#333333"/>
<path d="M10.6465 14.1523C10.6465 15.0182 10.4447 15.7539 10.041 16.3594C9.64388 16.9583 9.10352 17.4141 8.41992 17.7266C7.74284 18.0391 6.97786 18.1953 6.125 18.1953C5.27214 18.1953 4.50391 18.0391 3.82031 17.7266C3.13672 17.4141 2.59635 16.9583 2.19922 16.3594C1.80208 15.7539 1.60352 15.0182 1.60352 14.1523C1.60352 13.5859 1.71094 13.0684 1.92578 12.5996C2.14714 12.1243 2.45638 11.7109 2.85352 11.3594C3.25716 11.0078 3.73242 10.7376 4.2793 10.5488C4.83268 10.3535 5.44141 10.2559 6.10547 10.2559C6.97786 10.2559 7.75586 10.4251 8.43945 10.7637C9.12305 11.0957 9.66016 11.5547 10.0508 12.1406C10.4479 12.7266 10.6465 13.3971 10.6465 14.1523ZM8.83008 14.1133C8.83008 13.5859 8.71615 13.1204 8.48828 12.7168C8.26042 12.3066 7.94141 11.9876 7.53125 11.7598C7.12109 11.5319 6.64583 11.418 6.10547 11.418C5.55208 11.418 5.07357 11.5319 4.66992 11.7598C4.27279 11.9876 3.96354 12.3066 3.74219 12.7168C3.52083 13.1204 3.41016 13.5859 3.41016 14.1133C3.41016 14.6602 3.51758 15.1289 3.73242 15.5195C3.95378 15.9036 4.26628 16.1999 4.66992 16.4082C5.08008 16.61 5.5651 16.7109 6.125 16.7109C6.6849 16.7109 7.16667 16.61 7.57031 16.4082C7.97396 16.1999 8.2832 15.9036 8.49805 15.5195C8.7194 15.1289 8.83008 14.6602 8.83008 14.1133ZM10.3145 7.48242C10.3145 8.17253 10.1322 8.79427 9.76758 9.34766C9.40299 9.90104 8.90495 10.3372 8.27344 10.6562C7.64193 10.9753 6.92578 11.1348 6.125 11.1348C5.3112 11.1348 4.58529 10.9753 3.94727 10.6562C3.31576 10.3372 2.82096 9.90104 2.46289 9.34766C2.10482 8.79427 1.92578 8.17253 1.92578 7.48242C1.92578 6.6556 2.10482 5.95247 2.46289 5.37305C2.82747 4.79362 3.32552 4.35091 3.95703 4.04492C4.58854 3.73893 5.30794 3.58594 6.11523 3.58594C6.92904 3.58594 7.65169 3.73893 8.2832 4.04492C8.91471 4.35091 9.40951 4.79362 9.76758 5.37305C10.1322 5.95247 10.3145 6.6556 10.3145 7.48242ZM8.50781 7.51172C8.50781 7.03646 8.4069 6.61654 8.20508 6.25195C8.00326 5.88737 7.72331 5.60091 7.36523 5.39258C7.00716 5.17773 6.59049 5.07031 6.11523 5.07031C5.63997 5.07031 5.22331 5.17122 4.86523 5.37305C4.51367 5.56836 4.23698 5.84831 4.03516 6.21289C3.83984 6.57747 3.74219 7.01042 3.74219 7.51172C3.74219 8 3.83984 8.42643 4.03516 8.79102C4.23698 9.1556 4.51693 9.4388 4.875 9.64062C5.23307 9.84245 5.64974 9.94336 6.125 9.94336C6.60026 9.94336 7.01367 9.84245 7.36523 9.64062C7.72331 9.4388 8.00326 9.1556 8.20508 8.79102C8.4069 8.42643 8.50781 8 8.50781 7.51172ZM21.8574 9.75781V11.9258C21.8574 13.0911 21.7533 14.0742 21.5449 14.875C21.3366 15.6758 21.0371 16.3203 20.6465 16.8086C20.2559 17.2969 19.7839 17.6517 19.2305 17.873C18.6836 18.0879 18.0651 18.1953 17.375 18.1953C16.8281 18.1953 16.3236 18.127 15.8613 17.9902C15.3991 17.8535 14.9824 17.6354 14.6113 17.3359C14.2467 17.0299 13.9342 16.6328 13.6738 16.1445C13.4134 15.6562 13.2148 15.0638 13.0781 14.3672C12.9414 13.6706 12.873 12.8568 12.873 11.9258V9.75781C12.873 8.59245 12.9772 7.61589 13.1855 6.82812C13.4004 6.04036 13.7031 5.40885 14.0938 4.93359C14.4844 4.45182 14.9531 4.10677 15.5 3.89844C16.0534 3.6901 16.6719 3.58594 17.3555 3.58594C17.9089 3.58594 18.4167 3.6543 18.8789 3.79102C19.3477 3.92122 19.7643 4.13281 20.1289 4.42578C20.4935 4.71224 20.8027 5.09635 21.0566 5.57812C21.3171 6.05339 21.5156 6.63607 21.6523 7.32617C21.7891 8.01628 21.8574 8.82682 21.8574 9.75781ZM20.041 12.2188V9.45508C20.041 8.81706 20.002 8.25716 19.9238 7.77539C19.8522 7.28711 19.7448 6.87044 19.6016 6.52539C19.4583 6.18034 19.276 5.90039 19.0547 5.68555C18.8398 5.4707 18.5892 5.31445 18.3027 5.2168C18.0228 5.11263 17.707 5.06055 17.3555 5.06055C16.9258 5.06055 16.5449 5.14193 16.2129 5.30469C15.8809 5.46094 15.6009 5.71159 15.373 6.05664C15.1517 6.40169 14.9824 6.85417 14.8652 7.41406C14.748 7.97396 14.6895 8.6543 14.6895 9.45508V12.2188C14.6895 12.8568 14.7253 13.4199 14.7969 13.9082C14.875 14.3965 14.9889 14.8197 15.1387 15.1777C15.2884 15.5293 15.4707 15.819 15.6855 16.0469C15.9004 16.2747 16.1478 16.444 16.4277 16.5547C16.7142 16.6589 17.0299 16.7109 17.375 16.7109C17.8177 16.7109 18.2051 16.6263 18.5371 16.457C18.8691 16.2878 19.1458 16.0241 19.3672 15.666C19.5951 15.3014 19.7643 14.8359 19.875 14.2695C19.9857 13.6966 20.041 13.013 20.041 12.2188ZM33.1074 9.75781V11.9258C33.1074 13.0911 33.0033 14.0742 32.7949 14.875C32.5866 15.6758 32.2871 16.3203 31.8965 16.8086C31.5059 17.2969 31.0339 17.6517 30.4805 17.873C29.9336 18.0879 29.3151 18.1953 28.625 18.1953C28.0781 18.1953 27.5736 18.127 27.1113 17.9902C26.6491 17.8535 26.2324 17.6354 25.8613 17.3359C25.4967 17.0299 25.1842 16.6328 24.9238 16.1445C24.6634 15.6562 24.4648 15.0638 24.3281 14.3672C24.1914 13.6706 24.123 12.8568 24.123 11.9258V9.75781C24.123 8.59245 24.2272 7.61589 24.4355 6.82812C24.6504 6.04036 24.9531 5.40885 25.3438 4.93359C25.7344 4.45182 26.2031 4.10677 26.75 3.89844C27.3034 3.6901 27.9219 3.58594 28.6055 3.58594C29.1589 3.58594 29.6667 3.6543 30.1289 3.79102C30.5977 3.92122 31.0143 4.13281 31.3789 4.42578C31.7435 4.71224 32.0527 5.09635 32.3066 5.57812C32.5671 6.05339 32.7656 6.63607 32.9023 7.32617C33.0391 8.01628 33.1074 8.82682 33.1074 9.75781ZM31.291 12.2188V9.45508C31.291 8.81706 31.252 8.25716 31.1738 7.77539C31.1022 7.28711 30.9948 6.87044 30.8516 6.52539C30.7083 6.18034 30.526 5.90039 30.3047 5.68555C30.0898 5.4707 29.8392 5.31445 29.5527 5.2168C29.2728 5.11263 28.957 5.06055 28.6055 5.06055C28.1758 5.06055 27.7949 5.14193 27.4629 5.30469C27.1309 5.46094 26.8509 5.71159 26.623 6.05664C26.4017 6.40169 26.2324 6.85417 26.1152 7.41406C25.998 7.97396 25.9395 8.6543 25.9395 9.45508V12.2188C25.9395 12.8568 25.9753 13.4199 26.0469 13.9082C26.125 14.3965 26.2389 14.8197 26.3887 15.1777C26.5384 15.5293 26.7207 15.819 26.9355 16.0469C27.1504 16.2747 27.3978 16.444 27.6777 16.5547C27.9642 16.6589 28.2799 16.7109 28.625 16.7109C29.0677 16.7109 29.4551 16.6263 29.7871 16.457C30.1191 16.2878 30.3958 16.0241 30.6172 15.666C30.8451 15.3014 31.0143 14.8359 31.125 14.2695C31.2357 13.6966 31.291 13.013 31.291 12.2188ZM44.3574 9.75781V11.9258C44.3574 13.0911 44.2533 14.0742 44.0449 14.875C43.8366 15.6758 43.5371 16.3203 43.1465 16.8086C42.7559 17.2969 42.2839 17.6517 41.7305 17.873C41.1836 18.0879 40.5651 18.1953 39.875 18.1953C39.3281 18.1953 38.8236 18.127 38.3613 17.9902C37.8991 17.8535 37.4824 17.6354 37.1113 17.3359C36.7467 17.0299 36.4342 16.6328 36.1738 16.1445C35.9134 15.6562 35.7148 15.0638 35.5781 14.3672C35.4414 13.6706 35.373 12.8568 35.373 11.9258V9.75781C35.373 8.59245 35.4772 7.61589 35.6855 6.82812C35.9004 6.04036 36.2031 5.40885 36.5938 4.93359C36.9844 4.45182 37.4531 4.10677 38 3.89844C38.5534 3.6901 39.1719 3.58594 39.8555 3.58594C40.4089 3.58594 40.9167 3.6543 41.3789 3.79102C41.8477 3.92122 42.2643 4.13281 42.6289 4.42578C42.9935 4.71224 43.3027 5.09635 43.5566 5.57812C43.8171 6.05339 44.0156 6.63607 44.1523 7.32617C44.2891 8.01628 44.3574 8.82682 44.3574 9.75781ZM42.541 12.2188V9.45508C42.541 8.81706 42.502 8.25716 42.4238 7.77539C42.3522 7.28711 42.2448 6.87044 42.1016 6.52539C41.9583 6.18034 41.776 5.90039 41.5547 5.68555C41.3398 5.4707 41.0892 5.31445 40.8027 5.2168C40.5228 5.11263 40.207 5.06055 39.8555 5.06055C39.4258 5.06055 39.0449 5.14193 38.7129 5.30469C38.3809 5.46094 38.1009 5.71159 37.873 6.05664C37.6517 6.40169 37.4824 6.85417 37.3652 7.41406C37.248 7.97396 37.1895 8.6543 37.1895 9.45508V12.2188C37.1895 12.8568 37.2253 13.4199 37.2969 13.9082C37.375 14.3965 37.4889 14.8197 37.6387 15.1777C37.7884 15.5293 37.9707 15.819 38.1855 16.0469C38.4004 16.2747 38.6478 16.444 38.9277 16.5547C39.2142 16.6589 39.5299 16.7109 39.875 16.7109C40.3177 16.7109 40.7051 16.6263 41.0371 16.457C41.3691 16.2878 41.6458 16.0241 41.8672 15.666C42.0951 15.3014 42.2643 14.8359 42.375 14.2695C42.4857 13.6966 42.541 13.013 42.541 12.2188ZM55.6074 9.75781V11.9258C55.6074 13.0911 55.5033 14.0742 55.2949 14.875C55.0866 15.6758 54.7871 16.3203 54.3965 16.8086C54.0059 17.2969 53.5339 17.6517 52.9805 17.873C52.4336 18.0879 51.8151 18.1953 51.125 18.1953C50.5781 18.1953 50.0736 18.127 49.6113 17.9902C49.1491 17.8535 48.7324 17.6354 48.3613 17.3359C47.9967 17.0299 47.6842 16.6328 47.4238 16.1445C47.1634 15.6562 46.9648 15.0638 46.8281 14.3672C46.6914 13.6706 46.623 12.8568 46.623 11.9258V9.75781C46.623 8.59245 46.7272 7.61589 46.9355 6.82812C47.1504 6.04036 47.4531 5.40885 47.8438 4.93359C48.2344 4.45182 48.7031 4.10677 49.25 3.89844C49.8034 3.6901 50.4219 3.58594 51.1055 3.58594C51.6589 3.58594 52.1667 3.6543 52.6289 3.79102C53.0977 3.92122 53.5143 4.13281 53.8789 4.42578C54.2435 4.71224 54.5527 5.09635 54.8066 5.57812C55.0671 6.05339 55.2656 6.63607 55.4023 7.32617C55.5391 8.01628 55.6074 8.82682 55.6074 9.75781ZM53.791 12.2188V9.45508C53.791 8.81706 53.752 8.25716 53.6738 7.77539C53.6022 7.28711 53.4948 6.87044 53.3516 6.52539C53.2083 6.18034 53.026 5.90039 52.8047 5.68555C52.5898 5.4707 52.3392 5.31445 52.0527 5.2168C51.7728 5.11263 51.457 5.06055 51.1055 5.06055C50.6758 5.06055 50.2949 5.14193 49.9629 5.30469C49.6309 5.46094 49.3509 5.71159 49.123 6.05664C48.9017 6.40169 48.7324 6.85417 48.6152 7.41406C48.498 7.97396 48.4395 8.6543 48.4395 9.45508V12.2188C48.4395 12.8568 48.4753 13.4199 48.5469 13.9082C48.625 14.3965 48.7389 14.8197 48.8887 15.1777C49.0384 15.5293 49.2207 15.819 49.4355 16.0469C49.6504 16.2747 49.8978 16.444 50.1777 16.5547C50.4642 16.6589 50.7799 16.7109 51.125 16.7109C51.5677 16.7109 51.9551 16.6263 52.2871 16.457C52.6191 16.2878 52.8958 16.0241 53.1172 15.666C53.3451 15.3014 53.5143 14.8359 53.625 14.2695C53.7357 13.6966 53.791 13.013 53.791 12.2188ZM66.8574 9.75781V11.9258C66.8574 13.0911 66.7533 14.0742 66.5449 14.875C66.3366 15.6758 66.0371 16.3203 65.6465 16.8086C65.2559 17.2969 64.7839 17.6517 64.2305 17.873C63.6836 18.0879 63.0651 18.1953 62.375 18.1953C61.8281 18.1953 61.3236 18.127 60.8613 17.9902C60.3991 17.8535 59.9824 17.6354 59.6113 17.3359C59.2467 17.0299 58.9342 16.6328 58.6738 16.1445C58.4134 15.6562 58.2148 15.0638 58.0781 14.3672C57.9414 13.6706 57.873 12.8568 57.873 11.9258V9.75781C57.873 8.59245 57.9772 7.61589 58.1855 6.82812C58.4004 6.04036 58.7031 5.40885 59.0938 4.93359C59.4844 4.45182 59.9531 4.10677 60.5 3.89844C61.0534 3.6901 61.6719 3.58594 62.3555 3.58594C62.9089 3.58594 63.4167 3.6543 63.8789 3.79102C64.3477 3.92122 64.7643 4.13281 65.1289 4.42578C65.4935 4.71224 65.8027 5.09635 66.0566 5.57812C66.3171 6.05339 66.5156 6.63607 66.6523 7.32617C66.7891 8.01628 66.8574 8.82682 66.8574 9.75781ZM65.041 12.2188V9.45508C65.041 8.81706 65.002 8.25716 64.9238 7.77539C64.8522 7.28711 64.7448 6.87044 64.6016 6.52539C64.4583 6.18034 64.276 5.90039 64.0547 5.68555C63.8398 5.4707 63.5892 5.31445 63.3027 5.2168C63.0228 5.11263 62.707 5.06055 62.3555 5.06055C61.9258 5.06055 61.5449 5.14193 61.2129 5.30469C60.8809 5.46094 60.6009 5.71159 60.373 6.05664C60.1517 6.40169 59.9824 6.85417 59.8652 7.41406C59.748 7.97396 59.6895 8.6543 59.6895 9.45508V12.2188C59.6895 12.8568 59.7253 13.4199 59.7969 13.9082C59.875 14.3965 59.9889 14.8197 60.1387 15.1777C60.2884 15.5293 60.4707 15.819 60.6855 16.0469C60.9004 16.2747 61.1478 16.444 61.4277 16.5547C61.7142 16.6589 62.0299 16.7109 62.375 16.7109C62.8177 16.7109 63.2051 16.6263 63.5371 16.457C63.8691 16.2878 64.1458 16.0241 64.3672 15.666C64.5951 15.3014 64.7643 14.8359 64.875 14.2695C64.9857 13.6966 65.041 13.013 65.041 12.2188Z" fill="#333333"/>
<path d="M89.498 903.516V905H80.1914V903.701L84.8496 898.516C85.4225 897.878 85.8652 897.337 86.1777 896.895C86.4967 896.445 86.7181 896.045 86.8418 895.693C86.972 895.335 87.0371 894.971 87.0371 894.6C87.0371 894.131 86.9395 893.708 86.7441 893.33C86.5553 892.946 86.2754 892.64 85.9043 892.412C85.5332 892.184 85.084 892.07 84.5566 892.07C83.9251 892.07 83.3978 892.194 82.9746 892.441C82.5579 892.682 82.2454 893.021 82.0371 893.457C81.8288 893.893 81.7246 894.395 81.7246 894.961H79.918C79.918 894.16 80.0938 893.428 80.4453 892.764C80.7969 892.1 81.3177 891.572 82.0078 891.182C82.6979 890.785 83.5475 890.586 84.5566 890.586C85.4551 890.586 86.2233 890.745 86.8613 891.064C87.4993 891.377 87.9876 891.82 88.3262 892.393C88.6712 892.959 88.8438 893.623 88.8438 894.385C88.8438 894.801 88.7721 895.225 88.6289 895.654C88.4922 896.077 88.3001 896.501 88.0527 896.924C87.8118 897.347 87.5286 897.764 87.2031 898.174C86.8841 898.584 86.5423 898.988 86.1777 899.385L82.3691 903.516H89.498ZM100.357 896.758V898.926C100.357 900.091 100.253 901.074 100.045 901.875C99.8366 902.676 99.5371 903.32 99.1465 903.809C98.7559 904.297 98.2839 904.652 97.7305 904.873C97.1836 905.088 96.5651 905.195 95.875 905.195C95.3281 905.195 94.8236 905.127 94.3613 904.99C93.8991 904.854 93.4824 904.635 93.1113 904.336C92.7467 904.03 92.4342 903.633 92.1738 903.145C91.9134 902.656 91.7148 902.064 91.5781 901.367C91.4414 900.671 91.373 899.857 91.373 898.926V896.758C91.373 895.592 91.4772 894.616 91.6855 893.828C91.9004 893.04 92.2031 892.409 92.5938 891.934C92.9844 891.452 93.4531 891.107 94 890.898C94.5534 890.69 95.1719 890.586 95.8555 890.586C96.4089 890.586 96.9167 890.654 97.3789 890.791C97.8477 890.921 98.2643 891.133 98.6289 891.426C98.9935 891.712 99.3027 892.096 99.5566 892.578C99.8171 893.053 100.016 893.636 100.152 894.326C100.289 895.016 100.357 895.827 100.357 896.758ZM98.541 899.219V896.455C98.541 895.817 98.502 895.257 98.4238 894.775C98.3522 894.287 98.2448 893.87 98.1016 893.525C97.9583 893.18 97.776 892.9 97.5547 892.686C97.3398 892.471 97.0892 892.314 96.8027 892.217C96.5228 892.113 96.207 892.061 95.8555 892.061C95.4258 892.061 95.0449 892.142 94.7129 892.305C94.3809 892.461 94.1009 892.712 93.873 893.057C93.6517 893.402 93.4824 893.854 93.3652 894.414C93.248 894.974 93.1895 895.654 93.1895 896.455V899.219C93.1895 899.857 93.2253 900.42 93.2969 900.908C93.375 901.396 93.4889 901.82 93.6387 902.178C93.7884 902.529 93.9707 902.819 94.1855 903.047C94.4004 903.275 94.6478 903.444 94.9277 903.555C95.2142 903.659 95.5299 903.711 95.875 903.711C96.3177 903.711 96.7051 903.626 97.0371 903.457C97.3691 903.288 97.6458 903.024 97.8672 902.666C98.0951 902.301 98.2643 901.836 98.375 901.27C98.4857 900.697 98.541 900.013 98.541 899.219ZM108.619 890.703V905H106.812V892.959L103.17 894.287V892.656L108.336 890.703H108.619ZM123.541 900.215V901.699H113.268V900.635L119.635 890.781H121.109L119.527 893.633L115.318 900.215H123.541ZM121.559 890.781V905H119.752V890.781H121.559Z" fill="#333333"/>
<path d="M455.479 903.516V905H446.172V903.701L450.83 898.516C451.403 897.878 451.846 897.337 452.158 896.895C452.477 896.445 452.699 896.045 452.822 895.693C452.952 895.335 453.018 894.971 453.018 894.6C453.018 894.131 452.92 893.708 452.725 893.33C452.536 892.946 452.256 892.64 451.885 892.412C451.514 892.184 451.064 892.07 450.537 892.07C449.906 892.07 449.378 892.194 448.955 892.441C448.538 892.682 448.226 893.021 448.018 893.457C447.809 893.893 447.705 894.395 447.705 894.961H445.898C445.898 894.16 446.074 893.428 446.426 892.764C446.777 892.1 447.298 891.572 447.988 891.182C448.678 890.785 449.528 890.586 450.537 890.586C451.436 890.586 452.204 890.745 452.842 891.064C453.48 891.377 453.968 891.82 454.307 892.393C454.652 892.959 454.824 893.623 454.824 894.385C454.824 894.801 454.753 895.225 454.609 895.654C454.473 896.077 454.281 896.501 454.033 896.924C453.792 897.347 453.509 897.764 453.184 898.174C452.865 898.584 452.523 898.988 452.158 899.385L448.35 903.516H455.479ZM466.338 896.758V898.926C466.338 900.091 466.234 901.074 466.025 901.875C465.817 902.676 465.518 903.32 465.127 903.809C464.736 904.297 464.264 904.652 463.711 904.873C463.164 905.088 462.546 905.195 461.855 905.195C461.309 905.195 460.804 905.127 460.342 904.99C459.88 904.854 459.463 904.635 459.092 904.336C458.727 904.03 458.415 903.633 458.154 903.145C457.894 902.656 457.695 902.064 457.559 901.367C457.422 900.671 457.354 899.857 457.354 898.926V896.758C457.354 895.592 457.458 894.616 457.666 893.828C457.881 893.04 458.184 892.409 458.574 891.934C458.965 891.452 459.434 891.107 459.98 890.898C460.534 890.69 461.152 890.586 461.836 890.586C462.389 890.586 462.897 890.654 463.359 890.791C463.828 890.921 464.245 891.133 464.609 891.426C464.974 891.712 465.283 892.096 465.537 892.578C465.798 893.053 465.996 893.636 466.133 894.326C466.27 895.016 466.338 895.827 466.338 896.758ZM464.521 899.219V896.455C464.521 895.817 464.482 895.257 464.404 894.775C464.333 894.287 464.225 893.87 464.082 893.525C463.939 893.18 463.757 892.9 463.535 892.686C463.32 892.471 463.07 892.314 462.783 892.217C462.503 892.113 462.188 892.061 461.836 892.061C461.406 892.061 461.025 892.142 460.693 892.305C460.361 892.461 460.081 892.712 459.854 893.057C459.632 893.402 459.463 893.854 459.346 894.414C459.229 894.974 459.17 895.654 459.17 896.455V899.219C459.17 899.857 459.206 900.42 459.277 900.908C459.355 901.396 459.469 901.82 459.619 902.178C459.769 902.529 459.951 902.819 460.166 903.047C460.381 903.275 460.628 903.444 460.908 903.555C461.195 903.659 461.51 903.711 461.855 903.711C462.298 903.711 462.686 903.626 463.018 903.457C463.35 903.288 463.626 903.024 463.848 902.666C464.076 902.301 464.245 901.836 464.355 901.27C464.466 900.697 464.521 900.013 464.521 899.219ZM474.6 890.703V905H472.793V892.959L469.15 894.287V892.656L474.316 890.703H474.6ZM489.102 890.781V891.797L483.213 905H481.309L487.188 892.266H479.492V890.781H489.102Z" fill="#333333"/>
<path d="M841.479 903.516V905H832.172V903.701L836.83 898.516C837.403 897.878 837.846 897.337 838.158 896.895C838.477 896.445 838.699 896.045 838.822 895.693C838.952 895.335 839.018 894.971 839.018 894.6C839.018 894.131 838.92 893.708 838.725 893.33C838.536 892.946 838.256 892.64 837.885 892.412C837.514 892.184 837.064 892.07 836.537 892.07C835.906 892.07 835.378 892.194 834.955 892.441C834.538 892.682 834.226 893.021 834.018 893.457C833.809 893.893 833.705 894.395 833.705 894.961H831.898C831.898 894.16 832.074 893.428 832.426 892.764C832.777 892.1 833.298 891.572 833.988 891.182C834.678 890.785 835.528 890.586 836.537 890.586C837.436 890.586 838.204 890.745 838.842 891.064C839.48 891.377 839.968 891.82 840.307 892.393C840.652 892.959 840.824 893.623 840.824 894.385C840.824 894.801 840.753 895.225 840.609 895.654C840.473 896.077 840.281 896.501 840.033 896.924C839.792 897.347 839.509 897.764 839.184 898.174C838.865 898.584 838.523 898.988 838.158 899.385L834.35 903.516H841.479ZM852.338 896.758V898.926C852.338 900.091 852.234 901.074 852.025 901.875C851.817 902.676 851.518 903.32 851.127 903.809C850.736 904.297 850.264 904.652 849.711 904.873C849.164 905.088 848.546 905.195 847.855 905.195C847.309 905.195 846.804 905.127 846.342 904.99C845.88 904.854 845.463 904.635 845.092 904.336C844.727 904.03 844.415 903.633 844.154 903.145C843.894 902.656 843.695 902.064 843.559 901.367C843.422 900.671 843.354 899.857 843.354 898.926V896.758C843.354 895.592 843.458 894.616 843.666 893.828C843.881 893.04 844.184 892.409 844.574 891.934C844.965 891.452 845.434 891.107 845.98 890.898C846.534 890.69 847.152 890.586 847.836 890.586C848.389 890.586 848.897 890.654 849.359 890.791C849.828 890.921 850.245 891.133 850.609 891.426C850.974 891.712 851.283 892.096 851.537 892.578C851.798 893.053 851.996 893.636 852.133 894.326C852.27 895.016 852.338 895.827 852.338 896.758ZM850.521 899.219V896.455C850.521 895.817 850.482 895.257 850.404 894.775C850.333 894.287 850.225 893.87 850.082 893.525C849.939 893.18 849.757 892.9 849.535 892.686C849.32 892.471 849.07 892.314 848.783 892.217C848.503 892.113 848.188 892.061 847.836 892.061C847.406 892.061 847.025 892.142 846.693 892.305C846.361 892.461 846.081 892.712 845.854 893.057C845.632 893.402 845.463 893.854 845.346 894.414C845.229 894.974 845.17 895.654 845.17 896.455V899.219C845.17 899.857 845.206 900.42 845.277 900.908C845.355 901.396 845.469 901.82 845.619 902.178C845.769 902.529 845.951 902.819 846.166 903.047C846.381 903.275 846.628 903.444 846.908 903.555C847.195 903.659 847.51 903.711 847.855 903.711C848.298 903.711 848.686 903.626 849.018 903.457C849.35 903.288 849.626 903.024 849.848 902.666C850.076 902.301 850.245 901.836 850.355 901.27C850.466 900.697 850.521 900.013 850.521 899.219ZM863.979 903.516V905H854.672V903.701L859.33 898.516C859.903 897.878 860.346 897.337 860.658 896.895C860.977 896.445 861.199 896.045 861.322 895.693C861.452 895.335 861.518 894.971 861.518 894.6C861.518 894.131 861.42 893.708 861.225 893.33C861.036 892.946 860.756 892.64 860.385 892.412C860.014 892.184 859.564 892.07 859.037 892.07C858.406 892.07 857.878 892.194 857.455 892.441C857.038 892.682 856.726 893.021 856.518 893.457C856.309 893.893 856.205 894.395 856.205 894.961H854.398C854.398 894.16 854.574 893.428 854.926 892.764C855.277 892.1 855.798 891.572 856.488 891.182C857.178 890.785 858.028 890.586 859.037 890.586C859.936 890.586 860.704 890.745 861.342 891.064C861.98 891.377 862.468 891.82 862.807 892.393C863.152 892.959 863.324 893.623 863.324 894.385C863.324 894.801 863.253 895.225 863.109 895.654C862.973 896.077 862.781 896.501 862.533 896.924C862.292 897.347 862.009 897.764 861.684 898.174C861.365 898.584 861.023 898.988 860.658 899.385L856.85 903.516H863.979ZM874.838 896.758V898.926C874.838 900.091 874.734 901.074 874.525 901.875C874.317 902.676 874.018 903.32 873.627 903.809C873.236 904.297 872.764 904.652 872.211 904.873C871.664 905.088 871.046 905.195 870.355 905.195C869.809 905.195 869.304 905.127 868.842 904.99C868.38 904.854 867.963 904.635 867.592 904.336C867.227 904.03 866.915 903.633 866.654 903.145C866.394 902.656 866.195 902.064 866.059 901.367C865.922 900.671 865.854 899.857 865.854 898.926V896.758C865.854 895.592 865.958 894.616 866.166 893.828C866.381 893.04 866.684 892.409 867.074 891.934C867.465 891.452 867.934 891.107 868.48 890.898C869.034 890.69 869.652 890.586 870.336 890.586C870.889 890.586 871.397 890.654 871.859 890.791C872.328 890.921 872.745 891.133 873.109 891.426C873.474 891.712 873.783 892.096 874.037 892.578C874.298 893.053 874.496 893.636 874.633 894.326C874.77 895.016 874.838 895.827 874.838 896.758ZM873.021 899.219V896.455C873.021 895.817 872.982 895.257 872.904 894.775C872.833 894.287 872.725 893.87 872.582 893.525C872.439 893.18 872.257 892.9 872.035 892.686C871.82 892.471 871.57 892.314 871.283 892.217C871.003 892.113 870.688 892.061 870.336 892.061C869.906 892.061 869.525 892.142 869.193 892.305C868.861 892.461 868.581 892.712 868.354 893.057C868.132 893.402 867.963 893.854 867.846 894.414C867.729 894.974 867.67 895.654 867.67 896.455V899.219C867.67 899.857 867.706 900.42 867.777 900.908C867.855 901.396 867.969 901.82 868.119 902.178C868.269 902.529 868.451 902.819 868.666 903.047C868.881 903.275 869.128 903.444 869.408 903.555C869.695 903.659 870.01 903.711 870.355 903.711C870.798 903.711 871.186 903.626 871.518 903.457C871.85 903.288 872.126 903.024 872.348 902.666C872.576 902.301 872.745 901.836 872.855 901.27C872.966 900.697 873.021 900.013 873.021 899.219Z" fill="#333333"/>
<path d="M1206.48 903.516V905H1197.17V903.701L1201.83 898.516C1202.4 897.878 1202.85 897.337 1203.16 896.895C1203.48 896.445 1203.7 896.045 1203.82 895.693C1203.95 895.335 1204.02 894.971 1204.02 894.6C1204.02 894.131 1203.92 893.708 1203.72 893.33C1203.54 892.946 1203.26 892.64 1202.88 892.412C1202.51 892.184 1202.06 892.07 1201.54 892.07C1200.91 892.07 1200.38 892.194 1199.96 892.441C1199.54 892.682 1199.23 893.021 1199.02 893.457C1198.81 893.893 1198.71 894.395 1198.71 894.961H1196.9C1196.9 894.16 1197.07 893.428 1197.43 892.764C1197.78 892.1 1198.3 891.572 1198.99 891.182C1199.68 890.785 1200.53 890.586 1201.54 890.586C1202.44 890.586 1203.2 890.745 1203.84 891.064C1204.48 891.377 1204.97 891.82 1205.31 892.393C1205.65 892.959 1205.82 893.623 1205.82 894.385C1205.82 894.801 1205.75 895.225 1205.61 895.654C1205.47 896.077 1205.28 896.501 1205.03 896.924C1204.79 897.347 1204.51 897.764 1204.18 898.174C1203.86 898.584 1203.52 898.988 1203.16 899.385L1199.35 903.516H1206.48ZM1217.34 896.758V898.926C1217.34 900.091 1217.23 901.074 1217.03 901.875C1216.82 902.676 1216.52 903.32 1216.13 903.809C1215.74 904.297 1215.26 904.652 1214.71 904.873C1214.16 905.088 1213.55 905.195 1212.86 905.195C1212.31 905.195 1211.8 905.127 1211.34 904.99C1210.88 904.854 1210.46 904.635 1210.09 904.336C1209.73 904.03 1209.41 903.633 1209.15 903.145C1208.89 902.656 1208.7 902.064 1208.56 901.367C1208.42 900.671 1208.35 899.857 1208.35 898.926V896.758C1208.35 895.592 1208.46 894.616 1208.67 893.828C1208.88 893.04 1209.18 892.409 1209.57 891.934C1209.96 891.452 1210.43 891.107 1210.98 890.898C1211.53 890.69 1212.15 890.586 1212.84 890.586C1213.39 890.586 1213.9 890.654 1214.36 890.791C1214.83 890.921 1215.24 891.133 1215.61 891.426C1215.97 891.712 1216.28 892.096 1216.54 892.578C1216.8 893.053 1217 893.636 1217.13 894.326C1217.27 895.016 1217.34 895.827 1217.34 896.758ZM1215.52 899.219V896.455C1215.52 895.817 1215.48 895.257 1215.4 894.775C1215.33 894.287 1215.23 893.87 1215.08 893.525C1214.94 893.18 1214.76 892.9 1214.54 892.686C1214.32 892.471 1214.07 892.314 1213.78 892.217C1213.5 892.113 1213.19 892.061 1212.84 892.061C1212.41 892.061 1212.03 892.142 1211.69 892.305C1211.36 892.461 1211.08 892.712 1210.85 893.057C1210.63 893.402 1210.46 893.854 1210.35 894.414C1210.23 894.974 1210.17 895.654 1210.17 896.455V899.219C1210.17 899.857 1210.21 900.42 1210.28 900.908C1210.36 901.396 1210.47 901.82 1210.62 902.178C1210.77 902.529 1210.95 902.819 1211.17 903.047C1211.38 903.275 1211.63 903.444 1211.91 903.555C1212.19 903.659 1212.51 903.711 1212.86 903.711C1213.3 903.711 1213.69 903.626 1214.02 903.457C1214.35 903.288 1214.63 903.024 1214.85 902.666C1215.08 902.301 1215.24 901.836 1215.36 901.27C1215.47 900.697 1215.52 900.013 1215.52 899.219ZM1228.98 903.516V905H1219.67V903.701L1224.33 898.516C1224.9 897.878 1225.35 897.337 1225.66 896.895C1225.98 896.445 1226.2 896.045 1226.32 895.693C1226.45 895.335 1226.52 894.971 1226.52 894.6C1226.52 894.131 1226.42 893.708 1226.22 893.33C1226.04 892.946 1225.76 892.64 1225.38 892.412C1225.01 892.184 1224.56 892.07 1224.04 892.07C1223.41 892.07 1222.88 892.194 1222.46 892.441C1222.04 892.682 1221.73 893.021 1221.52 893.457C1221.31 893.893 1221.21 894.395 1221.21 894.961H1219.4C1219.4 894.16 1219.57 893.428 1219.93 892.764C1220.28 892.1 1220.8 891.572 1221.49 891.182C1222.18 890.785 1223.03 890.586 1224.04 890.586C1224.94 890.586 1225.7 890.745 1226.34 891.064C1226.98 891.377 1227.47 891.82 1227.81 892.393C1228.15 892.959 1228.32 893.623 1228.32 894.385C1228.32 894.801 1228.25 895.225 1228.11 895.654C1227.97 896.077 1227.78 896.501 1227.53 896.924C1227.29 897.347 1227.01 897.764 1226.68 898.174C1226.36 898.584 1226.02 898.988 1225.66 899.385L1221.85 903.516H1228.98ZM1233.55 897.002H1234.84C1235.47 897.002 1235.99 896.898 1236.4 896.689C1236.82 896.475 1237.13 896.185 1237.33 895.82C1237.54 895.449 1237.64 895.033 1237.64 894.57C1237.64 894.023 1237.55 893.564 1237.37 893.193C1237.18 892.822 1236.91 892.542 1236.55 892.354C1236.18 892.165 1235.72 892.07 1235.16 892.07C1234.65 892.07 1234.2 892.171 1233.81 892.373C1233.43 892.568 1233.13 892.848 1232.9 893.213C1232.69 893.577 1232.58 894.007 1232.58 894.502H1230.78C1230.78 893.779 1230.96 893.122 1231.32 892.529C1231.69 891.937 1232.2 891.465 1232.86 891.113C1233.52 890.762 1234.29 890.586 1235.16 890.586C1236.02 890.586 1236.77 890.739 1237.42 891.045C1238.06 891.344 1238.56 891.794 1238.92 892.393C1239.28 892.985 1239.46 893.724 1239.46 894.609C1239.46 894.967 1239.37 895.352 1239.2 895.762C1239.04 896.165 1238.78 896.543 1238.43 896.895C1238.09 897.246 1237.64 897.536 1237.08 897.764C1236.53 897.985 1235.87 898.096 1235.09 898.096H1233.55V897.002ZM1233.55 898.486V897.402H1235.09C1236 897.402 1236.75 897.51 1237.34 897.725C1237.93 897.939 1238.4 898.226 1238.73 898.584C1239.08 898.942 1239.32 899.336 1239.46 899.766C1239.6 900.189 1239.67 900.612 1239.67 901.035C1239.67 901.699 1239.56 902.288 1239.33 902.803C1239.11 903.317 1238.79 903.753 1238.38 904.111C1237.98 904.469 1237.5 904.74 1236.96 904.922C1236.41 905.104 1235.81 905.195 1235.17 905.195C1234.55 905.195 1233.97 905.107 1233.42 904.932C1232.88 904.756 1232.4 904.502 1231.99 904.17C1231.57 903.831 1231.24 903.418 1231.01 902.93C1230.78 902.435 1230.66 901.872 1230.66 901.24H1232.46C1232.46 901.735 1232.57 902.168 1232.79 902.539C1233.01 902.91 1233.32 903.2 1233.72 903.408C1234.13 903.61 1234.62 903.711 1235.17 903.711C1235.72 903.711 1236.2 903.617 1236.6 903.428C1237 903.232 1237.31 902.939 1237.52 902.549C1237.74 902.158 1237.86 901.667 1237.86 901.074C1237.86 900.482 1237.73 899.997 1237.48 899.619C1237.24 899.235 1236.89 898.952 1236.43 898.77C1235.98 898.581 1235.45 898.486 1234.84 898.486H1233.55Z" fill="#333333"/>
<path d="M77.5 193.5L466 130.5L852.5 71L1238.5 46" stroke="#FF0D0D" stroke-width="8" stroke-linejoin="round"/>
<circle cx="78" cy="195.138" r="3.5" fill="#0A0909" stroke="#0E9CFF" stroke-width="2"/>
<circle cx="467.5" cy="129.5" r="3.5" fill="#0A0909" stroke="#0E9CFF" stroke-width="2"/>
<circle cx="851.5" cy="71.5" r="3.5" fill="#0A0909" stroke="#0E9CFF" stroke-width="2"/>
<circle cx="1237.5" cy="46.5" r="3.5" fill="#0A0909" stroke="#0E9CFF" stroke-width="2"/>
<path d="M78 600.182L464.667 598.283L851.333 591.849L1238 596.011" stroke="#3AD062" stroke-width="8" stroke-linejoin="round"/>
<circle cx="78" cy="600.182" r="3.5" fill="#0A0909" stroke="#3AD062" stroke-width="2"/>
<circle cx="464.667" cy="598.283" r="3.5" fill="#0A0909" stroke="#3AD062" stroke-width="2"/>
<circle cx="851.333" cy="591.849" r="3.5" fill="#0A0909" stroke="#3AD062" stroke-width="2"/>
<circle cx="1238" cy="596.011" r="3.5" fill="#0A0909" stroke="#3AD062" stroke-width="2"/>
<path d="M81 779L465 708L852 674L1238 639" stroke="#3E1A8B" stroke-width="8" stroke-linejoin="round"/>
<circle cx="78.5" cy="778.5" r="3.5" fill="#0A0909" stroke="#3E1A8B" stroke-width="2"/>
<circle cx="464.667" cy="710.378" r="3.5" fill="#0A0909" stroke="#3E1A8B" stroke-width="2"/>
<circle cx="851.333" cy="674.821" r="3.5" fill="#0A0909" stroke="#3E1A8B" stroke-width="2"/>
<circle cx="1238" cy="639.399" r="3.5" fill="#0A0909" stroke="#3E1A8B" stroke-width="2"/>
</svg>
