<svg width="1262" height="1271" viewBox="0 0 1262 1271" fill="none" xmlns="http://www.w3.org/2000/svg">
<rect x="963" y="1132" width="120" height="23" fill="#FF0D0D"/>
<rect x="963" y="1169" width="120" height="23" fill="#3AD062"/>
<path d="M1119.66 1137.04L1114.95 1150H1113.03L1118.45 1135.78H1119.69L1119.66 1137.04ZM1123.6 1150L1118.88 1137.04L1118.86 1135.78H1120.1L1125.54 1150H1123.6ZM1123.36 1144.74V1146.28H1115.37V1144.74H1123.36ZM1128.97 1141.69V1150H1127.17V1139.43H1128.88L1128.97 1141.69ZM1128.54 1144.32L1127.79 1144.29C1127.8 1143.56 1127.9 1142.9 1128.11 1142.29C1128.32 1141.67 1128.61 1141.13 1128.99 1140.67C1129.37 1140.22 1129.82 1139.87 1130.34 1139.62C1130.87 1139.37 1131.45 1139.24 1132.09 1139.24C1132.61 1139.24 1133.08 1139.31 1133.49 1139.45C1133.91 1139.59 1134.27 1139.81 1134.56 1140.12C1134.86 1140.42 1135.09 1140.82 1135.24 1141.31C1135.4 1141.79 1135.48 1142.38 1135.48 1143.08V1150H1133.66V1143.06C1133.66 1142.5 1133.58 1142.06 1133.42 1141.73C1133.25 1141.39 1133.02 1141.15 1132.7 1141C1132.39 1140.84 1132.01 1140.76 1131.55 1140.76C1131.1 1140.76 1130.69 1140.86 1130.32 1141.04C1129.96 1141.23 1129.64 1141.49 1129.37 1141.83C1129.11 1142.16 1128.91 1142.54 1128.76 1142.97C1128.61 1143.39 1128.54 1143.84 1128.54 1144.32ZM1142.64 1139.43V1140.82H1136.93V1139.43H1142.64ZM1138.87 1136.87H1140.67V1147.38C1140.67 1147.74 1140.73 1148.01 1140.84 1148.19C1140.95 1148.38 1141.09 1148.5 1141.27 1148.55C1141.44 1148.61 1141.63 1148.64 1141.83 1148.64C1141.98 1148.64 1142.14 1148.63 1142.3 1148.6C1142.47 1148.57 1142.6 1148.54 1142.68 1148.53L1142.69 1150C1142.55 1150.05 1142.36 1150.09 1142.13 1150.13C1141.9 1150.17 1141.62 1150.2 1141.3 1150.2C1140.85 1150.2 1140.45 1150.11 1140.08 1149.93C1139.71 1149.76 1139.41 1149.46 1139.19 1149.05C1138.97 1148.64 1138.87 1148.08 1138.87 1147.37V1136.87ZM1150.99 1148.19V1142.75C1150.99 1142.34 1150.91 1141.98 1150.74 1141.67C1150.58 1141.36 1150.33 1141.12 1150 1140.95C1149.67 1140.78 1149.26 1140.69 1148.77 1140.69C1148.31 1140.69 1147.91 1140.77 1147.57 1140.93C1147.23 1141.08 1146.96 1141.29 1146.77 1141.54C1146.58 1141.8 1146.48 1142.07 1146.48 1142.36H1144.68C1144.68 1141.99 1144.77 1141.61 1144.97 1141.24C1145.16 1140.87 1145.44 1140.53 1145.81 1140.23C1146.18 1139.93 1146.62 1139.69 1147.14 1139.51C1147.66 1139.33 1148.24 1139.24 1148.88 1139.24C1149.64 1139.24 1150.32 1139.37 1150.91 1139.63C1151.5 1139.89 1151.96 1140.28 1152.29 1140.81C1152.63 1141.33 1152.8 1141.99 1152.8 1142.77V1147.7C1152.8 1148.05 1152.83 1148.42 1152.89 1148.82C1152.95 1149.22 1153.05 1149.56 1153.17 1149.84V1150H1151.29C1151.2 1149.79 1151.12 1149.51 1151.07 1149.17C1151.02 1148.82 1150.99 1148.49 1150.99 1148.19ZM1151.31 1143.59L1151.33 1144.86H1149.5C1148.99 1144.86 1148.53 1144.91 1148.12 1144.99C1147.72 1145.07 1147.38 1145.19 1147.11 1145.35C1146.83 1145.51 1146.63 1145.72 1146.48 1145.97C1146.34 1146.21 1146.27 1146.49 1146.27 1146.82C1146.27 1147.15 1146.34 1147.45 1146.49 1147.72C1146.64 1148 1146.87 1148.22 1147.17 1148.38C1147.47 1148.54 1147.85 1148.61 1148.29 1148.61C1148.84 1148.61 1149.33 1148.5 1149.75 1148.26C1150.18 1148.03 1150.51 1147.74 1150.76 1147.4C1151.01 1147.06 1151.15 1146.74 1151.17 1146.42L1151.94 1147.29C1151.9 1147.56 1151.77 1147.86 1151.57 1148.19C1151.37 1148.53 1151.1 1148.84 1150.76 1149.15C1150.43 1149.45 1150.03 1149.7 1149.57 1149.9C1149.11 1150.1 1148.6 1150.2 1148.03 1150.2C1147.31 1150.2 1146.68 1150.06 1146.14 1149.78C1145.61 1149.5 1145.19 1149.12 1144.89 1148.65C1144.6 1148.18 1144.45 1147.65 1144.45 1147.06C1144.45 1146.49 1144.56 1146 1144.78 1145.57C1145 1145.13 1145.32 1144.77 1145.74 1144.48C1146.16 1144.19 1146.66 1143.97 1147.24 1143.82C1147.83 1143.67 1148.48 1143.59 1149.21 1143.59H1151.31ZM1157.61 1135V1150H1155.79V1135H1157.61ZM1167.43 1139.43V1150H1165.61V1139.43H1167.43ZM1165.48 1136.63C1165.48 1136.34 1165.56 1136.09 1165.74 1135.89C1165.92 1135.69 1166.19 1135.59 1166.54 1135.59C1166.89 1135.59 1167.15 1135.69 1167.33 1135.89C1167.52 1136.09 1167.62 1136.34 1167.62 1136.63C1167.62 1136.91 1167.52 1137.15 1167.33 1137.35C1167.15 1137.55 1166.89 1137.65 1166.54 1137.65C1166.19 1137.65 1165.92 1137.55 1165.74 1137.35C1165.56 1137.15 1165.48 1136.91 1165.48 1136.63ZM1172.14 1141.69V1150H1170.33V1139.43H1172.04L1172.14 1141.69ZM1171.71 1144.32L1170.96 1144.29C1170.96 1143.56 1171.07 1142.9 1171.28 1142.29C1171.49 1141.67 1171.78 1141.13 1172.16 1140.67C1172.53 1140.22 1172.98 1139.87 1173.5 1139.62C1174.03 1139.37 1174.61 1139.24 1175.25 1139.24C1175.77 1139.24 1176.24 1139.31 1176.66 1139.45C1177.07 1139.59 1177.43 1139.81 1177.72 1140.12C1178.02 1140.42 1178.25 1140.82 1178.41 1141.31C1178.56 1141.79 1178.64 1142.38 1178.64 1143.08V1150H1176.82V1143.06C1176.82 1142.5 1176.74 1142.06 1176.58 1141.73C1176.42 1141.39 1176.18 1141.15 1175.87 1141C1175.55 1140.84 1175.17 1140.76 1174.71 1140.76C1174.27 1140.76 1173.86 1140.86 1173.48 1141.04C1173.12 1141.23 1172.8 1141.49 1172.54 1141.83C1172.28 1142.16 1172.07 1142.54 1171.92 1142.97C1171.78 1143.39 1171.71 1143.84 1171.71 1144.32ZM1188.04 1147.95V1135H1189.86V1150H1188.2L1188.04 1147.95ZM1180.94 1144.83V1144.63C1180.94 1143.82 1181.03 1143.09 1181.23 1142.43C1181.43 1141.77 1181.71 1141.2 1182.08 1140.72C1182.45 1140.25 1182.89 1139.88 1183.4 1139.63C1183.91 1139.37 1184.48 1139.24 1185.12 1139.24C1185.78 1139.24 1186.36 1139.36 1186.85 1139.59C1187.35 1139.82 1187.78 1140.15 1188.12 1140.6C1188.47 1141.03 1188.75 1141.56 1188.95 1142.18C1189.15 1142.8 1189.29 1143.5 1189.37 1144.28V1145.18C1189.3 1145.95 1189.16 1146.65 1188.95 1147.27C1188.75 1147.88 1188.47 1148.41 1188.12 1148.85C1187.78 1149.28 1187.35 1149.62 1186.85 1149.85C1186.35 1150.08 1185.77 1150.2 1185.1 1150.2C1184.48 1150.2 1183.91 1150.06 1183.4 1149.79C1182.89 1149.53 1182.45 1149.15 1182.08 1148.67C1181.71 1148.19 1181.43 1147.62 1181.23 1146.97C1181.03 1146.32 1180.94 1145.6 1180.94 1144.83ZM1182.75 1144.63V1144.83C1182.75 1145.36 1182.8 1145.86 1182.91 1146.32C1183.02 1146.78 1183.19 1147.19 1183.42 1147.54C1183.64 1147.89 1183.93 1148.17 1184.29 1148.37C1184.64 1148.56 1185.06 1148.66 1185.54 1148.66C1186.14 1148.66 1186.64 1148.54 1187.02 1148.28C1187.41 1148.03 1187.72 1147.69 1187.96 1147.28C1188.19 1146.86 1188.37 1146.41 1188.5 1145.92V1143.56C1188.43 1143.21 1188.31 1142.86 1188.16 1142.53C1188.02 1142.19 1187.83 1141.89 1187.6 1141.63C1187.37 1141.36 1187.08 1141.15 1186.75 1141C1186.41 1140.84 1186.02 1140.76 1185.56 1140.76C1185.07 1140.76 1184.64 1140.87 1184.29 1141.07C1183.93 1141.28 1183.64 1141.56 1183.42 1141.91C1183.19 1142.27 1183.02 1142.68 1182.91 1143.14C1182.8 1143.61 1182.75 1144.1 1182.75 1144.63ZM1192.66 1135H1194.48V1147.95L1194.32 1150H1192.66V1135ZM1201.62 1144.63V1144.83C1201.62 1145.6 1201.53 1146.32 1201.35 1146.97C1201.16 1147.62 1200.9 1148.19 1200.54 1148.67C1200.19 1149.15 1199.76 1149.53 1199.26 1149.79C1198.75 1150.06 1198.17 1150.2 1197.51 1150.2C1196.84 1150.2 1196.25 1150.08 1195.74 1149.85C1195.24 1149.62 1194.82 1149.28 1194.47 1148.85C1194.13 1148.41 1193.85 1147.88 1193.64 1147.27C1193.44 1146.65 1193.3 1145.95 1193.22 1145.18V1144.28C1193.3 1143.5 1193.44 1142.8 1193.64 1142.18C1193.85 1141.56 1194.13 1141.03 1194.47 1140.6C1194.82 1140.15 1195.24 1139.82 1195.74 1139.59C1196.24 1139.36 1196.82 1139.24 1197.49 1139.24C1198.15 1139.24 1198.74 1139.37 1199.26 1139.63C1199.77 1139.88 1200.2 1140.25 1200.54 1140.72C1200.9 1141.2 1201.16 1141.77 1201.35 1142.43C1201.53 1143.09 1201.62 1143.82 1201.62 1144.63ZM1199.8 1144.83V1144.63C1199.8 1144.1 1199.75 1143.61 1199.66 1143.14C1199.56 1142.68 1199.4 1142.27 1199.19 1141.91C1198.97 1141.56 1198.69 1141.28 1198.34 1141.07C1197.99 1140.87 1197.55 1140.76 1197.04 1140.76C1196.58 1140.76 1196.19 1140.84 1195.85 1141C1195.52 1141.15 1195.23 1141.36 1195 1141.63C1194.76 1141.89 1194.57 1142.19 1194.42 1142.53C1194.28 1142.86 1194.17 1143.21 1194.1 1143.56V1145.92C1194.2 1146.37 1194.37 1146.81 1194.61 1147.24C1194.85 1147.65 1195.17 1147.99 1195.56 1148.26C1195.97 1148.53 1196.47 1148.66 1197.06 1148.66C1197.55 1148.66 1197.96 1148.56 1198.31 1148.37C1198.66 1148.17 1198.94 1147.89 1199.16 1147.54C1199.38 1147.19 1199.54 1146.78 1199.65 1146.32C1199.75 1145.86 1199.8 1145.36 1199.8 1144.83ZM1206.76 1148.91L1209.7 1139.43H1211.63L1207.39 1151.63C1207.29 1151.89 1207.16 1152.17 1207 1152.47C1206.84 1152.78 1206.64 1153.07 1206.39 1153.34C1206.15 1153.61 1205.85 1153.83 1205.5 1154C1205.15 1154.18 1204.74 1154.27 1204.26 1154.27C1204.11 1154.27 1203.93 1154.25 1203.71 1154.21C1203.49 1154.17 1203.33 1154.14 1203.24 1154.11L1203.23 1152.65C1203.28 1152.65 1203.36 1152.66 1203.47 1152.67C1203.59 1152.68 1203.67 1152.69 1203.72 1152.69C1204.13 1152.69 1204.48 1152.63 1204.76 1152.52C1205.05 1152.42 1205.29 1152.24 1205.49 1151.98C1205.69 1151.74 1205.86 1151.39 1206 1150.96L1206.76 1148.91ZM1204.6 1139.43L1207.34 1147.64L1207.81 1149.54L1206.51 1150.21L1202.62 1139.43H1204.6ZM1219.97 1139.43H1221.61V1149.78C1221.61 1150.71 1221.42 1151.5 1221.04 1152.16C1220.67 1152.82 1220.14 1153.31 1219.46 1153.65C1218.79 1154 1218.02 1154.17 1217.14 1154.17C1216.77 1154.17 1216.34 1154.11 1215.85 1153.99C1215.36 1153.88 1214.88 1153.69 1214.4 1153.42C1213.93 1153.15 1213.54 1152.79 1213.22 1152.33L1214.17 1151.26C1214.61 1151.79 1215.07 1152.16 1215.55 1152.37C1216.04 1152.58 1216.52 1152.69 1217 1152.69C1217.57 1152.69 1218.07 1152.58 1218.48 1152.36C1218.9 1152.15 1219.22 1151.83 1219.45 1151.41C1219.69 1150.99 1219.8 1150.48 1219.8 1149.86V1141.76L1219.97 1139.43ZM1212.69 1144.83V1144.63C1212.69 1143.82 1212.79 1143.09 1212.98 1142.43C1213.17 1141.77 1213.45 1141.2 1213.81 1140.72C1214.17 1140.25 1214.61 1139.88 1215.12 1139.63C1215.64 1139.37 1216.22 1139.24 1216.86 1139.24C1217.53 1139.24 1218.11 1139.36 1218.6 1139.59C1219.1 1139.82 1219.53 1140.15 1219.87 1140.6C1220.22 1141.03 1220.5 1141.56 1220.7 1142.18C1220.9 1142.8 1221.04 1143.5 1221.12 1144.28V1145.18C1221.05 1145.95 1220.91 1146.65 1220.7 1147.27C1220.5 1147.88 1220.22 1148.41 1219.87 1148.85C1219.53 1149.28 1219.1 1149.62 1218.6 1149.85C1218.1 1150.08 1217.51 1150.2 1216.84 1150.2C1216.21 1150.2 1215.64 1150.06 1215.12 1149.79C1214.62 1149.53 1214.18 1149.15 1213.82 1148.67C1213.45 1148.19 1213.17 1147.62 1212.98 1146.97C1212.79 1146.32 1212.69 1145.6 1212.69 1144.83ZM1214.5 1144.63V1144.83C1214.5 1145.36 1214.55 1145.86 1214.66 1146.32C1214.77 1146.78 1214.93 1147.19 1215.15 1147.54C1215.38 1147.89 1215.67 1148.17 1216.02 1148.37C1216.38 1148.56 1216.79 1148.66 1217.28 1148.66C1217.88 1148.66 1218.38 1148.54 1218.77 1148.28C1219.16 1148.03 1219.47 1147.69 1219.7 1147.28C1219.93 1146.86 1220.11 1146.41 1220.24 1145.92V1143.56C1220.17 1143.21 1220.06 1142.86 1219.91 1142.53C1219.77 1142.19 1219.58 1141.89 1219.34 1141.63C1219.12 1141.36 1218.83 1141.15 1218.49 1141C1218.16 1140.84 1217.76 1140.76 1217.3 1140.76C1216.81 1140.76 1216.38 1140.87 1216.02 1141.07C1215.67 1141.28 1215.38 1141.56 1215.15 1141.91C1214.93 1142.27 1214.77 1142.68 1214.66 1143.14C1214.55 1143.61 1214.5 1144.1 1214.5 1144.63ZM1231.2 1139.43H1232.84V1149.78C1232.84 1150.71 1232.65 1151.5 1232.27 1152.16C1231.9 1152.82 1231.37 1153.31 1230.69 1153.65C1230.02 1154 1229.25 1154.17 1228.37 1154.17C1228 1154.17 1227.57 1154.11 1227.08 1153.99C1226.59 1153.88 1226.11 1153.69 1225.63 1153.42C1225.16 1153.15 1224.77 1152.79 1224.45 1152.33L1225.4 1151.26C1225.84 1151.79 1226.3 1152.16 1226.79 1152.37C1227.27 1152.58 1227.76 1152.69 1228.23 1152.69C1228.8 1152.69 1229.3 1152.58 1229.71 1152.36C1230.13 1152.15 1230.45 1151.83 1230.68 1151.41C1230.92 1150.99 1231.03 1150.48 1231.03 1149.86V1141.76L1231.2 1139.43ZM1223.92 1144.83V1144.63C1223.92 1143.82 1224.02 1143.09 1224.21 1142.43C1224.4 1141.77 1224.68 1141.2 1225.04 1140.72C1225.4 1140.25 1225.84 1139.88 1226.36 1139.63C1226.87 1139.37 1227.45 1139.24 1228.09 1139.24C1228.76 1139.24 1229.34 1139.36 1229.83 1139.59C1230.33 1139.82 1230.76 1140.15 1231.1 1140.6C1231.45 1141.03 1231.73 1141.56 1231.93 1142.18C1232.13 1142.8 1232.27 1143.5 1232.35 1144.28V1145.18C1232.28 1145.95 1232.14 1146.65 1231.93 1147.27C1231.73 1147.88 1231.45 1148.41 1231.1 1148.85C1230.76 1149.28 1230.33 1149.62 1229.83 1149.85C1229.33 1150.08 1228.74 1150.2 1228.07 1150.2C1227.44 1150.2 1226.87 1150.06 1226.36 1149.79C1225.85 1149.53 1225.41 1149.15 1225.05 1148.67C1224.68 1148.19 1224.4 1147.62 1224.21 1146.97C1224.02 1146.32 1223.92 1145.6 1223.92 1144.83ZM1225.73 1144.63V1144.83C1225.73 1145.36 1225.78 1145.86 1225.89 1146.32C1226 1146.78 1226.16 1147.19 1226.38 1147.54C1226.61 1147.89 1226.9 1148.17 1227.25 1148.37C1227.61 1148.56 1228.03 1148.66 1228.51 1148.66C1229.11 1148.66 1229.61 1148.54 1230 1148.28C1230.39 1148.03 1230.7 1147.69 1230.93 1147.28C1231.16 1146.86 1231.34 1146.41 1231.47 1145.92V1143.56C1231.4 1143.21 1231.29 1142.86 1231.14 1142.53C1231 1142.19 1230.81 1141.89 1230.57 1141.63C1230.35 1141.36 1230.06 1141.15 1229.72 1141C1229.39 1140.84 1228.99 1140.76 1228.53 1140.76C1228.04 1140.76 1227.61 1140.87 1227.25 1141.07C1226.9 1141.28 1226.61 1141.56 1226.38 1141.91C1226.16 1142.27 1226 1142.68 1225.89 1143.14C1225.78 1143.61 1225.73 1144.1 1225.73 1144.63ZM1239.97 1150.2C1239.23 1150.2 1238.57 1150.07 1237.97 1149.82C1237.37 1149.57 1236.86 1149.22 1236.43 1148.76C1236.01 1148.3 1235.68 1147.76 1235.46 1147.14C1235.23 1146.51 1235.12 1145.83 1235.12 1145.09V1144.68C1235.12 1143.82 1235.24 1143.05 1235.5 1142.38C1235.75 1141.71 1236.1 1141.13 1236.53 1140.66C1236.97 1140.2 1237.46 1139.84 1238.02 1139.6C1238.57 1139.36 1239.14 1139.24 1239.73 1139.24C1240.49 1139.24 1241.14 1139.37 1241.69 1139.63C1242.24 1139.89 1242.69 1140.25 1243.04 1140.72C1243.4 1141.18 1243.66 1141.73 1243.83 1142.36C1244 1142.99 1244.08 1143.67 1244.08 1144.41V1145.22H1236.19V1143.75H1242.27V1143.61C1242.25 1143.14 1242.15 1142.69 1241.98 1142.25C1241.82 1141.8 1241.56 1141.44 1241.2 1141.15C1240.84 1140.87 1240.35 1140.72 1239.73 1140.72C1239.32 1140.72 1238.95 1140.81 1238.6 1140.99C1238.26 1141.16 1237.96 1141.41 1237.71 1141.75C1237.47 1142.09 1237.27 1142.5 1237.14 1142.99C1237 1143.48 1236.93 1144.04 1236.93 1144.68V1145.09C1236.93 1145.59 1237 1146.06 1237.14 1146.5C1237.28 1146.94 1237.49 1147.32 1237.75 1147.66C1238.03 1147.99 1238.35 1148.25 1238.74 1148.44C1239.13 1148.63 1239.57 1148.72 1240.07 1148.72C1240.7 1148.72 1241.24 1148.59 1241.69 1148.33C1242.13 1148.07 1242.52 1147.72 1242.85 1147.29L1243.94 1148.15C1243.72 1148.5 1243.43 1148.83 1243.07 1149.14C1242.72 1149.45 1242.29 1149.71 1241.78 1149.9C1241.27 1150.1 1240.67 1150.2 1239.97 1150.2ZM1248 1141.09V1150H1246.19V1139.43H1247.95L1248 1141.09ZM1251.3 1139.38L1251.29 1141.05C1251.14 1141.02 1250.99 1141 1250.86 1141C1250.73 1140.98 1250.58 1140.98 1250.41 1140.98C1249.99 1140.98 1249.62 1141.04 1249.3 1141.17C1248.99 1141.3 1248.72 1141.48 1248.49 1141.72C1248.27 1141.95 1248.1 1142.23 1247.97 1142.56C1247.84 1142.88 1247.76 1143.23 1247.72 1143.61L1247.21 1143.91C1247.21 1143.27 1247.28 1142.67 1247.4 1142.11C1247.53 1141.55 1247.73 1141.05 1248 1140.62C1248.26 1140.19 1248.6 1139.85 1249.01 1139.61C1249.43 1139.36 1249.92 1139.24 1250.5 1139.24C1250.63 1139.24 1250.78 1139.25 1250.95 1139.29C1251.11 1139.31 1251.23 1139.34 1251.3 1139.38ZM1257.16 1150.2C1256.42 1150.2 1255.75 1150.07 1255.15 1149.82C1254.56 1149.57 1254.05 1149.22 1253.62 1148.76C1253.2 1148.3 1252.87 1147.76 1252.64 1147.14C1252.42 1146.51 1252.3 1145.83 1252.3 1145.09V1144.68C1252.3 1143.82 1252.43 1143.05 1252.68 1142.38C1252.94 1141.71 1253.28 1141.13 1253.72 1140.66C1254.15 1140.2 1254.65 1139.84 1255.2 1139.6C1255.76 1139.36 1256.33 1139.24 1256.92 1139.24C1257.68 1139.24 1258.33 1139.37 1258.88 1139.63C1259.43 1139.89 1259.88 1140.25 1260.23 1140.72C1260.58 1141.18 1260.84 1141.73 1261.01 1142.36C1261.18 1142.99 1261.27 1143.67 1261.27 1144.41V1145.22H1253.38V1143.75H1259.46V1143.61C1259.43 1143.14 1259.34 1142.69 1259.17 1142.25C1259.01 1141.8 1258.74 1141.44 1258.39 1141.15C1258.03 1140.87 1257.54 1140.72 1256.92 1140.72C1256.51 1140.72 1256.13 1140.81 1255.79 1140.99C1255.44 1141.16 1255.15 1141.41 1254.9 1141.75C1254.65 1142.09 1254.46 1142.5 1254.32 1142.99C1254.19 1143.48 1254.12 1144.04 1254.12 1144.68V1145.09C1254.12 1145.59 1254.19 1146.06 1254.32 1146.5C1254.47 1146.94 1254.67 1147.32 1254.94 1147.66C1255.21 1147.99 1255.54 1148.25 1255.93 1148.44C1256.32 1148.63 1256.76 1148.72 1257.25 1148.72C1257.89 1148.72 1258.43 1148.59 1258.88 1148.33C1259.32 1148.07 1259.71 1147.72 1260.04 1147.29L1261.13 1148.15C1260.9 1148.5 1260.61 1148.83 1260.26 1149.14C1259.91 1149.45 1259.48 1149.71 1258.96 1149.9C1258.46 1150.1 1257.85 1150.2 1257.16 1150.2Z" fill="black"/>
<path d="M1115.25 1172.78H1117.07L1121.73 1184.37L1126.38 1172.78H1128.21L1122.43 1187H1121.01L1115.25 1172.78ZM1114.65 1172.78H1116.26L1116.53 1181.45V1187H1114.65V1172.78ZM1127.19 1172.78H1128.8V1187H1126.93V1181.45L1127.19 1172.78ZM1136.22 1187.2C1135.49 1187.2 1134.82 1187.07 1134.22 1186.82C1133.63 1186.57 1133.12 1186.22 1132.69 1185.76C1132.26 1185.3 1131.94 1184.76 1131.71 1184.14C1131.48 1183.51 1131.37 1182.83 1131.37 1182.09V1181.68C1131.37 1180.82 1131.5 1180.05 1131.75 1179.38C1132 1178.71 1132.35 1178.13 1132.79 1177.66C1133.22 1177.2 1133.72 1176.84 1134.27 1176.6C1134.82 1176.36 1135.4 1176.24 1135.99 1176.24C1136.74 1176.24 1137.39 1176.37 1137.94 1176.63C1138.49 1176.89 1138.95 1177.25 1139.3 1177.72C1139.65 1178.18 1139.91 1178.73 1140.08 1179.36C1140.25 1179.99 1140.33 1180.67 1140.33 1181.41V1182.22H1132.44V1180.75H1138.53V1180.61C1138.5 1180.14 1138.4 1179.69 1138.23 1179.25C1138.07 1178.8 1137.81 1178.44 1137.45 1178.15C1137.1 1177.87 1136.61 1177.72 1135.99 1177.72C1135.58 1177.72 1135.2 1177.81 1134.86 1177.99C1134.51 1178.16 1134.21 1178.41 1133.97 1178.75C1133.72 1179.09 1133.53 1179.5 1133.39 1179.99C1133.25 1180.48 1133.19 1181.04 1133.19 1181.68V1182.09C1133.19 1182.59 1133.25 1183.06 1133.39 1183.5C1133.53 1183.94 1133.74 1184.32 1134.01 1184.66C1134.28 1184.99 1134.61 1185.25 1134.99 1185.44C1135.38 1185.63 1135.83 1185.72 1136.32 1185.72C1136.96 1185.72 1137.5 1185.59 1137.94 1185.33C1138.38 1185.07 1138.77 1184.72 1139.1 1184.29L1140.2 1185.15C1139.97 1185.5 1139.68 1185.83 1139.33 1186.14C1138.98 1186.45 1138.54 1186.71 1138.03 1186.9C1137.52 1187.1 1136.92 1187.2 1136.22 1187.2ZM1149.1 1184.95V1172H1150.92V1187H1149.26L1149.1 1184.95ZM1141.99 1181.83V1181.63C1141.99 1180.82 1142.09 1180.09 1142.29 1179.43C1142.49 1178.77 1142.77 1178.2 1143.14 1177.72C1143.51 1177.25 1143.95 1176.88 1144.46 1176.63C1144.97 1176.37 1145.54 1176.24 1146.17 1176.24C1146.84 1176.24 1147.42 1176.36 1147.91 1176.59C1148.41 1176.82 1148.84 1177.15 1149.18 1177.6C1149.53 1178.03 1149.81 1178.56 1150.01 1179.18C1150.21 1179.8 1150.35 1180.5 1150.43 1181.28V1182.18C1150.36 1182.95 1150.22 1183.65 1150.01 1184.27C1149.81 1184.88 1149.53 1185.41 1149.18 1185.85C1148.84 1186.28 1148.41 1186.62 1147.91 1186.85C1147.41 1187.08 1146.82 1187.2 1146.15 1187.2C1145.54 1187.2 1144.97 1187.06 1144.46 1186.79C1143.95 1186.53 1143.51 1186.15 1143.14 1185.67C1142.77 1185.19 1142.49 1184.62 1142.29 1183.97C1142.09 1183.32 1141.99 1182.6 1141.99 1181.83ZM1143.81 1181.63V1181.83C1143.81 1182.36 1143.86 1182.86 1143.97 1183.32C1144.08 1183.78 1144.25 1184.19 1144.47 1184.54C1144.7 1184.89 1144.99 1185.17 1145.34 1185.37C1145.7 1185.56 1146.12 1185.66 1146.6 1185.66C1147.2 1185.66 1147.69 1185.54 1148.08 1185.28C1148.47 1185.03 1148.78 1184.69 1149.02 1184.28C1149.25 1183.86 1149.43 1183.41 1149.56 1182.92V1180.56C1149.48 1180.21 1149.37 1179.86 1149.22 1179.53C1149.08 1179.19 1148.89 1178.89 1148.65 1178.63C1148.43 1178.36 1148.14 1178.15 1147.8 1178C1147.47 1177.84 1147.08 1177.76 1146.62 1177.76C1146.13 1177.76 1145.7 1177.87 1145.34 1178.07C1144.99 1178.28 1144.7 1178.56 1144.47 1178.91C1144.25 1179.27 1144.08 1179.68 1143.97 1180.14C1143.86 1180.61 1143.81 1181.1 1143.81 1181.63ZM1155.7 1172V1187H1153.88V1172H1155.7ZM1162.98 1187.2C1162.24 1187.2 1161.58 1187.07 1160.98 1186.82C1160.39 1186.57 1159.88 1186.22 1159.45 1185.76C1159.02 1185.3 1158.7 1184.76 1158.47 1184.14C1158.24 1183.51 1158.13 1182.83 1158.13 1182.09V1181.68C1158.13 1180.82 1158.25 1180.05 1158.51 1179.38C1158.76 1178.71 1159.11 1178.13 1159.54 1177.66C1159.98 1177.2 1160.47 1176.84 1161.03 1176.6C1161.58 1176.36 1162.15 1176.24 1162.75 1176.24C1163.5 1176.24 1164.15 1176.37 1164.7 1176.63C1165.25 1176.89 1165.71 1177.25 1166.06 1177.72C1166.41 1178.18 1166.67 1178.73 1166.84 1179.36C1167.01 1179.99 1167.09 1180.67 1167.09 1181.41V1182.22H1159.2V1180.75H1165.29V1180.61C1165.26 1180.14 1165.16 1179.69 1164.99 1179.25C1164.83 1178.8 1164.57 1178.44 1164.21 1178.15C1163.85 1177.87 1163.36 1177.72 1162.75 1177.72C1162.34 1177.72 1161.96 1177.81 1161.61 1177.99C1161.27 1178.16 1160.97 1178.41 1160.72 1178.75C1160.48 1179.09 1160.29 1179.5 1160.15 1179.99C1160.01 1180.48 1159.94 1181.04 1159.94 1181.68V1182.09C1159.94 1182.59 1160.01 1183.06 1160.15 1183.5C1160.29 1183.94 1160.5 1184.32 1160.76 1184.66C1161.04 1184.99 1161.37 1185.25 1161.75 1185.44C1162.14 1185.63 1162.58 1185.72 1163.08 1185.72C1163.72 1185.72 1164.26 1185.59 1164.7 1185.33C1165.14 1185.07 1165.53 1184.72 1165.86 1184.29L1166.96 1185.15C1166.73 1185.5 1166.44 1185.83 1166.09 1186.14C1165.73 1186.45 1165.3 1186.71 1164.79 1186.9C1164.28 1187.1 1163.68 1187.2 1162.98 1187.2ZM1171 1178.53V1187H1169.18V1176.43H1170.9L1171 1178.53ZM1170.63 1181.32L1169.79 1181.29C1169.79 1180.56 1169.89 1179.9 1170.07 1179.29C1170.25 1178.67 1170.52 1178.13 1170.88 1177.67C1171.24 1177.22 1171.68 1176.87 1172.22 1176.62C1172.75 1176.37 1173.37 1176.24 1174.07 1176.24C1174.57 1176.24 1175.02 1176.31 1175.44 1176.45C1175.86 1176.59 1176.22 1176.81 1176.53 1177.11C1176.83 1177.41 1177.07 1177.79 1177.24 1178.26C1177.41 1178.73 1177.49 1179.29 1177.49 1179.96V1187H1175.69V1180.05C1175.69 1179.49 1175.59 1179.05 1175.4 1178.72C1175.22 1178.39 1174.96 1178.15 1174.62 1178C1174.28 1177.84 1173.89 1177.76 1173.43 1177.76C1172.9 1177.76 1172.45 1177.86 1172.09 1178.04C1171.73 1178.23 1171.45 1178.49 1171.23 1178.83C1171.02 1179.16 1170.86 1179.54 1170.76 1179.97C1170.67 1180.39 1170.63 1180.84 1170.63 1181.32ZM1177.47 1180.32L1176.26 1180.69C1176.27 1180.11 1176.36 1179.56 1176.54 1179.02C1176.73 1178.49 1177 1178.01 1177.36 1177.6C1177.71 1177.18 1178.15 1176.85 1178.67 1176.61C1179.19 1176.36 1179.79 1176.24 1180.46 1176.24C1181.03 1176.24 1181.53 1176.31 1181.96 1176.46C1182.41 1176.61 1182.78 1176.84 1183.08 1177.16C1183.38 1177.46 1183.62 1177.86 1183.77 1178.34C1183.93 1178.82 1184.01 1179.39 1184.01 1180.06V1187H1182.19V1180.04C1182.19 1179.44 1182.1 1178.99 1181.91 1178.66C1181.72 1178.33 1181.46 1178.1 1181.12 1177.97C1180.79 1177.83 1180.4 1177.76 1179.93 1177.76C1179.54 1177.76 1179.18 1177.83 1178.88 1177.97C1178.57 1178.1 1178.32 1178.29 1178.11 1178.53C1177.9 1178.77 1177.74 1179.04 1177.63 1179.34C1177.52 1179.65 1177.47 1179.98 1177.47 1180.32ZM1188.54 1178.53V1187H1186.72V1176.43H1188.44L1188.54 1178.53ZM1188.17 1181.32L1187.33 1181.29C1187.33 1180.56 1187.43 1179.9 1187.61 1179.29C1187.79 1178.67 1188.06 1178.13 1188.42 1177.67C1188.78 1177.22 1189.22 1176.87 1189.76 1176.62C1190.29 1176.37 1190.91 1176.24 1191.61 1176.24C1192.11 1176.24 1192.56 1176.31 1192.98 1176.45C1193.4 1176.59 1193.76 1176.81 1194.06 1177.11C1194.37 1177.41 1194.61 1177.79 1194.78 1178.26C1194.95 1178.73 1195.03 1179.29 1195.03 1179.96V1187H1193.22V1180.05C1193.22 1179.49 1193.13 1179.05 1192.94 1178.72C1192.76 1178.39 1192.5 1178.15 1192.16 1178C1191.82 1177.84 1191.42 1177.76 1190.97 1177.76C1190.43 1177.76 1189.99 1177.86 1189.63 1178.04C1189.27 1178.23 1188.99 1178.49 1188.77 1178.83C1188.56 1179.16 1188.4 1179.54 1188.3 1179.97C1188.21 1180.39 1188.17 1180.84 1188.17 1181.32ZM1195.01 1180.32L1193.8 1180.69C1193.81 1180.11 1193.9 1179.56 1194.08 1179.02C1194.27 1178.49 1194.54 1178.01 1194.89 1177.6C1195.25 1177.18 1195.69 1176.85 1196.21 1176.61C1196.73 1176.36 1197.33 1176.24 1198 1176.24C1198.57 1176.24 1199.07 1176.31 1199.5 1176.46C1199.95 1176.61 1200.32 1176.84 1200.62 1177.16C1200.92 1177.46 1201.15 1177.86 1201.31 1178.34C1201.47 1178.82 1201.54 1179.39 1201.54 1180.06V1187H1199.73V1180.04C1199.73 1179.44 1199.63 1178.99 1199.45 1178.66C1199.26 1178.33 1199 1178.1 1198.66 1177.97C1198.33 1177.83 1197.93 1177.76 1197.47 1177.76C1197.08 1177.76 1196.72 1177.83 1196.42 1177.97C1196.11 1178.1 1195.85 1178.29 1195.65 1178.53C1195.44 1178.77 1195.28 1179.04 1195.17 1179.34C1195.06 1179.65 1195.01 1179.98 1195.01 1180.32ZM1208.66 1187.2C1207.93 1187.2 1207.26 1187.07 1206.66 1186.82C1206.07 1186.57 1205.56 1186.22 1205.13 1185.76C1204.71 1185.3 1204.38 1184.76 1204.15 1184.14C1203.92 1183.51 1203.81 1182.83 1203.81 1182.09V1181.68C1203.81 1180.82 1203.94 1180.05 1204.19 1179.38C1204.45 1178.71 1204.79 1178.13 1205.23 1177.66C1205.66 1177.2 1206.16 1176.84 1206.71 1176.6C1207.26 1176.36 1207.84 1176.24 1208.43 1176.24C1209.18 1176.24 1209.84 1176.37 1210.38 1176.63C1210.94 1176.89 1211.39 1177.25 1211.74 1177.72C1212.09 1178.18 1212.35 1178.73 1212.52 1179.36C1212.69 1179.99 1212.78 1180.67 1212.78 1181.41V1182.22H1204.88V1180.75H1210.97V1180.61C1210.94 1180.14 1210.85 1179.69 1210.68 1179.25C1210.51 1178.8 1210.25 1178.44 1209.89 1178.15C1209.54 1177.87 1209.05 1177.72 1208.43 1177.72C1208.02 1177.72 1207.64 1177.81 1207.3 1177.99C1206.95 1178.16 1206.66 1178.41 1206.41 1178.75C1206.16 1179.09 1205.97 1179.5 1205.83 1179.99C1205.7 1180.48 1205.63 1181.04 1205.63 1181.68V1182.09C1205.63 1182.59 1205.7 1183.06 1205.83 1183.5C1205.98 1183.94 1206.18 1184.32 1206.45 1184.66C1206.72 1184.99 1207.05 1185.25 1207.43 1185.44C1207.82 1185.63 1208.27 1185.72 1208.76 1185.72C1209.4 1185.72 1209.94 1185.59 1210.38 1185.33C1210.83 1185.07 1211.21 1184.72 1211.54 1184.29L1212.64 1185.15C1212.41 1185.5 1212.12 1185.83 1211.77 1186.14C1211.42 1186.45 1210.99 1186.71 1210.47 1186.9C1209.96 1187.1 1209.36 1187.2 1208.66 1187.2ZM1216.69 1178.09V1187H1214.88V1176.43H1216.64L1216.69 1178.09ZM1219.99 1176.38L1219.98 1178.05C1219.83 1178.02 1219.69 1178 1219.55 1178C1219.42 1177.98 1219.27 1177.98 1219.1 1177.98C1218.69 1177.98 1218.32 1178.04 1218 1178.17C1217.68 1178.3 1217.41 1178.48 1217.19 1178.72C1216.97 1178.95 1216.79 1179.23 1216.66 1179.56C1216.54 1179.88 1216.46 1180.23 1216.42 1180.61L1215.91 1180.91C1215.91 1180.27 1215.97 1179.67 1216.1 1179.11C1216.23 1178.55 1216.42 1178.05 1216.69 1177.62C1216.96 1177.19 1217.3 1176.85 1217.71 1176.61C1218.12 1176.36 1218.62 1176.24 1219.19 1176.24C1219.32 1176.24 1219.47 1176.25 1219.64 1176.29C1219.81 1176.31 1219.93 1176.34 1219.99 1176.38Z" fill="black"/>
<path d="M1115.67 1209.78V1224H1113.79V1209.78H1115.67ZM1120.64 1209V1224H1118.83V1209H1120.64ZM1127.1 1213.43L1122.49 1218.37L1119.91 1221.04L1119.76 1219.12L1121.61 1216.91L1124.89 1213.43H1127.1ZM1125.45 1224L1121.68 1218.96L1122.62 1217.35L1127.58 1224H1125.45ZM1130.78 1209V1224H1128.96V1209H1130.78ZM1137.23 1213.43L1132.62 1218.37L1130.05 1221.04L1129.9 1219.12L1131.75 1216.91L1135.03 1213.43H1137.23ZM1135.58 1224L1131.81 1218.96L1132.75 1217.35L1137.71 1224H1135.58ZM1143.29 1224.2C1142.55 1224.2 1141.89 1224.07 1141.29 1223.82C1140.69 1223.57 1140.18 1223.22 1139.75 1222.76C1139.33 1222.3 1139.01 1221.76 1138.78 1221.14C1138.55 1220.51 1138.44 1219.83 1138.44 1219.09V1218.68C1138.44 1217.82 1138.56 1217.05 1138.82 1216.38C1139.07 1215.71 1139.42 1215.13 1139.85 1214.66C1140.29 1214.2 1140.78 1213.84 1141.34 1213.6C1141.89 1213.36 1142.46 1213.24 1143.05 1213.24C1143.81 1213.24 1144.46 1213.37 1145.01 1213.63C1145.56 1213.89 1146.01 1214.25 1146.37 1214.72C1146.72 1215.18 1146.98 1215.73 1147.15 1216.36C1147.32 1216.99 1147.4 1217.67 1147.4 1218.41V1219.22H1139.51V1217.75H1145.59V1217.61C1145.57 1217.14 1145.47 1216.69 1145.3 1216.25C1145.14 1215.8 1144.88 1215.44 1144.52 1215.15C1144.16 1214.87 1143.67 1214.72 1143.05 1214.72C1142.64 1214.72 1142.27 1214.81 1141.92 1214.99C1141.58 1215.16 1141.28 1215.41 1141.03 1215.75C1140.79 1216.09 1140.59 1216.5 1140.46 1216.99C1140.32 1217.48 1140.25 1218.04 1140.25 1218.68V1219.09C1140.25 1219.59 1140.32 1220.06 1140.46 1220.5C1140.6 1220.94 1140.81 1221.32 1141.07 1221.66C1141.35 1221.99 1141.67 1222.25 1142.06 1222.44C1142.45 1222.63 1142.89 1222.72 1143.39 1222.72C1144.02 1222.72 1144.57 1222.59 1145.01 1222.33C1145.45 1222.07 1145.84 1221.72 1146.17 1221.29L1147.26 1222.15C1147.04 1222.5 1146.75 1222.83 1146.39 1223.14C1146.04 1223.45 1145.61 1223.71 1145.1 1223.9C1144.59 1224.1 1143.99 1224.2 1143.29 1224.2ZM1156.27 1215.53V1224H1154.45V1213.43H1156.17L1156.27 1215.53ZM1155.9 1218.32L1155.06 1218.29C1155.06 1217.56 1155.16 1216.9 1155.34 1216.29C1155.52 1215.67 1155.79 1215.13 1156.15 1214.67C1156.51 1214.22 1156.95 1213.87 1157.49 1213.62C1158.02 1213.37 1158.64 1213.24 1159.34 1213.24C1159.84 1213.24 1160.29 1213.31 1160.71 1213.45C1161.13 1213.59 1161.49 1213.81 1161.79 1214.11C1162.1 1214.41 1162.34 1214.79 1162.51 1215.26C1162.68 1215.73 1162.76 1216.29 1162.76 1216.96V1224H1160.96V1217.05C1160.96 1216.49 1160.86 1216.05 1160.67 1215.72C1160.49 1215.39 1160.23 1215.15 1159.89 1215C1159.55 1214.84 1159.15 1214.76 1158.7 1214.76C1158.17 1214.76 1157.72 1214.86 1157.36 1215.04C1157 1215.23 1156.72 1215.49 1156.5 1215.83C1156.29 1216.16 1156.13 1216.54 1156.03 1216.97C1155.94 1217.39 1155.9 1217.84 1155.9 1218.32ZM1162.74 1217.32L1161.53 1217.69C1161.54 1217.11 1161.63 1216.56 1161.81 1216.02C1162 1215.49 1162.27 1215.01 1162.62 1214.6C1162.98 1214.18 1163.42 1213.85 1163.94 1213.61C1164.46 1213.36 1165.06 1213.24 1165.73 1213.24C1166.3 1213.24 1166.8 1213.31 1167.23 1213.46C1167.68 1213.61 1168.05 1213.84 1168.35 1214.16C1168.65 1214.46 1168.88 1214.86 1169.04 1215.34C1169.2 1215.82 1169.28 1216.39 1169.28 1217.06V1224H1167.46V1217.04C1167.46 1216.44 1167.36 1215.99 1167.18 1215.66C1166.99 1215.33 1166.73 1215.1 1166.39 1214.97C1166.06 1214.83 1165.67 1214.76 1165.2 1214.76C1164.81 1214.76 1164.45 1214.83 1164.15 1214.97C1163.84 1215.1 1163.59 1215.29 1163.38 1215.53C1163.17 1215.77 1163.01 1216.04 1162.9 1216.34C1162.79 1216.65 1162.74 1216.98 1162.74 1217.32ZM1176.39 1224.2C1175.66 1224.2 1174.99 1224.07 1174.39 1223.82C1173.8 1223.57 1173.29 1223.22 1172.86 1222.76C1172.44 1222.3 1172.11 1221.76 1171.88 1221.14C1171.65 1220.51 1171.54 1219.83 1171.54 1219.09V1218.68C1171.54 1217.82 1171.67 1217.05 1171.92 1216.38C1172.18 1215.71 1172.52 1215.13 1172.96 1214.66C1173.39 1214.2 1173.89 1213.84 1174.44 1213.6C1174.99 1213.36 1175.57 1213.24 1176.16 1213.24C1176.92 1213.24 1177.57 1213.37 1178.11 1213.63C1178.67 1213.89 1179.12 1214.25 1179.47 1214.72C1179.82 1215.18 1180.08 1215.73 1180.25 1216.36C1180.42 1216.99 1180.51 1217.67 1180.51 1218.41V1219.22H1172.62V1217.75H1178.7V1217.61C1178.67 1217.14 1178.58 1216.69 1178.41 1216.25C1178.24 1215.8 1177.98 1215.44 1177.62 1215.15C1177.27 1214.87 1176.78 1214.72 1176.16 1214.72C1175.75 1214.72 1175.37 1214.81 1175.03 1214.99C1174.68 1215.16 1174.39 1215.41 1174.14 1215.75C1173.89 1216.09 1173.7 1216.5 1173.56 1216.99C1173.43 1217.48 1173.36 1218.04 1173.36 1218.68V1219.09C1173.36 1219.59 1173.43 1220.06 1173.56 1220.5C1173.71 1220.94 1173.91 1221.32 1174.18 1221.66C1174.45 1221.99 1174.78 1222.25 1175.16 1222.44C1175.55 1222.63 1176 1222.72 1176.49 1222.72C1177.13 1222.72 1177.67 1222.59 1178.11 1222.33C1178.56 1222.07 1178.94 1221.72 1179.28 1221.29L1180.37 1222.15C1180.14 1222.5 1179.85 1222.83 1179.5 1223.14C1179.15 1223.45 1178.72 1223.71 1178.2 1223.9C1177.69 1224.1 1177.09 1224.2 1176.39 1224.2ZM1189.28 1221.95V1209H1191.09V1224H1189.43L1189.28 1221.95ZM1182.17 1218.83V1218.63C1182.17 1217.82 1182.26 1217.09 1182.46 1216.43C1182.66 1215.77 1182.94 1215.2 1183.31 1214.72C1183.68 1214.25 1184.12 1213.88 1184.63 1213.63C1185.14 1213.37 1185.71 1213.24 1186.35 1213.24C1187.01 1213.24 1187.59 1213.36 1188.08 1213.59C1188.59 1213.82 1189.01 1214.15 1189.35 1214.6C1189.71 1215.03 1189.98 1215.56 1190.18 1216.18C1190.39 1216.8 1190.53 1217.5 1190.6 1218.28V1219.18C1190.53 1219.95 1190.39 1220.65 1190.18 1221.27C1189.98 1221.88 1189.71 1222.41 1189.35 1222.85C1189.01 1223.28 1188.59 1223.62 1188.08 1223.85C1187.58 1224.08 1187 1224.2 1186.33 1224.2C1185.71 1224.2 1185.14 1224.06 1184.63 1223.79C1184.12 1223.53 1183.68 1223.15 1183.31 1222.67C1182.94 1222.19 1182.66 1221.62 1182.46 1220.97C1182.26 1220.32 1182.17 1219.6 1182.17 1218.83ZM1183.98 1218.63V1218.83C1183.98 1219.36 1184.03 1219.86 1184.14 1220.32C1184.25 1220.78 1184.42 1221.19 1184.65 1221.54C1184.87 1221.89 1185.16 1222.17 1185.52 1222.37C1185.87 1222.56 1186.29 1222.66 1186.78 1222.66C1187.37 1222.66 1187.87 1222.54 1188.25 1222.28C1188.64 1222.03 1188.95 1221.69 1189.19 1221.28C1189.42 1220.86 1189.6 1220.41 1189.73 1219.92V1217.56C1189.66 1217.21 1189.54 1216.86 1189.39 1216.53C1189.25 1216.19 1189.06 1215.89 1188.83 1215.63C1188.6 1215.36 1188.32 1215.15 1187.98 1215C1187.64 1214.84 1187.25 1214.76 1186.79 1214.76C1186.3 1214.76 1185.87 1214.87 1185.52 1215.07C1185.16 1215.28 1184.87 1215.56 1184.65 1215.91C1184.42 1216.27 1184.25 1216.68 1184.14 1217.14C1184.03 1217.61 1183.98 1218.1 1183.98 1218.63ZM1195.87 1209V1224H1194.05V1209H1195.87ZM1203.15 1224.2C1202.42 1224.2 1201.75 1224.07 1201.15 1223.82C1200.56 1223.57 1200.05 1223.22 1199.62 1222.76C1199.19 1222.3 1198.87 1221.76 1198.64 1221.14C1198.41 1220.51 1198.3 1219.83 1198.3 1219.09V1218.68C1198.3 1217.82 1198.43 1217.05 1198.68 1216.38C1198.93 1215.71 1199.28 1215.13 1199.71 1214.66C1200.15 1214.2 1200.65 1213.84 1201.2 1213.6C1201.75 1213.36 1202.33 1213.24 1202.92 1213.24C1203.67 1213.24 1204.32 1213.37 1204.87 1213.63C1205.42 1213.89 1205.88 1214.25 1206.23 1214.72C1206.58 1215.18 1206.84 1215.73 1207.01 1216.36C1207.18 1216.99 1207.26 1217.67 1207.26 1218.41V1219.22H1199.37V1217.75H1205.46V1217.61C1205.43 1217.14 1205.33 1216.69 1205.16 1216.25C1205 1215.8 1204.74 1215.44 1204.38 1215.15C1204.02 1214.87 1203.54 1214.72 1202.92 1214.72C1202.51 1214.72 1202.13 1214.81 1201.79 1214.99C1201.44 1215.16 1201.14 1215.41 1200.9 1215.75C1200.65 1216.09 1200.46 1216.5 1200.32 1216.99C1200.18 1217.48 1200.12 1218.04 1200.12 1218.68V1219.09C1200.12 1219.59 1200.18 1220.06 1200.32 1220.5C1200.46 1220.94 1200.67 1221.32 1200.94 1221.66C1201.21 1221.99 1201.54 1222.25 1201.92 1222.44C1202.31 1222.63 1202.76 1222.72 1203.25 1222.72C1203.89 1222.72 1204.43 1222.59 1204.87 1222.33C1205.31 1222.07 1205.7 1221.72 1206.03 1221.29L1207.13 1222.15C1206.9 1222.5 1206.61 1222.83 1206.26 1223.14C1205.91 1223.45 1205.47 1223.71 1204.96 1223.9C1204.45 1224.1 1203.85 1224.2 1203.15 1224.2ZM1211.17 1215.53V1224H1209.35V1213.43H1211.07L1211.17 1215.53ZM1210.8 1218.32L1209.96 1218.29C1209.97 1217.56 1210.06 1216.9 1210.24 1216.29C1210.42 1215.67 1210.69 1215.13 1211.05 1214.67C1211.41 1214.22 1211.86 1213.87 1212.39 1213.62C1212.92 1213.37 1213.54 1213.24 1214.25 1213.24C1214.74 1213.24 1215.2 1213.31 1215.61 1213.45C1216.03 1213.59 1216.39 1213.81 1216.7 1214.11C1217 1214.41 1217.24 1214.79 1217.41 1215.26C1217.58 1215.73 1217.66 1216.29 1217.66 1216.96V1224H1215.86V1217.05C1215.86 1216.49 1215.76 1216.05 1215.57 1215.72C1215.39 1215.39 1215.13 1215.15 1214.79 1215C1214.45 1214.84 1214.06 1214.76 1213.6 1214.76C1213.07 1214.76 1212.62 1214.86 1212.26 1215.04C1211.91 1215.23 1211.62 1215.49 1211.4 1215.83C1211.19 1216.16 1211.03 1216.54 1210.94 1216.97C1210.84 1217.39 1210.8 1217.84 1210.8 1218.32ZM1217.64 1217.32L1216.43 1217.69C1216.44 1217.11 1216.53 1216.56 1216.72 1216.02C1216.91 1215.49 1217.18 1215.01 1217.53 1214.6C1217.89 1214.18 1218.32 1213.85 1218.85 1213.61C1219.37 1213.36 1219.96 1213.24 1220.63 1213.24C1221.2 1213.24 1221.7 1213.31 1222.14 1213.46C1222.58 1213.61 1222.95 1213.84 1223.25 1214.16C1223.56 1214.46 1223.79 1214.86 1223.94 1215.34C1224.1 1215.82 1224.18 1216.39 1224.18 1217.06V1224H1222.36V1217.04C1222.36 1216.44 1222.27 1215.99 1222.08 1215.66C1221.9 1215.33 1221.64 1215.1 1221.3 1214.97C1220.96 1214.83 1220.57 1214.76 1220.11 1214.76C1219.71 1214.76 1219.36 1214.83 1219.05 1214.97C1218.74 1215.1 1218.49 1215.29 1218.28 1215.53C1218.07 1215.77 1217.91 1216.04 1217.8 1216.34C1217.7 1216.65 1217.64 1216.98 1217.64 1217.32ZM1228.71 1215.53V1224H1226.89V1213.43H1228.61L1228.71 1215.53ZM1228.34 1218.32L1227.5 1218.29C1227.5 1217.56 1227.6 1216.9 1227.78 1216.29C1227.96 1215.67 1228.23 1215.13 1228.59 1214.67C1228.95 1214.22 1229.4 1213.87 1229.93 1213.62C1230.46 1213.37 1231.08 1213.24 1231.79 1213.24C1232.28 1213.24 1232.74 1213.31 1233.15 1213.45C1233.57 1213.59 1233.93 1213.81 1234.24 1214.11C1234.54 1214.41 1234.78 1214.79 1234.95 1215.26C1235.12 1215.73 1235.2 1216.29 1235.2 1216.96V1224H1233.4V1217.05C1233.4 1216.49 1233.3 1216.05 1233.11 1215.72C1232.93 1215.39 1232.67 1215.15 1232.33 1215C1231.99 1214.84 1231.6 1214.76 1231.14 1214.76C1230.61 1214.76 1230.16 1214.86 1229.8 1215.04C1229.44 1215.23 1229.16 1215.49 1228.94 1215.83C1228.73 1216.16 1228.57 1216.54 1228.47 1216.97C1228.38 1217.39 1228.34 1217.84 1228.34 1218.32ZM1235.18 1217.32L1233.97 1217.69C1233.98 1217.11 1234.07 1216.56 1234.26 1216.02C1234.44 1215.49 1234.71 1215.01 1235.07 1214.6C1235.42 1214.18 1235.86 1213.85 1236.38 1213.61C1236.91 1213.36 1237.5 1213.24 1238.17 1213.24C1238.74 1213.24 1239.24 1213.31 1239.68 1213.46C1240.12 1213.61 1240.49 1213.84 1240.79 1214.16C1241.1 1214.46 1241.33 1214.86 1241.48 1215.34C1241.64 1215.82 1241.72 1216.39 1241.72 1217.06V1224H1239.9V1217.04C1239.9 1216.44 1239.81 1215.99 1239.62 1215.66C1239.43 1215.33 1239.17 1215.1 1238.84 1214.97C1238.5 1214.83 1238.11 1214.76 1237.64 1214.76C1237.25 1214.76 1236.9 1214.83 1236.59 1214.97C1236.28 1215.1 1236.03 1215.29 1235.82 1215.53C1235.61 1215.77 1235.45 1216.04 1235.34 1216.34C1235.24 1216.65 1235.18 1216.98 1235.18 1217.32ZM1248.84 1224.2C1248.1 1224.2 1247.43 1224.07 1246.83 1223.82C1246.24 1223.57 1245.73 1223.22 1245.3 1222.76C1244.88 1222.3 1244.55 1221.76 1244.32 1221.14C1244.1 1220.51 1243.98 1219.83 1243.98 1219.09V1218.68C1243.98 1217.82 1244.11 1217.05 1244.36 1216.38C1244.62 1215.71 1244.96 1215.13 1245.4 1214.66C1245.83 1214.2 1246.33 1213.84 1246.88 1213.6C1247.44 1213.36 1248.01 1213.24 1248.6 1213.24C1249.36 1213.24 1250.01 1213.37 1250.55 1213.63C1251.11 1213.89 1251.56 1214.25 1251.91 1214.72C1252.26 1215.18 1252.52 1215.73 1252.69 1216.36C1252.86 1216.99 1252.95 1217.67 1252.95 1218.41V1219.22H1245.06V1217.75H1251.14V1217.61C1251.11 1217.14 1251.02 1216.69 1250.85 1216.25C1250.68 1215.8 1250.42 1215.44 1250.07 1215.15C1249.71 1214.87 1249.22 1214.72 1248.6 1214.72C1248.19 1214.72 1247.81 1214.81 1247.47 1214.99C1247.12 1215.16 1246.83 1215.41 1246.58 1215.75C1246.33 1216.09 1246.14 1216.5 1246 1216.99C1245.87 1217.48 1245.8 1218.04 1245.8 1218.68V1219.09C1245.8 1219.59 1245.87 1220.06 1246 1220.5C1246.15 1220.94 1246.35 1221.32 1246.62 1221.66C1246.89 1221.99 1247.22 1222.25 1247.61 1222.44C1248 1222.63 1248.44 1222.72 1248.93 1222.72C1249.57 1222.72 1250.11 1222.59 1250.55 1222.33C1251 1222.07 1251.38 1221.72 1251.72 1221.29L1252.81 1222.15C1252.58 1222.5 1252.29 1222.83 1251.94 1223.14C1251.59 1223.45 1251.16 1223.71 1250.64 1223.9C1250.13 1224.1 1249.53 1224.2 1248.84 1224.2ZM1256.86 1215.09V1224H1255.06V1213.43H1256.81L1256.86 1215.09ZM1260.16 1213.38L1260.15 1215.05C1260 1215.02 1259.86 1215 1259.72 1215C1259.59 1214.98 1259.44 1214.98 1259.28 1214.98C1258.86 1214.98 1258.49 1215.04 1258.17 1215.17C1257.85 1215.3 1257.58 1215.48 1257.36 1215.72C1257.14 1215.95 1256.96 1216.23 1256.83 1216.56C1256.71 1216.88 1256.63 1217.23 1256.59 1217.61L1256.08 1217.91C1256.08 1217.27 1256.14 1216.67 1256.27 1216.11C1256.4 1215.55 1256.6 1215.05 1256.86 1214.62C1257.13 1214.19 1257.47 1213.85 1257.88 1213.61C1258.3 1213.36 1258.79 1213.24 1259.36 1213.24C1259.49 1213.24 1259.64 1213.25 1259.81 1213.29C1259.98 1213.31 1260.1 1213.34 1260.16 1213.38Z" fill="black"/>
<path d="M963 1206H1083V1229H963V1206Z" fill="#3E1A8B"/>
</svg>
