<svg width="299" height="144" viewBox="0 0 299 144" fill="none" xmlns="http://www.w3.org/2000/svg">
<rect y="5" width="120" height="23" fill="#FF0D0D"/>
<rect y="42" width="120" height="23" fill="#3AD062"/>
<path d="M156.656 10.041L151.949 23H150.025L155.445 8.78125H156.686L156.656 10.041ZM160.602 23L155.885 10.041L155.855 8.78125H157.096L162.535 23H160.602ZM160.357 17.7363V19.2793H152.369V17.7363H160.357ZM165.973 14.6895V23H164.166V12.4336H165.875L165.973 14.6895ZM165.543 17.3164L164.791 17.2871C164.798 16.5645 164.905 15.8971 165.113 15.2852C165.322 14.6667 165.615 14.1296 165.992 13.6738C166.37 13.2181 166.819 12.8665 167.34 12.6191C167.867 12.3652 168.45 12.2383 169.088 12.2383C169.609 12.2383 170.077 12.3099 170.494 12.4531C170.911 12.5898 171.266 12.8112 171.559 13.1172C171.858 13.4232 172.086 13.8203 172.242 14.3086C172.398 14.7904 172.477 15.3796 172.477 16.0762V23H170.66V16.0566C170.66 15.5033 170.579 15.0605 170.416 14.7285C170.253 14.39 170.016 14.1458 169.703 13.9961C169.391 13.8398 169.007 13.7617 168.551 13.7617C168.102 13.7617 167.691 13.8561 167.32 14.0449C166.956 14.2337 166.64 14.4941 166.373 14.8262C166.113 15.1582 165.908 15.5391 165.758 15.9688C165.615 16.3919 165.543 16.8411 165.543 17.3164ZM179.645 12.4336V13.8203H173.932V12.4336H179.645ZM175.865 9.86523H177.672V20.3828C177.672 20.7409 177.727 21.0111 177.838 21.1934C177.949 21.3757 178.092 21.4961 178.268 21.5547C178.443 21.6133 178.632 21.6426 178.834 21.6426C178.984 21.6426 179.14 21.6296 179.303 21.6035C179.472 21.571 179.599 21.5449 179.684 21.5254L179.693 23C179.55 23.0456 179.361 23.0879 179.127 23.127C178.899 23.1725 178.622 23.1953 178.297 23.1953C177.854 23.1953 177.447 23.1074 177.076 22.9316C176.705 22.7559 176.409 22.4629 176.188 22.0527C175.973 21.6361 175.865 21.0762 175.865 20.373V9.86523ZM187.994 21.1934V15.7539C187.994 15.3372 187.91 14.9759 187.74 14.6699C187.577 14.3574 187.33 14.1165 186.998 13.9473C186.666 13.778 186.256 13.6934 185.768 13.6934C185.312 13.6934 184.911 13.7715 184.566 13.9277C184.228 14.084 183.961 14.2891 183.766 14.543C183.577 14.7969 183.482 15.0703 183.482 15.3633H181.676C181.676 14.9857 181.773 14.6113 181.969 14.2402C182.164 13.8691 182.444 13.5339 182.809 13.2344C183.18 12.9284 183.622 12.6875 184.137 12.5117C184.658 12.3294 185.237 12.2383 185.875 12.2383C186.643 12.2383 187.32 12.3685 187.906 12.6289C188.499 12.8893 188.961 13.2832 189.293 13.8105C189.632 14.3314 189.801 14.9857 189.801 15.7734V20.6953C189.801 21.0469 189.83 21.4212 189.889 21.8184C189.954 22.2155 190.048 22.5573 190.172 22.8438V23H188.287C188.196 22.7917 188.124 22.515 188.072 22.1699C188.02 21.8184 187.994 21.4928 187.994 21.1934ZM188.307 16.5938L188.326 17.8633H186.5C185.986 17.8633 185.527 17.9056 185.123 17.9902C184.719 18.0684 184.381 18.1888 184.107 18.3516C183.834 18.5143 183.626 18.7194 183.482 18.9668C183.339 19.2077 183.268 19.4909 183.268 19.8164C183.268 20.1484 183.342 20.4512 183.492 20.7246C183.642 20.998 183.867 21.2161 184.166 21.3789C184.472 21.5352 184.846 21.6133 185.289 21.6133C185.842 21.6133 186.331 21.4961 186.754 21.2617C187.177 21.0273 187.512 20.7409 187.76 20.4023C188.014 20.0638 188.15 19.735 188.17 19.416L188.941 20.2852C188.896 20.5586 188.772 20.8613 188.57 21.1934C188.368 21.5254 188.098 21.8444 187.76 22.1504C187.428 22.4499 187.031 22.7005 186.568 22.9023C186.113 23.0977 185.598 23.1953 185.025 23.1953C184.309 23.1953 183.681 23.0553 183.141 22.7754C182.607 22.4954 182.19 22.1211 181.891 21.6523C181.598 21.1771 181.451 20.6465 181.451 20.0605C181.451 19.4941 181.562 18.9961 181.783 18.5664C182.005 18.1302 182.324 17.7689 182.74 17.4824C183.157 17.1895 183.658 16.9681 184.244 16.8184C184.83 16.6686 185.484 16.5938 186.207 16.5938H188.307ZM194.605 8V23H192.789V8H194.605ZM204.43 12.4336V23H202.613V12.4336H204.43ZM202.477 9.63086C202.477 9.33789 202.564 9.09049 202.74 8.88867C202.923 8.68685 203.189 8.58594 203.541 8.58594C203.886 8.58594 204.15 8.68685 204.332 8.88867C204.521 9.09049 204.615 9.33789 204.615 9.63086C204.615 9.91081 204.521 10.1517 204.332 10.3535C204.15 10.5488 203.886 10.6465 203.541 10.6465C203.189 10.6465 202.923 10.5488 202.74 10.3535C202.564 10.1517 202.477 9.91081 202.477 9.63086ZM209.137 14.6895V23H207.33V12.4336H209.039L209.137 14.6895ZM208.707 17.3164L207.955 17.2871C207.962 16.5645 208.069 15.8971 208.277 15.2852C208.486 14.6667 208.779 14.1296 209.156 13.6738C209.534 13.2181 209.983 12.8665 210.504 12.6191C211.031 12.3652 211.614 12.2383 212.252 12.2383C212.773 12.2383 213.242 12.3099 213.658 12.4531C214.075 12.5898 214.43 12.8112 214.723 13.1172C215.022 13.4232 215.25 13.8203 215.406 14.3086C215.562 14.7904 215.641 15.3796 215.641 16.0762V23H213.824V16.0566C213.824 15.5033 213.743 15.0605 213.58 14.7285C213.417 14.39 213.18 14.1458 212.867 13.9961C212.555 13.8398 212.171 13.7617 211.715 13.7617C211.266 13.7617 210.855 13.8561 210.484 14.0449C210.12 14.2337 209.804 14.4941 209.537 14.8262C209.277 15.1582 209.072 15.5391 208.922 15.9688C208.779 16.3919 208.707 16.8411 208.707 17.3164ZM225.045 20.9492V8H226.861V23H225.201L225.045 20.9492ZM217.936 17.834V17.6289C217.936 16.8216 218.033 16.0892 218.229 15.4316C218.43 14.7676 218.714 14.1979 219.078 13.7227C219.449 13.2474 219.889 12.8828 220.396 12.6289C220.911 12.3685 221.484 12.2383 222.115 12.2383C222.779 12.2383 223.359 12.3555 223.854 12.5898C224.355 12.8177 224.778 13.153 225.123 13.5957C225.475 14.0319 225.751 14.5592 225.953 15.1777C226.155 15.7962 226.295 16.4961 226.373 17.2773V18.1758C226.301 18.9505 226.161 19.6471 225.953 20.2656C225.751 20.8841 225.475 21.4115 225.123 21.8477C224.778 22.2839 224.355 22.6191 223.854 22.8535C223.352 23.0814 222.766 23.1953 222.096 23.1953C221.477 23.1953 220.911 23.0618 220.396 22.7949C219.889 22.528 219.449 22.1536 219.078 21.6719C218.714 21.1901 218.43 20.6237 218.229 19.9727C218.033 19.3151 217.936 18.6022 217.936 17.834ZM219.752 17.6289V17.834C219.752 18.3613 219.804 18.8561 219.908 19.3184C220.019 19.7806 220.188 20.1875 220.416 20.5391C220.644 20.8906 220.934 21.1673 221.285 21.3691C221.637 21.5645 222.057 21.6621 222.545 21.6621C223.144 21.6621 223.635 21.5352 224.02 21.2812C224.41 21.0273 224.723 20.6921 224.957 20.2754C225.191 19.8587 225.374 19.4062 225.504 18.918V16.5645C225.426 16.2064 225.312 15.8613 225.162 15.5293C225.019 15.1908 224.83 14.8913 224.596 14.6309C224.368 14.3639 224.085 14.1523 223.746 13.9961C223.414 13.8398 223.02 13.7617 222.564 13.7617C222.07 13.7617 221.643 13.8659 221.285 14.0742C220.934 14.276 220.644 14.556 220.416 14.9141C220.188 15.2656 220.019 15.6758 219.908 16.1445C219.804 16.6068 219.752 17.1016 219.752 17.6289ZM229.664 8H231.48V20.9492L231.324 23H229.664V8ZM238.619 17.6289V17.834C238.619 18.6022 238.528 19.3151 238.346 19.9727C238.163 20.6237 237.896 21.1901 237.545 21.6719C237.193 22.1536 236.764 22.528 236.256 22.7949C235.748 23.0618 235.165 23.1953 234.508 23.1953C233.837 23.1953 233.248 23.0814 232.74 22.8535C232.239 22.6191 231.816 22.2839 231.471 21.8477C231.126 21.4115 230.849 20.8841 230.641 20.2656C230.439 19.6471 230.299 18.9505 230.221 18.1758V17.2773C230.299 16.4961 230.439 15.7962 230.641 15.1777C230.849 14.5592 231.126 14.0319 231.471 13.5957C231.816 13.153 232.239 12.8177 232.74 12.5898C233.242 12.3555 233.824 12.2383 234.488 12.2383C235.152 12.2383 235.742 12.3685 236.256 12.6289C236.77 12.8828 237.2 13.2474 237.545 13.7227C237.896 14.1979 238.163 14.7676 238.346 15.4316C238.528 16.0892 238.619 16.8216 238.619 17.6289ZM236.803 17.834V17.6289C236.803 17.1016 236.754 16.6068 236.656 16.1445C236.559 15.6758 236.402 15.2656 236.188 14.9141C235.973 14.556 235.689 14.276 235.338 14.0742C234.986 13.8659 234.553 13.7617 234.039 13.7617C233.583 13.7617 233.186 13.8398 232.848 13.9961C232.516 14.1523 232.232 14.3639 231.998 14.6309C231.764 14.8913 231.572 15.1908 231.422 15.5293C231.279 15.8613 231.171 16.2064 231.1 16.5645V18.918C231.204 19.3737 231.373 19.8132 231.607 20.2363C231.848 20.653 232.167 20.9948 232.564 21.2617C232.968 21.5286 233.466 21.6621 234.059 21.6621C234.547 21.6621 234.964 21.5645 235.309 21.3691C235.66 21.1673 235.943 20.8906 236.158 20.5391C236.38 20.1875 236.542 19.7806 236.646 19.3184C236.751 18.8561 236.803 18.3613 236.803 17.834ZM243.756 21.9062L246.695 12.4336H248.629L244.391 24.6309C244.293 24.8913 244.163 25.1712 244 25.4707C243.844 25.7767 243.642 26.0664 243.395 26.3398C243.147 26.6133 242.848 26.8346 242.496 27.0039C242.151 27.1797 241.738 27.2676 241.256 27.2676C241.113 27.2676 240.93 27.248 240.709 27.209C240.488 27.1699 240.331 27.1374 240.24 27.1113L240.23 25.6465C240.283 25.653 240.364 25.6595 240.475 25.666C240.592 25.679 240.673 25.6855 240.719 25.6855C241.129 25.6855 241.477 25.6302 241.764 25.5195C242.05 25.4154 242.291 25.2363 242.486 24.9824C242.688 24.735 242.861 24.3932 243.004 23.957L243.756 21.9062ZM241.598 12.4336L244.342 20.6367L244.811 22.541L243.512 23.2051L239.625 12.4336H241.598ZM256.969 12.4336H258.609V22.7754C258.609 23.7064 258.421 24.5007 258.043 25.1582C257.665 25.8158 257.138 26.3138 256.461 26.6523C255.79 26.9974 255.016 27.1699 254.137 27.1699C253.772 27.1699 253.342 27.1113 252.848 26.9941C252.359 26.8835 251.878 26.6914 251.402 26.418C250.934 26.151 250.54 25.7897 250.221 25.334L251.168 24.2598C251.611 24.7936 252.073 25.1647 252.555 25.373C253.043 25.5814 253.525 25.6855 254 25.6855C254.573 25.6855 255.068 25.5781 255.484 25.3633C255.901 25.1484 256.223 24.8294 256.451 24.4062C256.686 23.9896 256.803 23.4753 256.803 22.8633V14.7578L256.969 12.4336ZM249.693 17.834V17.6289C249.693 16.8216 249.788 16.0892 249.977 15.4316C250.172 14.7676 250.449 14.1979 250.807 13.7227C251.171 13.2474 251.611 12.8828 252.125 12.6289C252.639 12.3685 253.219 12.2383 253.863 12.2383C254.527 12.2383 255.107 12.3555 255.602 12.5898C256.103 12.8177 256.526 13.153 256.871 13.5957C257.223 14.0319 257.499 14.5592 257.701 15.1777C257.903 15.7962 258.043 16.4961 258.121 17.2773V18.1758C258.049 18.9505 257.91 19.6471 257.701 20.2656C257.499 20.8841 257.223 21.4115 256.871 21.8477C256.526 22.2839 256.103 22.6191 255.602 22.8535C255.1 23.0814 254.514 23.1953 253.844 23.1953C253.212 23.1953 252.639 23.0618 252.125 22.7949C251.617 22.528 251.181 22.1536 250.816 21.6719C250.452 21.1901 250.172 20.6237 249.977 19.9727C249.788 19.3151 249.693 18.6022 249.693 17.834ZM251.5 17.6289V17.834C251.5 18.3613 251.552 18.8561 251.656 19.3184C251.767 19.7806 251.933 20.1875 252.154 20.5391C252.382 20.8906 252.672 21.1673 253.023 21.3691C253.375 21.5645 253.795 21.6621 254.283 21.6621C254.882 21.6621 255.377 21.5352 255.768 21.2812C256.158 21.0273 256.467 20.6921 256.695 20.2754C256.93 19.8587 257.112 19.4062 257.242 18.918V16.5645C257.171 16.2064 257.06 15.8613 256.91 15.5293C256.767 15.1908 256.578 14.8913 256.344 14.6309C256.116 14.3639 255.833 14.1523 255.494 13.9961C255.156 13.8398 254.758 13.7617 254.303 13.7617C253.808 13.7617 253.382 13.8659 253.023 14.0742C252.672 14.276 252.382 14.556 252.154 14.9141C251.933 15.2656 251.767 15.6758 251.656 16.1445C251.552 16.6068 251.5 17.1016 251.5 17.6289ZM268.199 12.4336H269.84V22.7754C269.84 23.7064 269.651 24.5007 269.273 25.1582C268.896 25.8158 268.368 26.3138 267.691 26.6523C267.021 26.9974 266.246 27.1699 265.367 27.1699C265.003 27.1699 264.573 27.1113 264.078 26.9941C263.59 26.8835 263.108 26.6914 262.633 26.418C262.164 26.151 261.77 25.7897 261.451 25.334L262.398 24.2598C262.841 24.7936 263.303 25.1647 263.785 25.373C264.273 25.5814 264.755 25.6855 265.23 25.6855C265.803 25.6855 266.298 25.5781 266.715 25.3633C267.132 25.1484 267.454 24.8294 267.682 24.4062C267.916 23.9896 268.033 23.4753 268.033 22.8633V14.7578L268.199 12.4336ZM260.924 17.834V17.6289C260.924 16.8216 261.018 16.0892 261.207 15.4316C261.402 14.7676 261.679 14.1979 262.037 13.7227C262.402 13.2474 262.841 12.8828 263.355 12.6289C263.87 12.3685 264.449 12.2383 265.094 12.2383C265.758 12.2383 266.337 12.3555 266.832 12.5898C267.333 12.8177 267.757 13.153 268.102 13.5957C268.453 14.0319 268.73 14.5592 268.932 15.1777C269.133 15.7962 269.273 16.4961 269.352 17.2773V18.1758C269.28 18.9505 269.14 19.6471 268.932 20.2656C268.73 20.8841 268.453 21.4115 268.102 21.8477C267.757 22.2839 267.333 22.6191 266.832 22.8535C266.331 23.0814 265.745 23.1953 265.074 23.1953C264.443 23.1953 263.87 23.0618 263.355 22.7949C262.848 22.528 262.411 22.1536 262.047 21.6719C261.682 21.1901 261.402 20.6237 261.207 19.9727C261.018 19.3151 260.924 18.6022 260.924 17.834ZM262.73 17.6289V17.834C262.73 18.3613 262.783 18.8561 262.887 19.3184C262.997 19.7806 263.163 20.1875 263.385 20.5391C263.613 20.8906 263.902 21.1673 264.254 21.3691C264.605 21.5645 265.025 21.6621 265.514 21.6621C266.113 21.6621 266.607 21.5352 266.998 21.2812C267.389 21.0273 267.698 20.6921 267.926 20.2754C268.16 19.8587 268.342 19.4062 268.473 18.918V16.5645C268.401 16.2064 268.29 15.8613 268.141 15.5293C267.997 15.1908 267.809 14.8913 267.574 14.6309C267.346 14.3639 267.063 14.1523 266.725 13.9961C266.386 13.8398 265.989 13.7617 265.533 13.7617C265.038 13.7617 264.612 13.8659 264.254 14.0742C263.902 14.276 263.613 14.556 263.385 14.9141C263.163 15.2656 262.997 15.6758 262.887 16.1445C262.783 16.6068 262.73 17.1016 262.73 17.6289ZM276.969 23.1953C276.233 23.1953 275.566 23.0716 274.967 22.8242C274.374 22.5703 273.863 22.2155 273.434 21.7598C273.01 21.304 272.685 20.7637 272.457 20.1387C272.229 19.5137 272.115 18.8301 272.115 18.0879V17.6777C272.115 16.8184 272.242 16.0534 272.496 15.3828C272.75 14.7057 273.095 14.1328 273.531 13.6641C273.967 13.1953 274.462 12.8405 275.016 12.5996C275.569 12.3587 276.142 12.2383 276.734 12.2383C277.49 12.2383 278.141 12.3685 278.688 12.6289C279.241 12.8893 279.693 13.2539 280.045 13.7227C280.396 14.1849 280.657 14.7318 280.826 15.3633C280.995 15.9883 281.08 16.6719 281.08 17.4141V18.2246H273.189V16.75H279.273V16.6133C279.247 16.1445 279.15 15.6888 278.98 15.2461C278.818 14.8034 278.557 14.4388 278.199 14.1523C277.841 13.8659 277.353 13.7227 276.734 13.7227C276.324 13.7227 275.947 13.8105 275.602 13.9863C275.257 14.1556 274.96 14.4095 274.713 14.748C274.465 15.0866 274.273 15.5 274.137 15.9883C274 16.4766 273.932 17.0397 273.932 17.6777V18.0879C273.932 18.5892 274 19.0612 274.137 19.5039C274.28 19.9401 274.485 20.3242 274.752 20.6562C275.025 20.9883 275.354 21.2487 275.738 21.4375C276.129 21.6263 276.572 21.7207 277.066 21.7207C277.704 21.7207 278.245 21.5905 278.688 21.3301C279.13 21.0697 279.518 20.7214 279.85 20.2852L280.943 21.1543C280.715 21.4993 280.426 21.8281 280.074 22.1406C279.723 22.4531 279.29 22.707 278.775 22.9023C278.268 23.0977 277.665 23.1953 276.969 23.1953ZM284.996 14.0938V23H283.189V12.4336H284.947L284.996 14.0938ZM288.297 12.375L288.287 14.0547C288.137 14.0221 287.994 14.0026 287.857 13.9961C287.727 13.9831 287.577 13.9766 287.408 13.9766C286.992 13.9766 286.624 14.0417 286.305 14.1719C285.986 14.3021 285.715 14.4844 285.494 14.7188C285.273 14.9531 285.097 15.2331 284.967 15.5586C284.843 15.8776 284.762 16.2292 284.723 16.6133L284.215 16.9062C284.215 16.2682 284.277 15.6693 284.4 15.1094C284.531 14.5495 284.729 14.0547 284.996 13.625C285.263 13.1888 285.602 12.8503 286.012 12.6094C286.428 12.362 286.923 12.2383 287.496 12.2383C287.626 12.2383 287.776 12.2546 287.945 12.2871C288.115 12.3132 288.232 12.3424 288.297 12.375ZM294.156 23.1953C293.421 23.1953 292.753 23.0716 292.154 22.8242C291.562 22.5703 291.051 22.2155 290.621 21.7598C290.198 21.304 289.872 20.7637 289.645 20.1387C289.417 19.5137 289.303 18.8301 289.303 18.0879V17.6777C289.303 16.8184 289.43 16.0534 289.684 15.3828C289.938 14.7057 290.283 14.1328 290.719 13.6641C291.155 13.1953 291.65 12.8405 292.203 12.5996C292.757 12.3587 293.329 12.2383 293.922 12.2383C294.677 12.2383 295.328 12.3685 295.875 12.6289C296.428 12.8893 296.881 13.2539 297.232 13.7227C297.584 14.1849 297.844 14.7318 298.014 15.3633C298.183 15.9883 298.268 16.6719 298.268 17.4141V18.2246H290.377V16.75H296.461V16.6133C296.435 16.1445 296.337 15.6888 296.168 15.2461C296.005 14.8034 295.745 14.4388 295.387 14.1523C295.029 13.8659 294.54 13.7227 293.922 13.7227C293.512 13.7227 293.134 13.8105 292.789 13.9863C292.444 14.1556 292.148 14.4095 291.9 14.748C291.653 15.0866 291.461 15.5 291.324 15.9883C291.188 16.4766 291.119 17.0397 291.119 17.6777V18.0879C291.119 18.5892 291.188 19.0612 291.324 19.5039C291.467 19.9401 291.673 20.3242 291.939 20.6562C292.213 20.9883 292.542 21.2487 292.926 21.4375C293.316 21.6263 293.759 21.7207 294.254 21.7207C294.892 21.7207 295.432 21.5905 295.875 21.3301C296.318 21.0697 296.705 20.7214 297.037 20.2852L298.131 21.1543C297.903 21.4993 297.613 21.8281 297.262 22.1406C296.91 22.4531 296.477 22.707 295.963 22.9023C295.455 23.0977 294.853 23.1953 294.156 23.1953Z" fill="black"/>
<path d="M152.246 45.7812H154.072L158.73 57.373L163.379 45.7812H165.215L159.434 60H158.008L152.246 45.7812ZM151.65 45.7812H153.262L153.525 54.4531V60H151.65V45.7812ZM164.189 45.7812H165.801V60H163.926V54.4531L164.189 45.7812ZM173.223 60.1953C172.487 60.1953 171.82 60.0716 171.221 59.8242C170.628 59.5703 170.117 59.2155 169.688 58.7598C169.264 58.304 168.939 57.7637 168.711 57.1387C168.483 56.5137 168.369 55.8301 168.369 55.0879V54.6777C168.369 53.8184 168.496 53.0534 168.75 52.3828C169.004 51.7057 169.349 51.1328 169.785 50.6641C170.221 50.1953 170.716 49.8405 171.27 49.5996C171.823 49.3587 172.396 49.2383 172.988 49.2383C173.743 49.2383 174.395 49.3685 174.941 49.6289C175.495 49.8893 175.947 50.2539 176.299 50.7227C176.65 51.1849 176.911 51.7318 177.08 52.3633C177.249 52.9883 177.334 53.6719 177.334 54.4141V55.2246H169.443V53.75H175.527V53.6133C175.501 53.1445 175.404 52.6888 175.234 52.2461C175.072 51.8034 174.811 51.4388 174.453 51.1523C174.095 50.8659 173.607 50.7227 172.988 50.7227C172.578 50.7227 172.201 50.8105 171.855 50.9863C171.51 51.1556 171.214 51.4095 170.967 51.748C170.719 52.0866 170.527 52.5 170.391 52.9883C170.254 53.4766 170.186 54.0397 170.186 54.6777V55.0879C170.186 55.5892 170.254 56.0612 170.391 56.5039C170.534 56.9401 170.739 57.3242 171.006 57.6562C171.279 57.9883 171.608 58.2487 171.992 58.4375C172.383 58.6263 172.826 58.7207 173.32 58.7207C173.958 58.7207 174.499 58.5905 174.941 58.3301C175.384 58.0697 175.771 57.7214 176.104 57.2852L177.197 58.1543C176.969 58.4993 176.68 58.8281 176.328 59.1406C175.977 59.4531 175.544 59.707 175.029 59.9023C174.521 60.0977 173.919 60.1953 173.223 60.1953ZM186.104 57.9492V45H187.92V60H186.26L186.104 57.9492ZM178.994 54.834V54.6289C178.994 53.8216 179.092 53.0892 179.287 52.4316C179.489 51.7676 179.772 51.1979 180.137 50.7227C180.508 50.2474 180.947 49.8828 181.455 49.6289C181.969 49.3685 182.542 49.2383 183.174 49.2383C183.838 49.2383 184.417 49.3555 184.912 49.5898C185.413 49.8177 185.837 50.153 186.182 50.5957C186.533 51.0319 186.81 51.5592 187.012 52.1777C187.214 52.7962 187.354 53.4961 187.432 54.2773V55.1758C187.36 55.9505 187.22 56.6471 187.012 57.2656C186.81 57.8841 186.533 58.4115 186.182 58.8477C185.837 59.2839 185.413 59.6191 184.912 59.8535C184.411 60.0814 183.825 60.1953 183.154 60.1953C182.536 60.1953 181.969 60.0618 181.455 59.7949C180.947 59.528 180.508 59.1536 180.137 58.6719C179.772 58.1901 179.489 57.6237 179.287 56.9727C179.092 56.3151 178.994 55.6022 178.994 54.834ZM180.811 54.6289V54.834C180.811 55.3613 180.863 55.8561 180.967 56.3184C181.077 56.7806 181.247 57.1875 181.475 57.5391C181.702 57.8906 181.992 58.1673 182.344 58.3691C182.695 58.5645 183.115 58.6621 183.604 58.6621C184.202 58.6621 184.694 58.5352 185.078 58.2812C185.469 58.0273 185.781 57.6921 186.016 57.2754C186.25 56.8587 186.432 56.4062 186.562 55.918V53.5645C186.484 53.2064 186.37 52.8613 186.221 52.5293C186.077 52.1908 185.889 51.8913 185.654 51.6309C185.426 51.3639 185.143 51.1523 184.805 50.9961C184.473 50.8398 184.079 50.7617 183.623 50.7617C183.128 50.7617 182.702 50.8659 182.344 51.0742C181.992 51.276 181.702 51.556 181.475 51.9141C181.247 52.2656 181.077 52.6758 180.967 53.1445C180.863 53.6068 180.811 54.1016 180.811 54.6289ZM192.695 45V60H190.879V45H192.695ZM199.98 60.1953C199.245 60.1953 198.577 60.0716 197.979 59.8242C197.386 59.5703 196.875 59.2155 196.445 58.7598C196.022 58.304 195.697 57.7637 195.469 57.1387C195.241 56.5137 195.127 55.8301 195.127 55.0879V54.6777C195.127 53.8184 195.254 53.0534 195.508 52.3828C195.762 51.7057 196.107 51.1328 196.543 50.6641C196.979 50.1953 197.474 49.8405 198.027 49.5996C198.581 49.3587 199.154 49.2383 199.746 49.2383C200.501 49.2383 201.152 49.3685 201.699 49.6289C202.253 49.8893 202.705 50.2539 203.057 50.7227C203.408 51.1849 203.669 51.7318 203.838 52.3633C204.007 52.9883 204.092 53.6719 204.092 54.4141V55.2246H196.201V53.75H202.285V53.6133C202.259 53.1445 202.161 52.6888 201.992 52.2461C201.829 51.8034 201.569 51.4388 201.211 51.1523C200.853 50.8659 200.365 50.7227 199.746 50.7227C199.336 50.7227 198.958 50.8105 198.613 50.9863C198.268 51.1556 197.972 51.4095 197.725 51.748C197.477 52.0866 197.285 52.5 197.148 52.9883C197.012 53.4766 196.943 54.0397 196.943 54.6777V55.0879C196.943 55.5892 197.012 56.0612 197.148 56.5039C197.292 56.9401 197.497 57.3242 197.764 57.6562C198.037 57.9883 198.366 58.2487 198.75 58.4375C199.141 58.6263 199.583 58.7207 200.078 58.7207C200.716 58.7207 201.257 58.5905 201.699 58.3301C202.142 58.0697 202.529 57.7214 202.861 57.2852L203.955 58.1543C203.727 58.4993 203.438 58.8281 203.086 59.1406C202.734 59.4531 202.301 59.707 201.787 59.9023C201.279 60.0977 200.677 60.1953 199.98 60.1953ZM207.998 51.5332V60H206.182V49.4336H207.9L207.998 51.5332ZM207.627 54.3164L206.787 54.2871C206.794 53.5645 206.888 52.8971 207.07 52.2852C207.253 51.6667 207.523 51.1296 207.881 50.6738C208.239 50.2181 208.685 49.8665 209.219 49.6191C209.753 49.3652 210.371 49.2383 211.074 49.2383C211.569 49.2383 212.025 49.3099 212.441 49.4531C212.858 49.5898 213.219 49.8079 213.525 50.1074C213.831 50.4069 214.069 50.791 214.238 51.2598C214.408 51.7285 214.492 52.2949 214.492 52.959V60H212.686V53.0469C212.686 52.4935 212.591 52.0508 212.402 51.7188C212.22 51.3867 211.96 51.1458 211.621 50.9961C211.283 50.8398 210.885 50.7617 210.43 50.7617C209.896 50.7617 209.45 50.8561 209.092 51.0449C208.734 51.2337 208.447 51.4941 208.232 51.8262C208.018 52.1582 207.861 52.5391 207.764 52.9688C207.673 53.3919 207.627 53.8411 207.627 54.3164ZM214.473 53.3203L213.262 53.6914C213.268 53.112 213.363 52.5553 213.545 52.0215C213.734 51.4876 214.004 51.0124 214.355 50.5957C214.714 50.179 215.153 49.8503 215.674 49.6094C216.195 49.362 216.79 49.2383 217.461 49.2383C218.027 49.2383 218.529 49.3132 218.965 49.4629C219.408 49.6126 219.779 49.8438 220.078 50.1562C220.384 50.4622 220.615 50.8561 220.771 51.3379C220.928 51.8197 221.006 52.3926 221.006 53.0566V60H219.189V53.0371C219.189 52.4447 219.095 51.9857 218.906 51.6602C218.724 51.3281 218.464 51.097 218.125 50.9668C217.793 50.8301 217.396 50.7617 216.934 50.7617C216.536 50.7617 216.185 50.8301 215.879 50.9668C215.573 51.1035 215.316 51.2923 215.107 51.5332C214.899 51.7676 214.74 52.0378 214.629 52.3438C214.525 52.6497 214.473 52.9753 214.473 53.3203ZM225.537 51.5332V60H223.721V49.4336H225.439L225.537 51.5332ZM225.166 54.3164L224.326 54.2871C224.333 53.5645 224.427 52.8971 224.609 52.2852C224.792 51.6667 225.062 51.1296 225.42 50.6738C225.778 50.2181 226.224 49.8665 226.758 49.6191C227.292 49.3652 227.91 49.2383 228.613 49.2383C229.108 49.2383 229.564 49.3099 229.98 49.4531C230.397 49.5898 230.758 49.8079 231.064 50.1074C231.37 50.4069 231.608 50.791 231.777 51.2598C231.947 51.7285 232.031 52.2949 232.031 52.959V60H230.225V53.0469C230.225 52.4935 230.13 52.0508 229.941 51.7188C229.759 51.3867 229.499 51.1458 229.16 50.9961C228.822 50.8398 228.424 50.7617 227.969 50.7617C227.435 50.7617 226.989 50.8561 226.631 51.0449C226.273 51.2337 225.986 51.4941 225.771 51.8262C225.557 52.1582 225.4 52.5391 225.303 52.9688C225.212 53.3919 225.166 53.8411 225.166 54.3164ZM232.012 53.3203L230.801 53.6914C230.807 53.112 230.902 52.5553 231.084 52.0215C231.273 51.4876 231.543 51.0124 231.895 50.5957C232.253 50.179 232.692 49.8503 233.213 49.6094C233.734 49.362 234.329 49.2383 235 49.2383C235.566 49.2383 236.068 49.3132 236.504 49.4629C236.947 49.6126 237.318 49.8438 237.617 50.1562C237.923 50.4622 238.154 50.8561 238.311 51.3379C238.467 51.8197 238.545 52.3926 238.545 53.0566V60H236.729V53.0371C236.729 52.4447 236.634 51.9857 236.445 51.6602C236.263 51.3281 236.003 51.097 235.664 50.9668C235.332 50.8301 234.935 50.7617 234.473 50.7617C234.076 50.7617 233.724 50.8301 233.418 50.9668C233.112 51.1035 232.855 51.2923 232.646 51.5332C232.438 51.7676 232.279 52.0378 232.168 52.3438C232.064 52.6497 232.012 52.9753 232.012 53.3203ZM245.664 60.1953C244.928 60.1953 244.261 60.0716 243.662 59.8242C243.07 59.5703 242.559 59.2155 242.129 58.7598C241.706 58.304 241.38 57.7637 241.152 57.1387C240.924 56.5137 240.811 55.8301 240.811 55.0879V54.6777C240.811 53.8184 240.938 53.0534 241.191 52.3828C241.445 51.7057 241.79 51.1328 242.227 50.6641C242.663 50.1953 243.158 49.8405 243.711 49.5996C244.264 49.3587 244.837 49.2383 245.43 49.2383C246.185 49.2383 246.836 49.3685 247.383 49.6289C247.936 49.8893 248.389 50.2539 248.74 50.7227C249.092 51.1849 249.352 51.7318 249.521 52.3633C249.691 52.9883 249.775 53.6719 249.775 54.4141V55.2246H241.885V53.75H247.969V53.6133C247.943 53.1445 247.845 52.6888 247.676 52.2461C247.513 51.8034 247.253 51.4388 246.895 51.1523C246.536 50.8659 246.048 50.7227 245.43 50.7227C245.02 50.7227 244.642 50.8105 244.297 50.9863C243.952 51.1556 243.656 51.4095 243.408 51.748C243.161 52.0866 242.969 52.5 242.832 52.9883C242.695 53.4766 242.627 54.0397 242.627 54.6777V55.0879C242.627 55.5892 242.695 56.0612 242.832 56.5039C242.975 56.9401 243.18 57.3242 243.447 57.6562C243.721 57.9883 244.049 58.2487 244.434 58.4375C244.824 58.6263 245.267 58.7207 245.762 58.7207C246.4 58.7207 246.94 58.5905 247.383 58.3301C247.826 58.0697 248.213 57.7214 248.545 57.2852L249.639 58.1543C249.411 58.4993 249.121 58.8281 248.77 59.1406C248.418 59.4531 247.985 59.707 247.471 59.9023C246.963 60.0977 246.361 60.1953 245.664 60.1953ZM253.691 51.0938V60H251.885V49.4336H253.643L253.691 51.0938ZM256.992 49.375L256.982 51.0547C256.833 51.0221 256.689 51.0026 256.553 50.9961C256.423 50.9831 256.273 50.9766 256.104 50.9766C255.687 50.9766 255.319 51.0417 255 51.1719C254.681 51.3021 254.411 51.4844 254.189 51.7188C253.968 51.9531 253.792 52.2331 253.662 52.5586C253.538 52.8776 253.457 53.2292 253.418 53.6133L252.91 53.9062C252.91 53.2682 252.972 52.6693 253.096 52.1094C253.226 51.5495 253.424 51.0547 253.691 50.625C253.958 50.1888 254.297 49.8503 254.707 49.6094C255.124 49.362 255.618 49.2383 256.191 49.2383C256.322 49.2383 256.471 49.2546 256.641 49.2871C256.81 49.3132 256.927 49.3424 256.992 49.375Z" fill="black"/>
<path d="M152.672 82.7812V97H150.787V82.7812H152.672ZM157.643 82V97H155.826V82H157.643ZM164.098 86.4336L159.488 91.3652L156.91 94.041L156.764 92.1172L158.609 89.9102L161.891 86.4336H164.098ZM162.447 97L158.678 91.9609L159.615 90.3496L164.576 97H162.447ZM167.779 82V97H165.963V82H167.779ZM174.234 86.4336L169.625 91.3652L167.047 94.041L166.9 92.1172L168.746 89.9102L172.027 86.4336H174.234ZM172.584 97L168.814 91.9609L169.752 90.3496L174.713 97H172.584ZM180.289 97.1953C179.553 97.1953 178.886 97.0716 178.287 96.8242C177.695 96.5703 177.184 96.2155 176.754 95.7598C176.331 95.304 176.005 94.7637 175.777 94.1387C175.549 93.5137 175.436 92.8301 175.436 92.0879V91.6777C175.436 90.8184 175.562 90.0534 175.816 89.3828C176.07 88.7057 176.415 88.1328 176.852 87.6641C177.288 87.1953 177.783 86.8405 178.336 86.5996C178.889 86.3587 179.462 86.2383 180.055 86.2383C180.81 86.2383 181.461 86.3685 182.008 86.6289C182.561 86.8893 183.014 87.2539 183.365 87.7227C183.717 88.1849 183.977 88.7318 184.146 89.3633C184.316 89.9883 184.4 90.6719 184.4 91.4141V92.2246H176.51V90.75H182.594V90.6133C182.568 90.1445 182.47 89.6888 182.301 89.2461C182.138 88.8034 181.878 88.4388 181.52 88.1523C181.161 87.8659 180.673 87.7227 180.055 87.7227C179.645 87.7227 179.267 87.8105 178.922 87.9863C178.577 88.1556 178.281 88.4095 178.033 88.748C177.786 89.0866 177.594 89.5 177.457 89.9883C177.32 90.4766 177.252 91.0397 177.252 91.6777V92.0879C177.252 92.5892 177.32 93.0612 177.457 93.5039C177.6 93.9401 177.805 94.3242 178.072 94.6562C178.346 94.9883 178.674 95.2487 179.059 95.4375C179.449 95.6263 179.892 95.7207 180.387 95.7207C181.025 95.7207 181.565 95.5905 182.008 95.3301C182.451 95.0697 182.838 94.7214 183.17 94.2852L184.264 95.1543C184.036 95.4993 183.746 95.8281 183.395 96.1406C183.043 96.4531 182.61 96.707 182.096 96.9023C181.588 97.0977 180.986 97.1953 180.289 97.1953ZM193.268 88.5332V97H191.451V86.4336H193.17L193.268 88.5332ZM192.896 91.3164L192.057 91.2871C192.063 90.5645 192.158 89.8971 192.34 89.2852C192.522 88.6667 192.792 88.1296 193.15 87.6738C193.508 87.2181 193.954 86.8665 194.488 86.6191C195.022 86.3652 195.641 86.2383 196.344 86.2383C196.839 86.2383 197.294 86.3099 197.711 86.4531C198.128 86.5898 198.489 86.8079 198.795 87.1074C199.101 87.4069 199.339 87.791 199.508 88.2598C199.677 88.7285 199.762 89.2949 199.762 89.959V97H197.955V90.0469C197.955 89.4935 197.861 89.0508 197.672 88.7188C197.49 88.3867 197.229 88.1458 196.891 87.9961C196.552 87.8398 196.155 87.7617 195.699 87.7617C195.165 87.7617 194.719 87.8561 194.361 88.0449C194.003 88.2337 193.717 88.4941 193.502 88.8262C193.287 89.1582 193.131 89.5391 193.033 89.9688C192.942 90.3919 192.896 90.8411 192.896 91.3164ZM199.742 90.3203L198.531 90.6914C198.538 90.112 198.632 89.5553 198.814 89.0215C199.003 88.4876 199.273 88.0124 199.625 87.5957C199.983 87.179 200.423 86.8503 200.943 86.6094C201.464 86.362 202.06 86.2383 202.73 86.2383C203.297 86.2383 203.798 86.3132 204.234 86.4629C204.677 86.6126 205.048 86.8438 205.348 87.1562C205.654 87.4622 205.885 87.8561 206.041 88.3379C206.197 88.8197 206.275 89.3926 206.275 90.0566V97H204.459V90.0371C204.459 89.4447 204.365 88.9857 204.176 88.6602C203.993 88.3281 203.733 88.097 203.395 87.9668C203.062 87.8301 202.665 87.7617 202.203 87.7617C201.806 87.7617 201.454 87.8301 201.148 87.9668C200.842 88.1035 200.585 88.2923 200.377 88.5332C200.169 88.7676 200.009 89.0378 199.898 89.3438C199.794 89.6497 199.742 89.9753 199.742 90.3203ZM213.395 97.1953C212.659 97.1953 211.992 97.0716 211.393 96.8242C210.8 96.5703 210.289 96.2155 209.859 95.7598C209.436 95.304 209.111 94.7637 208.883 94.1387C208.655 93.5137 208.541 92.8301 208.541 92.0879V91.6777C208.541 90.8184 208.668 90.0534 208.922 89.3828C209.176 88.7057 209.521 88.1328 209.957 87.6641C210.393 87.1953 210.888 86.8405 211.441 86.5996C211.995 86.3587 212.568 86.2383 213.16 86.2383C213.915 86.2383 214.566 86.3685 215.113 86.6289C215.667 86.8893 216.119 87.2539 216.471 87.7227C216.822 88.1849 217.083 88.7318 217.252 89.3633C217.421 89.9883 217.506 90.6719 217.506 91.4141V92.2246H209.615V90.75H215.699V90.6133C215.673 90.1445 215.576 89.6888 215.406 89.2461C215.243 88.8034 214.983 88.4388 214.625 88.1523C214.267 87.8659 213.779 87.7227 213.16 87.7227C212.75 87.7227 212.372 87.8105 212.027 87.9863C211.682 88.1556 211.386 88.4095 211.139 88.748C210.891 89.0866 210.699 89.5 210.562 89.9883C210.426 90.4766 210.357 91.0397 210.357 91.6777V92.0879C210.357 92.5892 210.426 93.0612 210.562 93.5039C210.706 93.9401 210.911 94.3242 211.178 94.6562C211.451 94.9883 211.78 95.2487 212.164 95.4375C212.555 95.6263 212.997 95.7207 213.492 95.7207C214.13 95.7207 214.671 95.5905 215.113 95.3301C215.556 95.0697 215.943 94.7214 216.275 94.2852L217.369 95.1543C217.141 95.4993 216.852 95.8281 216.5 96.1406C216.148 96.4531 215.715 96.707 215.201 96.9023C214.693 97.0977 214.091 97.1953 213.395 97.1953ZM226.275 94.9492V82H228.092V97H226.432L226.275 94.9492ZM219.166 91.834V91.6289C219.166 90.8216 219.264 90.0892 219.459 89.4316C219.661 88.7676 219.944 88.1979 220.309 87.7227C220.68 87.2474 221.119 86.8828 221.627 86.6289C222.141 86.3685 222.714 86.2383 223.346 86.2383C224.01 86.2383 224.589 86.3555 225.084 86.5898C225.585 86.8177 226.008 87.153 226.354 87.5957C226.705 88.0319 226.982 88.5592 227.184 89.1777C227.385 89.7962 227.525 90.4961 227.604 91.2773V92.1758C227.532 92.9505 227.392 93.6471 227.184 94.2656C226.982 94.8841 226.705 95.4115 226.354 95.8477C226.008 96.2839 225.585 96.6191 225.084 96.8535C224.583 97.0814 223.997 97.1953 223.326 97.1953C222.708 97.1953 222.141 97.0618 221.627 96.7949C221.119 96.528 220.68 96.1536 220.309 95.6719C219.944 95.1901 219.661 94.6237 219.459 93.9727C219.264 93.3151 219.166 92.6022 219.166 91.834ZM220.982 91.6289V91.834C220.982 92.3613 221.035 92.8561 221.139 93.3184C221.249 93.7806 221.419 94.1875 221.646 94.5391C221.874 94.8906 222.164 95.1673 222.516 95.3691C222.867 95.5645 223.287 95.6621 223.775 95.6621C224.374 95.6621 224.866 95.5352 225.25 95.2812C225.641 95.0273 225.953 94.6921 226.188 94.2754C226.422 93.8587 226.604 93.4062 226.734 92.918V90.5645C226.656 90.2064 226.542 89.8613 226.393 89.5293C226.249 89.1908 226.061 88.8913 225.826 88.6309C225.598 88.3639 225.315 88.1523 224.977 87.9961C224.645 87.8398 224.251 87.7617 223.795 87.7617C223.3 87.7617 222.874 87.8659 222.516 88.0742C222.164 88.276 221.874 88.556 221.646 88.9141C221.419 89.2656 221.249 89.6758 221.139 90.1445C221.035 90.6068 220.982 91.1016 220.982 91.6289ZM232.867 82V97H231.051V82H232.867ZM240.152 97.1953C239.417 97.1953 238.749 97.0716 238.15 96.8242C237.558 96.5703 237.047 96.2155 236.617 95.7598C236.194 95.304 235.868 94.7637 235.641 94.1387C235.413 93.5137 235.299 92.8301 235.299 92.0879V91.6777C235.299 90.8184 235.426 90.0534 235.68 89.3828C235.934 88.7057 236.279 88.1328 236.715 87.6641C237.151 87.1953 237.646 86.8405 238.199 86.5996C238.753 86.3587 239.326 86.2383 239.918 86.2383C240.673 86.2383 241.324 86.3685 241.871 86.6289C242.424 86.8893 242.877 87.2539 243.229 87.7227C243.58 88.1849 243.84 88.7318 244.01 89.3633C244.179 89.9883 244.264 90.6719 244.264 91.4141V92.2246H236.373V90.75H242.457V90.6133C242.431 90.1445 242.333 89.6888 242.164 89.2461C242.001 88.8034 241.741 88.4388 241.383 88.1523C241.025 87.8659 240.536 87.7227 239.918 87.7227C239.508 87.7227 239.13 87.8105 238.785 87.9863C238.44 88.1556 238.144 88.4095 237.896 88.748C237.649 89.0866 237.457 89.5 237.32 89.9883C237.184 90.4766 237.115 91.0397 237.115 91.6777V92.0879C237.115 92.5892 237.184 93.0612 237.32 93.5039C237.464 93.9401 237.669 94.3242 237.936 94.6562C238.209 94.9883 238.538 95.2487 238.922 95.4375C239.312 95.6263 239.755 95.7207 240.25 95.7207C240.888 95.7207 241.428 95.5905 241.871 95.3301C242.314 95.0697 242.701 94.7214 243.033 94.2852L244.127 95.1543C243.899 95.4993 243.609 95.8281 243.258 96.1406C242.906 96.4531 242.473 96.707 241.959 96.9023C241.451 97.0977 240.849 97.1953 240.152 97.1953ZM248.17 88.5332V97H246.354V86.4336H248.072L248.17 88.5332ZM247.799 91.3164L246.959 91.2871C246.965 90.5645 247.06 89.8971 247.242 89.2852C247.424 88.6667 247.695 88.1296 248.053 87.6738C248.411 87.2181 248.857 86.8665 249.391 86.6191C249.924 86.3652 250.543 86.2383 251.246 86.2383C251.741 86.2383 252.197 86.3099 252.613 86.4531C253.03 86.5898 253.391 86.8079 253.697 87.1074C254.003 87.4069 254.241 87.791 254.41 88.2598C254.579 88.7285 254.664 89.2949 254.664 89.959V97H252.857V90.0469C252.857 89.4935 252.763 89.0508 252.574 88.7188C252.392 88.3867 252.132 88.1458 251.793 87.9961C251.454 87.8398 251.057 87.7617 250.602 87.7617C250.068 87.7617 249.622 87.8561 249.264 88.0449C248.906 88.2337 248.619 88.4941 248.404 88.8262C248.189 89.1582 248.033 89.5391 247.936 89.9688C247.844 90.3919 247.799 90.8411 247.799 91.3164ZM254.645 90.3203L253.434 90.6914C253.44 90.112 253.535 89.5553 253.717 89.0215C253.906 88.4876 254.176 88.0124 254.527 87.5957C254.885 87.179 255.325 86.8503 255.846 86.6094C256.367 86.362 256.962 86.2383 257.633 86.2383C258.199 86.2383 258.701 86.3132 259.137 86.4629C259.579 86.6126 259.951 86.8438 260.25 87.1562C260.556 87.4622 260.787 87.8561 260.943 88.3379C261.1 88.8197 261.178 89.3926 261.178 90.0566V97H259.361V90.0371C259.361 89.4447 259.267 88.9857 259.078 88.6602C258.896 88.3281 258.635 88.097 258.297 87.9668C257.965 87.8301 257.568 87.7617 257.105 87.7617C256.708 87.7617 256.357 87.8301 256.051 87.9668C255.745 88.1035 255.488 88.2923 255.279 88.5332C255.071 88.7676 254.911 89.0378 254.801 89.3438C254.697 89.6497 254.645 89.9753 254.645 90.3203ZM265.709 88.5332V97H263.893V86.4336H265.611L265.709 88.5332ZM265.338 91.3164L264.498 91.2871C264.505 90.5645 264.599 89.8971 264.781 89.2852C264.964 88.6667 265.234 88.1296 265.592 87.6738C265.95 87.2181 266.396 86.8665 266.93 86.6191C267.464 86.3652 268.082 86.2383 268.785 86.2383C269.28 86.2383 269.736 86.3099 270.152 86.4531C270.569 86.5898 270.93 86.8079 271.236 87.1074C271.542 87.4069 271.78 87.791 271.949 88.2598C272.118 88.7285 272.203 89.2949 272.203 89.959V97H270.396V90.0469C270.396 89.4935 270.302 89.0508 270.113 88.7188C269.931 88.3867 269.671 88.1458 269.332 87.9961C268.993 87.8398 268.596 87.7617 268.141 87.7617C267.607 87.7617 267.161 87.8561 266.803 88.0449C266.445 88.2337 266.158 88.4941 265.943 88.8262C265.729 89.1582 265.572 89.5391 265.475 89.9688C265.383 90.3919 265.338 90.8411 265.338 91.3164ZM272.184 90.3203L270.973 90.6914C270.979 90.112 271.074 89.5553 271.256 89.0215C271.445 88.4876 271.715 88.0124 272.066 87.5957C272.424 87.179 272.864 86.8503 273.385 86.6094C273.906 86.362 274.501 86.2383 275.172 86.2383C275.738 86.2383 276.24 86.3132 276.676 86.4629C277.118 86.6126 277.49 86.8438 277.789 87.1562C278.095 87.4622 278.326 87.8561 278.482 88.3379C278.639 88.8197 278.717 89.3926 278.717 90.0566V97H276.9V90.0371C276.9 89.4447 276.806 88.9857 276.617 88.6602C276.435 88.3281 276.174 88.097 275.836 87.9668C275.504 87.8301 275.107 87.7617 274.645 87.7617C274.247 87.7617 273.896 87.8301 273.59 87.9668C273.284 88.1035 273.027 88.2923 272.818 88.5332C272.61 88.7676 272.451 89.0378 272.34 89.3438C272.236 89.6497 272.184 89.9753 272.184 90.3203ZM285.836 97.1953C285.1 97.1953 284.433 97.0716 283.834 96.8242C283.242 96.5703 282.73 96.2155 282.301 95.7598C281.878 95.304 281.552 94.7637 281.324 94.1387C281.096 93.5137 280.982 92.8301 280.982 92.0879V91.6777C280.982 90.8184 281.109 90.0534 281.363 89.3828C281.617 88.7057 281.962 88.1328 282.398 87.6641C282.835 87.1953 283.329 86.8405 283.883 86.5996C284.436 86.3587 285.009 86.2383 285.602 86.2383C286.357 86.2383 287.008 86.3685 287.555 86.6289C288.108 86.8893 288.561 87.2539 288.912 87.7227C289.264 88.1849 289.524 88.7318 289.693 89.3633C289.863 89.9883 289.947 90.6719 289.947 91.4141V92.2246H282.057V90.75H288.141V90.6133C288.115 90.1445 288.017 89.6888 287.848 89.2461C287.685 88.8034 287.424 88.4388 287.066 88.1523C286.708 87.8659 286.22 87.7227 285.602 87.7227C285.191 87.7227 284.814 87.8105 284.469 87.9863C284.124 88.1556 283.827 88.4095 283.58 88.748C283.333 89.0866 283.141 89.5 283.004 89.9883C282.867 90.4766 282.799 91.0397 282.799 91.6777V92.0879C282.799 92.5892 282.867 93.0612 283.004 93.5039C283.147 93.9401 283.352 94.3242 283.619 94.6562C283.893 94.9883 284.221 95.2487 284.605 95.4375C284.996 95.6263 285.439 95.7207 285.934 95.7207C286.572 95.7207 287.112 95.5905 287.555 95.3301C287.997 95.0697 288.385 94.7214 288.717 94.2852L289.811 95.1543C289.583 95.4993 289.293 95.8281 288.941 96.1406C288.59 96.4531 288.157 96.707 287.643 96.9023C287.135 97.0977 286.533 97.1953 285.836 97.1953ZM293.863 88.0938V97H292.057V86.4336H293.814L293.863 88.0938ZM297.164 86.375L297.154 88.0547C297.005 88.0221 296.861 88.0026 296.725 87.9961C296.594 87.9831 296.445 87.9766 296.275 87.9766C295.859 87.9766 295.491 88.0417 295.172 88.1719C294.853 88.3021 294.583 88.4844 294.361 88.7188C294.14 88.9531 293.964 89.2331 293.834 89.5586C293.71 89.8776 293.629 90.2292 293.59 90.6133L293.082 90.9062C293.082 90.2682 293.144 89.6693 293.268 89.1094C293.398 88.5495 293.596 88.0547 293.863 87.625C294.13 87.1888 294.469 86.8503 294.879 86.6094C295.296 86.362 295.79 86.2383 296.363 86.2383C296.493 86.2383 296.643 86.2546 296.812 86.2871C296.982 86.3132 297.099 86.3424 297.164 86.375Z" fill="black"/>
<path d="M0 79H120V102H0V79Z" fill="#3E1A8B"/>
</svg>
